<svg width="100" height="39" viewBox="0 0 100 39" fill="none" xmlns="http://www.w3.org/2000/svg">
<path d="M68.582 3.4772L68.5597 3.26294L68.2127 3.29263L68.2347 3.50669L68.582 3.4772ZM70.9158 9.09009L70.9232 9.20825L71.167 9.18618C71.1595 9.11235 71.189 8.99419 71.2408 8.84653L71.2185 8.63227C71.1152 8.6397 71.0117 8.79478 70.9158 9.09009ZM61.8093 16.1581C61.7947 15.9586 61.1742 15.1833 59.9482 13.8168C59.9261 13.5659 60.347 13.1891 61.2111 12.6944L63.6779 10.5452C64.2318 9.84341 64.5568 8.7061 64.6529 7.12563L64.6232 6.76372C64.5273 5.67075 63.7371 4.79185 62.2379 4.11978C61.3515 3.52153 59.7562 3.18911 57.4519 3.13013C55.5465 3.29263 53.0576 3.97192 49.9926 5.17583C49.1506 5.78149 48.1906 6.38716 47.1123 6.99263L47.1269 7.17739C47.1935 7.16997 47.2969 7.13306 47.415 7.05181C47.5406 7.03696 47.6144 7.09614 47.6219 7.21431L47.8064 7.11821L47.8951 7.11079L47.9025 7.19204C47.9099 7.28813 47.2451 7.81255 45.901 8.75044L46.0045 8.94243L45.9158 8.94985L45.6941 8.8686C45.7015 8.93501 45.6056 8.97935 45.4209 8.99419L45.4283 9.07544L45.6426 9.34126C45.5761 9.34868 45.4726 9.31919 45.3324 9.26743C45.022 9.29692 44.7193 9.45942 44.4166 9.76958L44.5422 9.2231C44.9926 7.28071 45.3027 5.55981 45.4652 4.06802L45.4431 3.97192C45.133 3.77251 44.8301 3.49185 44.5494 3.13735C44.5568 2.90845 44.5568 2.77563 44.5494 2.74595L44.5273 2.6647L44.4386 2.68696C43.4638 4.14927 41.5879 6.64556 38.8035 10.1758C36.684 12.687 35.5908 14.0829 35.5244 14.3635C34.6603 15.2571 34.2467 15.7963 34.291 15.9809C34.0621 16.1286 33.966 16.2762 34.0029 16.4387C33.9365 16.4536 33.8922 16.4315 33.8773 16.3649C33.5082 16.9631 32.9615 17.3471 32.2304 17.517L31.4623 17.6944C31.359 17.7165 31.3072 17.7903 31.3146 17.9159L31.3367 18.012L31.6248 17.9454L31.647 18.0266L30.997 18.2778L29.8449 18.5436L29.2392 18.5805C29.1506 18.6692 29.7193 18.5733 29.4978 18.6249L28.7445 18.8022C28.2865 18.9055 28.0355 18.8686 27.9912 18.684L27.9025 18.7061C27.9174 18.7874 27.9246 18.8465 27.9099 18.8981L27.8656 18.7135L27.2599 18.8538C27.2156 18.5733 26.3959 17.554 24.808 15.7963C24.7785 15.4565 25.3396 14.9616 26.4845 14.3192L29.7193 11.4756C30.4431 10.5452 30.8715 9.05317 31.0119 7.00005L30.9676 6.51997C30.842 5.07251 29.7931 3.90552 27.8213 3.00454C26.6543 2.21431 24.5568 1.79321 21.5289 1.72681C19.0177 1.94106 15.7385 2.83462 11.706 4.39302C10.5982 5.1979 9.33533 5.99556 7.91736 6.78579L7.93943 7.03696C8.03552 7.02954 8.16091 6.97798 8.31599 6.88931C8.47849 6.87446 8.56716 6.94829 8.58201 7.09614L8.83298 6.95571L8.95857 6.94829L8.96599 7.06645C8.97341 7.18462 8.09451 7.87153 6.31462 9.127L6.45486 9.34868L6.32947 9.3561L6.05603 9.26001C6.06345 9.33384 5.93787 9.3856 5.67947 9.40767L5.69412 9.54067L5.98962 9.86567C5.89373 9.8731 5.76072 9.84341 5.5908 9.78442C5.01482 9.83618 4.45349 10.2497 3.89959 11.0327L4.03982 11.2542C4.5199 10.811 4.80056 10.5895 4.88181 10.5821L4.9113 10.944C4.83005 10.9514 4.70447 11.003 4.53474 11.0917L4.83748 11.5497C5.40937 10.9314 6.05708 10.3879 6.76521 9.93208C7.11228 10.0208 7.29685 10.1315 7.30427 10.2497L7.57009 10.2276C9.47556 8.81684 11.359 7.7977 13.2275 7.16997L13.2496 7.42095C12.9025 7.93794 12.6662 8.20395 12.5406 8.2186C12.5554 8.39595 12.6144 8.55102 12.7252 8.68403C12.7549 9.00161 11.9054 11.1434 10.1845 15.102C6.27771 24.3043 2.99841 31.1137 0.332397 35.5157C0.339624 35.6041 0.391382 35.7223 0.487476 35.8702C1.1447 35.7151 1.55837 35.5526 1.73552 35.3973L1.87595 35.3827L1.89802 35.6338L2.14177 35.6116L2.39294 35.4713C2.40037 35.5452 2.48162 35.5821 2.65134 35.5672L2.67361 35.8184C2.69568 36.0622 2.55544 36.4313 2.25994 36.9411C1.99412 37.2438 1.70603 37.879 1.4033 38.8465L1.41052 38.9647L1.65427 38.9424C2.71794 37.7534 3.52283 36.5864 4.07673 35.4491C7.17869 34.5407 9.54216 33.6471 11.1816 32.7682C12.8287 32.6278 14.0842 32.192 14.941 31.4756L14.9261 31.3428L14.3058 31.5274L14.1654 31.5422L14.1506 31.4092C15.3619 31.2247 16.1965 30.9586 16.6617 30.5895C19.0177 28.7725 20.7976 27.4876 22.0015 26.7268C24.4756 24.91 26.0857 23.1374 26.8168 21.4166C26.9551 21.3865 27.093 21.3545 27.2304 21.3206C27.5775 21.3059 27.7695 21.2985 27.8213 21.2836C27.8064 21.2172 27.8361 21.1803 27.9025 21.1655C28.4564 21.1065 28.1906 21.2024 28.5451 21.1211L29.4756 20.9071C29.4166 20.9217 29.3943 20.9514 29.4092 21.0104L29.5494 20.9217C29.5199 20.9217 29.4978 20.9145 29.4756 20.9071L29.6306 20.8702L29.5568 20.9145C29.6603 20.9291 29.7711 20.9217 29.8967 20.8922L29.9631 21.1655L25.7312 27.8938L24.7931 29.068L24.3353 30.6042L24.424 30.5821L24.8818 30.3901L24.7342 30.9883L24.7785 31.1655L24.9039 31.3206C24.8449 31.3354 24.8228 31.3723 24.8375 31.4387L24.8597 31.5348L25.0517 31.4905C25.3324 31.2467 25.4506 31.0252 25.4062 30.8258C25.709 30.8774 25.9084 30.8997 26.0119 30.8702L26.034 30.9661C25.8494 31.0104 25.7533 31.1581 25.7385 31.4092L25.7607 31.5053L25.864 31.4831C27.4004 29.8065 31.167 24.068 34.1877 20.1758C34.0916 19.7549 35.6646 19.1713 38.9142 18.418L39.0177 18.3959C39.1359 18.9055 38.8847 20.1389 38.2644 22.0961C37.8656 23.2778 37.6736 23.9278 37.7031 24.0311C37.1861 25.6041 36.9424 26.4536 36.9719 26.5866L35.8197 30.3604C35.0738 32.2956 34.5052 34.3266 34.1064 36.4684C34.1728 36.4536 34.2761 36.461 34.424 36.4979L34.5863 36.3575C34.6011 36.4241 34.6455 36.4461 34.7119 36.4313L34.6455 36.1581L35.1476 36.1434C35.2953 36.1065 35.4209 35.9217 35.5244 35.5821C35.5021 35.0725 35.6056 34.7993 35.8345 34.7401C36.1447 33.529 36.3367 32.9233 36.4033 32.901C36.6912 31.6973 36.9054 31.0104 37.0457 30.8405C37.4816 29.2749 37.799 28.4698 38.0058 28.418L38.0502 28.6102L37.7326 29.4299C37.1787 31.8893 36.6174 33.8317 36.0488 35.2571L36.2113 35.9661L36.3146 35.944C37.6883 32.9897 39.6676 27.1405 42.2451 18.3959C42.3191 17.6278 42.6883 17.0295 43.3457 16.6086L43.1978 16.4536L43.1758 16.3723C43.4713 16.3059 43.6779 16.1877 43.7961 16.0252C43.7814 15.9586 43.5228 15.8627 43.0207 15.7297L44.3058 10.2202C44.5863 9.96899 44.7488 9.83618 44.8006 9.83618L44.8228 10.1168C44.7562 10.1241 44.6529 10.161 44.5347 10.2422L44.7785 10.5895C45.2215 10.1094 45.7015 9.69575 46.226 9.34868C46.4918 9.42251 46.6248 9.51118 46.6396 9.59985L46.8316 9.58501C48.2939 8.51411 49.7267 7.74595 51.1373 7.28071L51.1521 7.46528C50.8937 7.85669 50.7164 8.0561 50.6203 8.06353C50.6351 8.19653 50.672 8.3147 50.7385 8.41802C50.7607 8.66177 50.1256 10.2866 48.8258 13.2999C45.8566 20.2792 43.3678 25.4417 41.3441 28.7948C41.3515 28.8612 41.3959 28.9499 41.4771 29.068C41.9719 28.9499 42.2894 28.8243 42.415 28.7061L42.5037 28.6987L42.5185 28.8834L42.7252 28.8686L42.9099 28.7725C42.9172 28.8243 42.9838 28.8465 43.1094 28.8391L43.124 29.0385C43.1388 29.2157 43.0355 29.4963 42.8064 29.8803C42.5924 30.1094 42.3707 30.5895 42.1343 31.3206L42.1418 31.4167L42.3338 31.4018C43.1388 30.5008 43.7517 29.6145 44.1728 28.743C46.5287 28.0489 48.3234 27.3768 49.5642 26.712C50.8271 26.6012 51.7799 26.2762 52.4299 25.7297L52.4224 25.6338L51.9424 25.7741L51.839 25.7815L51.8316 25.6854C52.7474 25.5526 53.39 25.3458 53.7371 25.0725C55.5244 23.6987 56.876 22.7165 57.7918 22.1405C60.6426 20.0651 61.9718 18.0709 61.8093 16.1581ZM61.322 16.2836L61.3885 17.0295C61.2998 17.2143 61.2039 17.3102 61.1152 17.3176L61.0045 16.0473C61.2111 16.1211 61.3146 16.195 61.322 16.2836ZM5.3988 10.2719L5.27322 10.2792L5.25115 10.0502L5.76072 10.0059L5.76814 10.1241C5.68689 10.1315 5.5613 10.1758 5.3988 10.2719ZM2.90994 35.1684C2.61443 35.0356 2.34861 34.9838 2.1197 35.0059L2.09001 34.644C2.07537 34.5038 2.15662 34.4077 2.33376 34.3708C2.49626 34.3561 2.59236 34.4743 2.60701 34.7106C3.03552 34.1862 3.27185 33.9204 3.31619 33.9129L3.58943 34.0237C3.50076 34.7624 3.27185 35.1389 2.90994 35.1684ZM29.5053 7.34712C29.3797 7.36196 29.1285 6.97056 28.7666 6.19497L28.7445 5.96606C28.9808 5.94399 29.2246 6.32798 29.483 7.11821L29.5053 7.34712ZM29.1506 4.59243L29.0472 4.83618L25.4357 3.32954C27.8433 3.41079 29.0842 3.83169 29.1506 4.59243ZM13.8996 17.687L13.39 17.7313L13.3677 17.5022L13.8773 17.4581L13.8996 17.687ZM13.4859 9.82134L13.6115 9.81392L13.641 10.1758C13.5228 10.1833 13.3677 10.3604 13.1758 10.7002L13.1535 10.4491C13.3826 10.1758 13.5008 9.96899 13.4859 9.82134ZM12.415 12.3471L12.4594 12.8272L12.3338 12.8346L12.2894 12.3545L12.415 12.3471ZM11.8537 13.2483L12.0974 13.226C12.0754 13.6249 11.9646 13.8391 11.7652 13.8538L11.6396 13.8612C11.7947 13.5954 11.8685 13.3885 11.8537 13.2483ZM11.4328 14.5038L11.573 14.4889L11.5804 14.6071L11.3515 14.9913L11.1078 15.0133L11.1004 14.8952C11.3441 14.8731 11.4549 14.7475 11.4328 14.5038ZM11.0191 15.6338L10.9453 16.2393L10.8197 16.2467L10.7681 15.6485L11.0191 15.6338ZM6.87595 27.4137C6.71345 28.2409 6.53611 28.6618 6.35154 28.6766L6.34412 28.5584C6.29978 28.1522 6.47712 27.7682 6.87595 27.4137ZM6.11521 29.0606L6.12263 29.1788C6.13728 29.3413 6.06345 29.4374 5.90095 29.4446L5.89373 29.3264C5.87888 29.1862 5.95271 29.0975 6.11521 29.0606ZM5.89373 32.4801L6.27771 32.4432L6.29236 32.5762C6.19646 32.5835 6.07087 32.6352 5.9158 32.7239L5.67205 32.7459C5.6572 32.6206 5.73845 32.5245 5.89353 32.4801H5.89373ZM16.8242 29.1049C14.6676 30.1684 13.3972 30.8922 13.0207 31.2688C10.6869 32.0813 9.52732 32.5834 9.54939 32.7829C7.47419 33.6028 6.10779 34.2084 5.45056 34.585C5.29548 34.5999 5.0738 34.5407 4.77849 34.4077C4.74158 33.9868 4.93357 33.6471 5.33962 33.3739C5.70154 33.3442 6.04861 33.3959 6.38103 33.5362C6.76521 33.3368 7.43728 33.1153 8.39001 32.879L8.36775 32.6278L7.59978 32.6944C7.69568 32.5614 8.43416 32.2143 9.82263 31.653L10.2068 31.6161L10.2142 31.7342C9.55681 31.7932 9.1949 31.9854 9.11365 32.3325C9.12849 32.4876 9.21716 32.554 9.37966 32.5393C9.87439 32.229 10.1181 32.0444 10.1107 31.9926C11.0488 31.8155 13.641 30.4565 17.8877 27.9233L17.9099 28.1522C17.9174 28.2629 17.5554 28.5731 16.8242 29.1049ZM10.3101 31.2467C10.9306 31.195 11.4623 30.944 11.9054 30.5083C12.0826 30.4934 12.1787 30.5598 12.1861 30.7149C11.8832 30.7446 11.2998 30.9956 10.4506 31.4831L10.325 31.4905L10.3101 31.2467ZM20.8197 23.1743L17.5627 25.752C15.1402 27.3399 13.8404 28.1374 13.6558 28.1522C9.80056 30.2719 7.40037 31.3723 6.4697 31.4536L6.32947 31.4682C6.44763 31.0327 8.16091 27.5245 11.4845 20.9217C12.9469 20.7961 15.2511 20.1168 18.39 18.876L19.158 18.8094C20.7459 18.6692 21.9349 18.9793 22.7179 19.718L22.7621 20.1979C22.1713 21.8967 21.5215 22.8864 20.8197 23.1743ZM14.4535 19.5924L14.9779 19.5481L14.9851 19.6663L14.4609 19.7106L14.4535 19.5924ZM21.8168 18.3442L22.201 18.3073C22.5554 18.4772 22.74 18.6249 22.7549 18.7579L22.7621 18.876C22.4224 18.9055 22.1049 18.7284 21.8168 18.3442ZM22.8582 12.4137C22.5185 12.8198 21.5879 13.5141 20.0664 14.4889C19.5642 14.5333 17.6957 15.2571 14.4609 16.675C14.2992 16.6011 14.121 16.5707 13.9439 16.5866L13.9217 16.3575C13.8847 15.8922 14.0916 15.3088 14.5494 14.5999C14.8006 13.2704 15.0738 12.5096 15.3767 12.325L18.0724 6.26157C18.0427 5.88481 18.6189 5.59673 19.8006 5.39731L20.1845 5.3604L20.2142 5.70767C21.3736 5.53032 22.0974 5.427 22.3781 5.40474C24.5199 5.22017 25.6351 5.65591 25.7238 6.69731L25.9676 6.67505L25.9158 6.06216L26.1816 6.03989C26.8094 6.38716 27.1492 6.80806 27.1935 7.30278C27.223 7.64263 27.0385 8.06353 26.6469 8.56587C26.4845 8.58052 26.3885 8.46235 26.3736 8.22603L26.1078 8.24829L26.0488 8.98677C24.9631 10.6116 24.1728 11.4461 23.6853 11.4905C23.2422 12.1036 22.9689 12.4063 22.8582 12.4137ZM24.5125 16.6604C24.291 16.5125 24.1136 16.4461 23.9808 16.4536L23.9511 16.0917L24.1949 16.0696L24.7342 16.3872C24.7562 16.5569 24.6824 16.6456 24.5125 16.6604ZM26.226 18.6913C26.4623 18.7874 26.6027 18.8907 26.6322 18.9868L26.514 19.0163L26.5215 19.0237C26.4992 19.0237 26.4697 19.0311 26.4474 19.0385L26.2703 19.1788L26.226 18.6913ZM26.3885 19.7106L26.3664 19.6145L26.6765 19.5407L26.6986 19.6368L26.3885 19.7106ZM27.1343 20.5452C27.4519 20.4934 27.607 20.4713 28.1978 20.3383L28.2201 20.4344L27.0974 20.6928C27.1123 20.6411 27.1269 20.5895 27.1343 20.5452ZM28.2275 21.0104C27.7549 21.0547 27.8582 20.9956 27.1049 21.1655L27.0826 21.0696L28.0207 20.7667L28.4713 20.6633L28.5154 20.8405C28.316 20.8848 28.4638 20.8848 28.2275 21.0104ZM29.2246 20.7741C29.1136 20.8036 29.0252 20.752 28.9734 20.6264L29.2615 20.5598C29.3869 20.5303 29.4681 20.5821 29.4978 20.7077L29.2246 20.7741ZM31.9275 17.8641L31.9054 17.7682L32.3707 17.6575L32.415 17.8346L31.9275 17.8641ZM34.8154 35.5747C34.8449 35.4417 34.8523 35.3458 34.8375 35.2792L34.941 35.2571C35.0664 35.2276 35.1402 35.2719 35.1699 35.3901L35.192 35.486L34.8154 35.5747ZM36.839 18.6249L36.6322 18.5879C36.2998 18.7209 36.0191 18.8168 35.7902 18.8686L35.5982 18.9129C35.4875 18.9424 35.3988 18.8981 35.3545 18.7799L36.706 18.4698L37.1492 18.2629L37.2969 18.4329C37.0826 18.4772 36.9275 18.5436 36.839 18.6249ZM37.8803 18.2924L37.8582 18.1965C37.9246 18.1817 38.0133 18.1301 38.1094 18.034L39.0693 17.8125L39.0916 17.9084C38.582 18.034 38.1758 18.1596 37.8803 18.2924ZM38.0281 16.35C37.9615 16.3649 37.873 16.4241 37.7621 16.5125C37.7474 16.4461 37.6144 16.4461 37.3633 16.5053C37.3191 16.3206 38.0281 16.0622 39.4978 15.7223L39.7045 15.678L39.7488 15.8553C38.7148 16.1581 38.1388 16.328 38.0281 16.35ZM40.6131 13.5584C40.5095 14.7327 40.0961 15.3975 39.3648 15.5672L39.3428 15.4713L38.6927 15.7223L38.4047 15.7889C38.257 15.8258 38.124 15.8184 38.0058 15.7815L37.9468 15.5229C37.9246 15.427 38.8627 14.127 40.7681 11.6307L40.9896 11.6678C41.0709 12.0075 40.9453 12.6352 40.6131 13.5584ZM45.1845 9.64399L45.0961 9.65141L45.0812 9.46685L45.4652 9.42993L45.4726 9.52583C45.4062 9.54067 45.3101 9.57759 45.1845 9.64399ZM43.3013 28.5584C43.0797 28.4549 42.8802 28.4108 42.7105 28.4254L42.6883 28.1448C42.6808 28.0489 42.74 27.9823 42.8656 27.9454C42.9912 27.9307 43.065 28.0192 43.0797 28.2114C43.3972 27.8051 43.5746 27.5983 43.6115 27.5983L43.8109 27.6795C43.7371 28.2409 43.5672 28.5362 43.3013 28.5584ZM63.4933 7.43579C63.3972 7.44321 63.2127 7.1477 62.9246 6.54946L62.9099 6.36489C63.0945 6.35005 63.2865 6.63813 63.4785 7.22895L63.4933 7.43579ZM63.2275 5.32349L63.1388 5.51548L60.4062 4.37075C62.2304 4.42993 63.1758 4.74751 63.2275 5.32349ZM51.6396 15.2719L51.2554 15.3088L51.2408 15.1241L51.6248 15.0946L51.6396 15.2719ZM51.322 9.29692L51.4254 9.2895L51.4474 9.57017C51.3515 9.57759 51.2334 9.7106 51.0929 9.96899L51.0783 9.78442C51.2482 9.57017 51.3293 9.40767 51.322 9.29692ZM50.517 11.2172L50.5465 11.5792L50.4431 11.5866L50.4135 11.2247L50.517 11.2172ZM50.0812 11.9042L50.2732 11.8893C50.2511 12.1995 50.1699 12.362 50.0295 12.3768L49.9261 12.384C50.0369 12.1774 50.0886 12.0149 50.0812 11.9042ZM49.7711 12.8495L49.8597 12.842L49.867 12.9379L49.6972 13.2334L49.5051 13.2483L49.4978 13.1522C49.6972 13.1374 49.7857 13.034 49.7711 12.8495ZM49.4609 13.7061L49.3943 14.1788L49.3056 14.1862L49.2687 13.7209L49.4609 13.7061ZM46.3072 22.6647C46.1816 23.2852 46.0488 23.6028 45.9084 23.6174L45.901 23.5362C45.8789 23.226 46.0117 22.9307 46.3072 22.6647ZM45.7238 23.9129L45.731 23.9942C45.7459 24.127 45.6869 24.201 45.5539 24.2083L45.5465 24.1124C45.539 24.0163 45.5982 23.9499 45.7238 23.9129ZM45.5613 26.5126L45.8566 26.4905L45.864 26.5864C45.7976 26.5938 45.6941 26.6307 45.576 26.6973L45.384 26.712C45.3765 26.6086 45.4357 26.5422 45.5613 26.5126ZM53.8553 23.9499C52.2304 24.7549 51.2629 25.3014 50.9601 25.5821C49.1875 26.2024 48.3088 26.5866 48.3234 26.7417C46.7504 27.3694 45.7164 27.8198 45.2289 28.1079C45.1107 28.1153 44.9408 28.0709 44.7193 27.9676C44.6898 27.65 44.8375 27.3915 45.1476 27.1995C45.4283 27.1774 45.6941 27.2143 45.9379 27.3176C46.2334 27.17 46.7429 27.0075 47.4668 26.8229L47.4519 26.6381L46.8463 26.6825C46.9203 26.5792 47.4888 26.3131 48.5451 25.8848L48.8404 25.8627L48.8478 25.944C48.3457 25.9883 48.065 26.136 48.0058 26.4018C48.0133 26.52 48.0871 26.5792 48.2127 26.5643C48.582 26.3206 48.7592 26.1803 48.7592 26.136C49.4681 26.0104 51.4328 24.9764 54.6603 23.0415L54.675 23.226C54.6824 23.3073 54.4092 23.5436 53.8553 23.9499ZM48.907 25.5747C49.3869 25.5303 49.7931 25.3458 50.133 25.0208C50.2584 25.0059 50.3324 25.0651 50.3396 25.1833C50.1181 25.2053 49.6824 25.3901 49.025 25.7446L48.9217 25.752L48.907 25.5747ZM56.898 19.4374L54.4387 21.4166C52.5996 22.6204 51.6027 23.226 51.4474 23.2409C48.5228 24.8508 46.706 25.6854 45.9896 25.7446L45.8863 25.752C45.9748 25.4196 47.2822 22.7534 49.808 17.7459C50.9084 17.65 52.6513 17.1256 55.0443 16.1803L55.6426 16.1286C56.8463 16.0252 57.7474 16.2616 58.3383 16.8301L58.3677 17.192C57.9172 18.4624 57.4299 19.2083 56.898 19.4374ZM52.0679 16.7194L52.4519 16.6825L52.4594 16.7786L52.0754 16.8155L52.0679 16.7194ZM57.6588 15.7667L57.9543 15.7446C58.2275 15.8774 58.3678 15.9958 58.3752 16.0917L58.3826 16.1729C58.124 16.195 57.8803 16.0622 57.6588 15.7667ZM58.4342 11.269C58.1758 11.5792 57.4742 12.1108 56.3295 12.8495C55.9453 12.8864 54.5273 13.4329 52.0754 14.4963C51.9572 14.452 51.8242 14.4374 51.6838 14.4448L51.6691 14.26C51.6396 13.9055 51.7947 13.4624 52.1344 12.9233C52.3263 11.9041 52.5406 11.3354 52.7621 11.2024L54.8226 6.5938C54.8006 6.32056 55.2363 6.09907 56.1226 5.92915L56.4179 5.90708L56.4402 6.18774C57.3117 6.04731 57.8582 5.96606 58.0797 5.94399C59.7045 5.80356 60.5539 6.12856 60.6203 6.92622L60.8123 6.91138L60.7754 6.46821L60.9676 6.45356C61.4402 6.71196 61.6912 7.02231 61.7209 7.39145C61.7429 7.65747 61.6099 7.98228 61.3293 8.35903C61.2039 8.37368 61.1301 8.2852 61.1152 8.09321L60.9232 8.10786L60.864 8.66177C60.0443 9.91001 59.4461 10.5526 59.0693 10.5821C58.7371 11.0327 58.5303 11.2616 58.4342 11.269ZM59.2984 14.3413L59.2761 14.0606L59.4681 14.0459L59.8818 14.2969C59.8892 14.4151 59.8301 14.4817 59.7045 14.4963C59.5273 14.3856 59.3943 14.3338 59.2984 14.3413ZM24.9187 32.2807L24.7267 32.325L24.5642 32.4653C24.5937 32.5834 24.6676 32.6278 24.7931 32.5983C24.9187 32.5688 24.9705 32.495 24.941 32.3768L24.9187 32.2807ZM24.1877 30.8258L24.2097 30.9217C24.3353 30.8922 24.3869 30.8184 24.3574 30.7002L24.3353 30.6042C24.2172 30.6338 24.1654 30.7077 24.1877 30.8258ZM29.3869 18.4549L29.6086 18.4034L29.5642 18.2114L29.3428 18.2629L29.3869 18.4549ZM96.4033 24.0829C94.158 24.585 93.8773 24.4963 93.4047 24.5333L93.4195 24.718L93.6263 24.7032L93.7371 24.6958L93.7076 24.6737L93.9511 24.5776C96.1742 24.3338 96.4328 24.4225 96.4105 24.1713L96.4033 24.0829ZM84.3131 25.6854L84.3279 25.8702H84.3574L84.3428 25.6854H84.3131ZM82.9246 20.8184L82.7252 20.752C82.5627 21.1877 82.4814 21.4461 82.4888 21.52L82.4963 21.6012C82.6513 21.5938 82.7918 21.328 82.9246 20.8184ZM96.8611 24.0459L96.876 24.2305L97.2008 24.2895L97.1861 24.1049L96.8611 24.0459ZM81.5804 25.9143L81.0783 25.8553L80.9896 26.0473L80.997 26.1434L83.9881 25.8922L83.9734 25.7077L81.5804 25.9143ZM80.2215 19.3635L80.2142 19.2674L80.1107 19.2749L79.9261 19.393L80.0295 19.5702C80.1699 19.5555 80.2363 19.4889 80.2215 19.3635ZM98.2791 22.687L98.4195 22.6721C98.5008 22.6647 98.5377 22.5983 98.5303 22.4801L98.449 22.3028C97.9394 22.3471 97.7031 22.3694 97.2894 22.5983L97.282 22.5024L96.6691 22.5614C96.6543 22.3768 96.6027 22.2807 96.5215 22.2881L96.2039 22.3176C95.8345 22.3471 95.6572 22.3325 95.4726 22.4727C95.4652 22.4063 95.4431 22.3768 95.4062 22.3768L95.0517 22.4063L94.8449 22.5245C94.8375 22.4581 94.8154 22.4284 94.7783 22.4284L94.6529 22.5393L94.6455 22.4432L94.1506 22.4063L94.0324 22.4137L94.0472 22.5983L94.2984 22.6647L94.5347 22.65C94.616 22.7018 94.7045 22.7165 94.808 22.709L95.0148 22.6057L95.022 22.687C93.8627 22.975 93.8699 22.9233 93.0722 23.0563C92.9838 22.9971 92.9172 22.9676 92.8728 22.975L92.8582 22.9897C92.7695 22.9823 92.7178 22.9233 92.7105 22.8272L93.124 22.7756C93.1535 22.7756 93.1758 22.8051 93.4047 22.8495C93.7371 22.687 93.7517 22.6204 93.9291 22.6057L93.9142 22.4209C92.7769 22.6426 93.2347 22.495 91.8093 22.6204L91.7429 22.6278L91.7281 22.4432C93.5597 22.2217 92.9468 22.3471 93.5746 22.17C93.582 22.2364 93.6041 22.2659 93.641 22.2659C93.7083 22.1971 93.7968 22.1529 93.8922 22.1405L94.0178 22.1331C94.6601 22.0813 94.8744 22.2069 96.1447 21.8524L96.1521 21.9336L96.359 21.8301L96.551 21.8155C96.5361 21.6307 96.8168 21.6012 96.9129 21.5938L96.898 21.3944C94.6676 21.845 94.0842 21.7194 93.4638 21.8967L93.4564 21.8155C92.873 21.9188 92.8508 21.8745 92.7031 21.8819C92.6588 21.8893 92.5924 21.9262 92.5183 22C92.5111 21.9336 92.4888 21.904 92.4445 21.904C92.4224 21.904 92.415 21.9114 92.4076 21.9114L90.517 22.2215C90.5095 22.17 90.4875 22.1405 90.4431 22.1477C89.4609 22.3545 89.7267 22.3915 88.4121 22.5096C88.3529 22.517 88.2719 22.5465 88.1683 22.6131C88.1609 22.5614 88.1314 22.5319 88.065 22.5391L87.2599 22.6057L86.7209 22.7385C86.7134 22.687 86.684 22.6575 86.6174 22.6647C86.3146 22.7459 86.0488 22.7977 85.8345 22.8125H85.8197C85.6869 22.8272 85.8863 22.7756 85.7828 22.7313L85.6203 22.8272C85.384 22.8495 85.5095 22.8125 84.6972 22.8198C83.2719 22.9971 83.4269 23.0192 83.2719 23.0266L82.74 22.9897C82.7474 23.0415 82.7179 23.0784 82.6588 23.0784C82.0531 22.9971 81.7429 22.901 81.7355 22.7903C81.8168 22.2143 81.9572 21.9188 82.1566 21.904L82.2599 21.8967L82.1713 22.0887L82.2748 22.0813C82.4668 21.978 82.5554 21.8819 82.548 21.7932L82.5332 21.5938L82.3412 21.6086L82.3263 21.4241C82.3117 21.2836 82.3338 21.1581 82.3855 21.0547L82.8213 20.3532L82.8361 20.5377L83.0427 20.5229L83.0281 20.3383L82.9099 20.1684C83.065 20.0356 83.1832 19.9616 83.2791 19.9543L83.2719 19.8583L82.9912 19.8805L82.9689 19.5999C83.5303 18.4329 83.7961 17.7534 83.7814 17.5614L83.9808 17.6426C84.1064 17.6352 84.1654 17.5614 84.158 17.4284L83.966 17.4432L83.9586 17.362C83.9451 17.2271 83.9707 17.0912 84.0324 16.9706C84.3353 16.653 84.4756 16.3354 84.4461 16.003C84.5052 15.9956 84.5347 16.0252 84.5422 16.0917C84.8006 15.944 85 15.5526 85.1476 14.9026C85.6056 14.0754 86.2554 12.4211 87.1049 9.94692C88.7297 5.57466 88.6633 5.10942 88.8922 4.07544L88.7002 4.09009C88.7148 4.2231 88.6853 4.34868 88.6263 4.46685C88.4933 4.41509 88.39 4.3856 88.3162 4.39302L88.3088 4.31177C88.2791 3.93501 88.4343 3.48462 88.7888 2.95278L88.8773 2.94536L89.0398 3.58052L89.2318 3.56587C89.2246 3.52153 89.2761 3.27036 89.3797 2.80513C89.3722 2.70903 89.2984 2.65005 89.1506 2.64263L88.966 2.76079C88.9513 2.62778 88.9586 2.28071 88.9808 1.72681L88.8847 1.73423C88.7222 1.57173 88.641 1.43872 88.6336 1.32798L87.5775 1.4313C87.5701 1.35747 87.5332 1.24673 87.4594 1.10649C87.4519 1.0104 87.6883 0.914307 88.1758 0.818408L88.39 0.899658L88.5894 0.781494C88.5967 0.8479 88.6336 0.877393 88.7074 0.870166L88.9068 0.752002C88.9142 0.818408 88.9511 0.8479 89.0252 0.840479L89.1211 0.833252L89.1062 0.618994C88.9586 0.633838 88.5672 0.633838 87.9469 0.611572L87.7474 0.74458L87.74 0.626416C82.7844 1.03247 79.9705 1.26157 79.2984 1.32798C79.2097 1.3354 78.8627 1.32798 78.2496 1.31313C78.257 1.39438 78.1832 1.43872 78.0355 1.45356L77.8213 1.35747L77.0974 1.54224C76.9275 1.55688 76.6396 1.54946 76.2408 1.50532C76.1301 1.5938 75.997 1.64556 75.8345 1.6604C75.7459 1.66763 76.8906 1.60122 77.9541 1.52739C77.8433 1.61606 77.6736 1.66763 77.4373 1.68989C77.2748 1.70474 77.1344 1.68247 77.0162 1.61606C76.8537 1.68989 76.3295 1.80806 75.4506 1.9852L75.2363 1.90415L71.7799 2.43579C71.6469 2.36938 71.4918 2.34712 71.3146 2.36196C71.1299 2.37681 70.8197 2.44321 70.3914 2.56138L68.7222 3.25552L68.8478 3.46235C68.9291 3.45493 69.0472 3.41079 69.1875 3.32954L69.7785 3.3811L69.7045 3.93501C69.158 4.17876 68.8404 4.54067 68.7517 4.99868C67.932 5.3604 67.5258 5.61899 67.5258 5.77407L67.5332 5.87017L67.6588 5.86274L67.8802 5.74458L68.1388 6.05474L68.1758 6.48306C68.1904 6.61607 66.8093 9.5186 64.0472 15.1907C61.6543 20.6559 60.3988 23.6471 60.2806 24.1862C59.4609 24.4151 58.9881 24.7475 58.8478 25.1907C58.8627 25.3309 59.1062 25.427 59.5789 25.4639L59.6011 25.678L59.3869 26.0325L59.4238 26.461C59.4461 26.6825 60.0443 26.8524 61.2185 26.9706C61.2111 26.8967 61.2482 26.8524 61.3293 26.845C61.3515 27.1108 61.2777 27.6278 61.1078 28.396L61.2334 28.3885C61.7207 27.7239 61.9498 27.2659 61.9275 27.0149L62.031 27.0075C62.1492 27 62.2748 27.1331 62.4224 27.4209C62.2748 27.4801 61.7578 28.6543 60.8715 30.9514L60.997 31.1581L61.1226 31.1508C62.2082 28.4034 62.8877 26.8819 63.1683 26.5938C64.5937 26.4682 67.0605 26.2172 70.5613 25.8405L70.7828 25.7077C70.7902 25.7815 70.8345 25.8184 70.9158 25.811L71.1447 25.7889L71.3664 25.6559C71.3736 25.7297 71.4179 25.7667 71.4992 25.7592L74.1506 25.5303C74.8523 25.4713 75.1845 25.2571 75.1551 24.8952C75.1476 24.7993 75.5613 24.6883 76.3959 24.5702C76.4771 24.5627 76.5953 24.585 76.7578 24.6368C76.7504 24.5702 77.1713 24.5038 78.0133 24.4299C78.0355 23.9868 78.1758 23.7504 78.4269 23.7284L78.4047 23.5141C78.1683 23.5362 77.9025 23.5954 77.5924 23.6987C77.0385 23.6692 76.684 23.6249 76.5361 23.5731C76.3885 23.6543 76.2777 23.6987 76.1965 23.7061L74.35 23.7653L74.1285 23.8834C74.1211 23.8168 74.0767 23.7874 73.9955 23.7948L73.8922 23.8022L73.6558 23.9204C73.6484 23.8538 73.4564 23.8022 73.0722 23.7504L72.8361 23.8907L72.3781 23.9276L72.3707 23.8094C74.7488 23.551 75.9232 23.226 75.8935 22.842C76.0488 22.8272 76.1301 22.901 76.1447 23.0563L76.839 22.879L76.8168 22.6647L71.1226 22.8198C71.1299 22.8938 71.0929 22.9379 71.0119 22.9454L70.3176 22.8864C70.1402 22.901 69.9926 22.9528 69.8744 23.0415L69.616 22.9454C68.8996 23.0045 68.3678 23.0932 68.0133 23.204C67.5258 23.167 66.9867 23.1743 66.3885 23.226L65.1107 23.3368L64.5199 23.2704C64.4904 22.8938 65.2215 21.0399 66.7281 17.7165C67.164 16.5938 67.5627 15.8922 67.9469 15.6264C68.0281 15.619 68.1463 15.6485 68.3088 15.7149L69.2172 15.4047L69.6824 15.4786C70.4652 15.4122 71.3736 15.1907 72.415 14.8065C72.6736 14.7844 72.8656 14.7993 73.0058 14.8583L73.7002 14.6958L75.7681 14.5186C76.6469 14.4448 77.5996 14.2526 78.6336 13.935L78.6115 13.7209C78.2275 13.7579 78.0281 13.6915 78.0133 13.5362C77.9912 13.2483 77.7105 13.1301 77.1713 13.1743L77.1492 12.9602L77.7179 12.7977L79.2097 12.6721L79.1875 12.4581C79.1285 12.4653 78.8258 12.4581 78.2644 12.4358L78.2422 12.2069L78.8183 12.1551C78.9734 12.1405 79.0398 12.0665 79.0252 11.9188C78.2496 11.9411 77.8582 11.9042 77.8508 11.8006C72.4445 12.0665 69.7342 12.1182 69.7193 11.9483C69.6381 11.9557 69.5273 12.0075 69.3797 12.0961L69.2392 11.8745C70.6721 8.83169 71.514 7.29556 71.7578 7.27329C71.765 7.39145 71.706 7.58345 71.573 7.84204L71.5804 7.93794L71.8093 7.91587C72.3781 6.55688 72.8582 5.85532 73.257 5.82583C74.9556 5.67798 73.0207 5.56724 76.6543 4.99868C76.8021 5.06509 76.9054 5.09458 76.9793 5.08716C78.4047 4.79927 80.3914 4.49634 82.9394 4.18618L82.9246 3.97192L81.5656 4.09751L81.5509 3.88345C81.7134 3.8686 81.8463 3.81685 81.9572 3.72837L81.9644 3.84653C82.0385 3.83911 82.1418 3.78735 82.2748 3.69868C82.5111 3.67661 82.6883 3.69868 82.8138 3.76528C83.2865 3.6397 83.6705 3.56587 83.9511 3.53618L84.8006 3.45493C85.0074 3.32212 85.1033 3.20395 85.0961 3.09321L85.0886 2.99712C84.8744 3.01919 84.6306 3.00454 84.3428 2.95278C84.3353 2.83462 84.3943 2.75337 84.5347 2.71646L86.1152 2.5688L86.839 2.38403C86.8463 2.46528 86.8834 2.49497 86.9424 2.49497C87.0162 2.48755 87.1197 2.43579 87.2525 2.34712C87.2894 2.35454 87.3338 2.35454 87.3707 2.36196C87.2748 2.56138 87.1638 2.84946 87.0531 3.22603L86.8463 3.24087C86.8316 3.10044 86.7947 2.97505 86.7281 2.86411L86.6248 2.87153C84.7045 8.2186 83.8478 10.7077 82.0754 14.8139C81.7504 15.8627 81.4771 16.4461 81.2408 16.5717C81.2482 16.6899 81.322 16.7489 81.4476 16.7342C81.4918 17.2512 81.3736 17.7608 81.0857 18.2629C80.2658 20.6264 79.7193 21.9188 79.4387 22.1551L79.6232 23.2704C79.6306 23.3885 79.5717 23.4549 79.4461 23.4698L79.2541 23.4846C79.2244 23.1743 79.1136 23.0266 78.9142 23.0489L78.8109 23.0563C78.5597 23.4477 78.3678 23.8981 78.2422 24.4225L78.4342 24.4077C78.6927 24.2379 78.8109 24.0385 78.7887 23.8094L79.1728 23.7725L79.3943 23.8538C79.2172 24.1344 79.1359 24.3561 79.1506 24.5258L79.2541 24.7032L79.0029 25.294L79.0103 25.3901C79.2318 25.3678 79.4756 25.4417 79.7342 25.5967C79.9113 25.5821 80.1033 25.5008 80.3176 25.3604C80.539 25.3383 81.3662 25.3309 82.7918 25.3309L83.508 25.0872C84.3797 25.0797 84.5199 25.102 85.2732 25.0356L85.5834 25.0059L85.7459 24.8952L85.7533 24.9913C86.5435 24.9247 86.5953 24.9764 87.2156 25.0502L87.223 25.1463L86.7873 25.1833L86.8019 25.3678C86.9349 25.3532 87.0531 25.3161 87.1492 25.235C87.2599 25.2276 87.3263 25.2866 87.3338 25.4196C87.1566 25.4344 86.9572 25.4786 86.7355 25.5526L86.5435 25.486C86.2408 25.5672 86.3072 25.5895 86.1004 25.6042L85.7976 25.5452C85.8051 25.5967 85.7754 25.6336 85.7238 25.6336C85.731 25.752 85.7976 25.811 85.9084 25.8036L86.2185 25.7741L87.8359 25.6336L88.449 25.5008C88.4564 25.5526 88.4785 25.5821 88.5303 25.5747L88.8256 25.4639L89.3797 25.4196C89.808 25.3827 89.8006 25.3532 90.731 25.2053C90.7238 25.1463 90.7459 25.1241 90.7902 25.1168L90.7976 25.1979C92.3117 24.9395 92.4076 24.9247 92.6513 24.8434L92.6734 24.8877C93.0502 24.7993 92.8359 24.8213 92.9394 24.7475C92.9469 24.8139 92.9689 24.8434 93.0058 24.8434L93.2717 24.8213L93.257 24.6219L92.7178 24.6145L92.7105 24.5999C92.6883 24.6071 92.6734 24.6071 92.6513 24.6145H92.5775V24.6293C92.2156 24.7032 92.2082 24.6514 91.9718 24.6737L90.6203 24.7475L90.6129 24.6514L91.3662 24.5481L91.6394 24.5258L91.7947 24.4151L91.8019 24.5112C92.8656 24.4225 93.2422 24.6883 98.1609 23.6397C98.4267 23.6174 98.4047 23.3959 98.5746 22.9379C98.4845 22.9441 98.3945 22.9236 98.316 22.879C97.9099 23.034 97.6957 22.9602 96.9129 23.0858C96.8463 23.0932 96.7947 23.034 96.7724 22.9159L96.765 22.8346L97.5183 22.8567C97.6588 22.842 97.932 22.8198 98.3383 22.5909C98.3383 22.6575 98.1904 22.6944 98.2791 22.687ZM61.9129 23.2704L61.5656 23.2999C61.551 23.1596 61.7355 22.6278 62.1195 21.7194L62.3486 21.6973C62.356 21.9114 62.2156 22.4358 61.9129 23.2704ZM62.3338 21.5866L62.3263 21.4905C62.3189 21.3723 62.3929 21.2911 62.5554 21.2541L62.5627 21.35C62.5701 21.4905 62.4963 21.5717 62.3338 21.5866ZM66.9498 25.1538L66.9572 25.2497L66.381 25.3014L66.3736 25.2053L66.9498 25.1538ZM66.2554 25.0946C66.2629 25.2127 66.0857 25.3458 65.7015 25.4786L64.9926 25.427L64.7636 25.4491L64.7416 25.235L66.2554 25.0946ZM70.9232 3.61021L70.576 3.6397L70.5687 3.52153C70.5613 3.40337 70.6277 3.32212 70.7754 3.28521L70.901 3.27778L71.1373 3.37368C71.1447 3.51411 71.0783 3.59536 70.9232 3.61021ZM76.2039 2.57622L76.3146 2.5688L76.3293 2.78286L76.0117 2.81255C76.0045 2.69438 76.0635 2.61313 76.2039 2.57622ZM74.8744 3.04146L74.35 2.98228L74.3426 2.88638C75.0295 2.8272 75.2584 2.75337 75.6795 2.63521C75.6869 2.71645 75.7607 2.74595 75.8935 2.7313L75.9084 2.94536L75.7015 2.96763C75.539 2.98228 75.3988 2.96021 75.2806 2.8938C75.1551 2.97505 75.022 3.02661 74.8744 3.04146ZM75.5318 4.95435L75.5244 4.85825L76.3736 4.777L76.381 4.8731L75.5318 4.95435ZM76.4402 4.21567L76.4328 4.09751L76.8463 4.0606L76.8537 4.17876L76.4402 4.21567ZM76.5361 2.76821L76.4254 2.77563L76.5215 2.54653L77.4668 2.45806L77.4742 2.57622C77.2304 2.59829 76.9129 2.6647 76.5361 2.76821ZM77.0162 4.80649L77.0013 4.59243L77.415 4.55552C77.5554 4.54067 77.6293 4.60708 77.6367 4.75493L77.0162 4.80649ZM79.5199 1.39438L78.9881 1.54224L78.8922 1.54946C78.641 1.57173 78.316 1.56431 77.932 1.52739C78.6189 1.48306 79.2761 1.4313 79.5199 1.39438ZM78.9511 3.75786L78.9586 3.85376L78.2275 3.92036L78.2201 3.82427L78.9511 3.75786ZM80.1476 4.32642C80.1402 4.23794 80 4.17876 79.7119 4.14927L78.9808 4.3561L78.4195 4.37817C78.2939 4.2895 78.2275 4.23052 78.2201 4.18618L78.8701 4.2231L80.3324 3.98677L81.0783 4.01626L81.0857 4.13442C80.7164 4.17134 80.4062 4.23794 80.1476 4.32642ZM87.6736 2.38403C87.7621 2.39146 87.8213 2.39145 87.8433 2.39145C88.1019 2.14048 88.39 1.94106 88.7222 1.80063C88.4564 2.96763 88.0428 3.83169 87.4742 4.39302L87.0605 4.14185C87.4076 3.26294 87.6144 2.67954 87.6736 2.38403ZM86.4033 4.56294L86.5066 4.55552C86.3662 4.82134 86.2408 4.96157 86.1373 4.96899L86.1152 4.68833C86.1816 4.68833 86.2777 4.64399 86.4033 4.56294ZM85.5834 6.51997C85.7828 5.72231 85.9748 5.27192 86.1521 5.15376L86.1595 5.24966C86.056 5.98833 85.8935 6.37974 85.6795 6.40923L85.7164 6.87446C85.539 7.12563 85.4578 7.31763 85.4652 7.46528L85.3619 7.4727L85.3027 6.83013C85.4209 6.81548 85.517 6.71196 85.5834 6.51997ZM85.2658 7.58345C85.2732 7.69438 85.1994 7.95278 85.0517 8.35161L84.9482 8.35903L84.9261 8.07837C85.0664 7.75337 85.1845 7.59087 85.2658 7.58345ZM79.3058 24.8803L79.2984 24.7993L79.4904 24.7844L79.5125 25.0651C79.4092 25.0725 79.3353 25.0133 79.3058 24.8803ZM87.8213 25.102C87.8138 25.0356 87.7843 25.0059 87.7179 25.0133L87.2379 25.0577L87.2304 24.9616H87.2748L88.4121 24.8657L88.4195 24.9616C88.0871 24.9764 87.8877 25.0282 87.8213 25.102ZM87.2525 24.8657C87.2969 24.8877 87.2748 24.91 87.2525 24.9247C87.2304 24.9174 87.201 24.8952 87.2525 24.8657ZM87.3117 23.5362L86.6765 23.5879L86.6691 23.4918L87.2451 23.4403L87.7474 23.3147C87.7549 23.3737 87.7843 23.3959 87.8508 23.3885C88.449 23.2852 88.39 23.2557 88.6779 23.2334C88.774 23.226 88.8332 23.2852 88.8404 23.4034L87.3117 23.5362ZM89.5347 23.3442C89.1803 23.3073 89.158 23.2778 88.907 23.2999L88.8996 23.2186L89.4681 23.167L89.4756 23.2483C89.4166 23.2557 89.6306 23.2704 89.5347 23.3442ZM89.5791 23.2409L89.5717 23.1596L89.8818 23.1301L89.8892 23.2114L89.5791 23.2409ZM90.2658 23.1817L90.2586 23.1004C90.3101 23.0932 90.384 23.0563 90.4801 22.9823C90.6351 22.9676 90.7164 23.0709 90.7312 23.1891L90.2658 23.1817ZM91.1447 23.0709L91.1373 22.975L91.514 22.9454L91.5215 23.0415L91.1447 23.0709ZM91.6691 23.0266C91.6617 22.9159 91.706 22.8495 91.8021 22.8346L91.9275 22.9971C91.9203 22.9454 91.9424 22.9159 91.9867 22.9084L92.0828 23.0858L91.6691 23.0266ZM86.0931 25.4344L86.0783 25.2497L86.0191 25.2571L86.034 25.4417L86.0931 25.4344ZM99.0695 22.0739C99.1285 22.037 99.158 22 99.0178 21.978C98.9511 22.0518 99.0916 22.0739 98.9439 22.0813L98.9511 22.1477C98.966 22.1331 99.0029 22.1108 99.0324 22.0887L98.9511 22.1551V22.1625L98.7961 22.362L99.1062 22.2512H99.1433L99.1285 22.0665L99.0695 22.0739ZM99.6086 22.495L99.5494 22.5024L99.5642 22.687L100 22.65C99.9926 22.5319 99.7045 22.495 99.6086 22.495ZM98.9365 22.17L98.9439 22.1625V22.1551C98.9439 22.1551 98.9365 22.1625 98.9365 22.17Z" fill="black"/>
<path d="M70.5834 8.49927L70.5908 8.61743L70.8346 8.59536C70.8271 8.52153 70.8566 8.40337 70.9084 8.25552L70.8863 8.04146C70.7828 8.04888 70.6795 8.20395 70.5834 8.49927ZM68.2496 2.88638L68.2275 2.67212L67.8803 2.70161L67.9025 2.91587L68.2496 2.88638ZM61.4771 15.5672C61.4623 15.3678 60.842 14.5924 59.616 13.226C59.5938 12.975 60.0148 12.5983 60.8789 12.1036L63.3457 9.95434C63.8996 9.25259 64.2244 8.11528 64.3205 6.53481L64.291 6.1729C64.1949 5.07974 63.4047 4.20103 61.9055 3.52895C61.0191 2.93071 59.4238 2.59829 57.1197 2.53911C55.2143 2.70161 52.7252 3.3811 49.6604 4.58501C48.8184 5.19067 47.8582 5.79614 46.7799 6.40181L46.7947 6.58657C46.8611 6.57915 46.9645 6.54224 47.0828 6.46099C47.2082 6.44614 47.2822 6.50532 47.2895 6.62349L47.4742 6.52739L47.5627 6.51997L47.5701 6.60122C47.5775 6.69731 46.9129 7.22153 45.5687 8.15962L45.6721 8.35161L45.5834 8.35903L45.3619 8.27778C45.3693 8.34419 45.2732 8.38852 45.0887 8.40337L45.0961 8.48462L45.3102 8.75044C45.2438 8.75786 45.1404 8.72837 45 8.67661C44.6898 8.7061 44.3869 8.8686 44.0842 9.17876L44.2098 8.63227C44.6604 6.68989 44.9705 4.96899 45.133 3.4772L45.1107 3.3811C44.8006 3.18169 44.4979 2.90103 44.2172 2.54653C44.2246 2.31763 44.2246 2.18462 44.2172 2.15513L44.1949 2.07388L44.1064 2.09614C43.1314 3.55845 41.2555 6.05474 38.4713 9.58501C36.3516 12.0961 35.2584 13.4918 35.192 13.7725C34.3279 14.6663 33.9143 15.2053 33.9586 15.3901C33.7297 15.5377 33.6336 15.6854 33.6707 15.8479C33.6041 15.8627 33.5598 15.8405 33.5451 15.7741C33.1758 16.3723 32.6293 16.7563 31.898 16.9262L31.1299 17.1034C31.0266 17.1256 30.9748 17.1995 30.9822 17.325L31.0045 17.4209L31.2924 17.3545L31.3146 17.4358L30.6646 17.687L29.5125 17.9528L28.907 17.9897C28.8184 18.0784 29.3869 17.9823 29.1654 18.034L28.4121 18.2114C27.9543 18.3147 27.7031 18.2778 27.6588 18.0932L27.5701 18.1153C27.585 18.1965 27.5924 18.2555 27.5775 18.3073L27.5332 18.1227L26.9275 18.2629C26.8834 17.9823 26.0635 16.9631 24.4756 15.2053C24.4461 14.8657 25.0074 14.3708 26.1521 13.7284L29.3869 10.8848C30.1107 9.95434 30.5391 8.46235 30.6795 6.40923L30.6352 5.92915C30.5096 4.48169 29.4609 3.3147 27.4889 2.41372C26.3221 1.62349 24.2246 1.20239 21.1965 1.13599C18.6854 1.35005 15.4062 2.2438 11.3736 3.8022C10.2658 4.60708 9.00293 5.40474 7.58496 6.19497L7.60703 6.44614C7.70313 6.43872 7.82871 6.38716 7.98379 6.29849C8.14629 6.28364 8.23496 6.35747 8.24961 6.50532L8.50078 6.36489L8.62637 6.35747L8.63359 6.47563C8.64102 6.5938 7.76211 7.28071 5.98223 8.53618L6.12266 8.75786L5.99707 8.76528L5.72383 8.66919C5.73125 8.74302 5.60566 8.79478 5.34707 8.81684L5.36191 8.94985L5.65723 9.27485C5.56133 9.28228 5.42832 9.25259 5.25859 9.1936C4.68242 9.24516 4.12109 9.65884 3.56719 10.4416L3.70762 10.6633C4.1877 10.2202 4.46816 9.99868 4.54941 9.99126L4.5791 10.3532C4.49785 10.3604 4.37227 10.4122 4.20234 10.5008L4.50527 10.9586C5.0772 10.3406 5.72483 9.79717 6.43281 9.34126C6.77988 9.42993 6.96465 9.54067 6.97187 9.65884L7.23789 9.63677C9.14336 8.22602 11.0266 7.20688 12.8951 6.57915L12.9174 6.83013C12.5701 7.34712 12.3338 7.61313 12.2082 7.62778C12.223 7.80513 12.2822 7.9602 12.393 8.09321C12.4225 8.41079 11.573 10.5526 9.85234 14.5112C5.94531 23.7135 2.66621 30.5229 0 34.9247C0.00742187 35.0133 0.0591797 35.1315 0.155078 35.2791C0.8125 35.1241 1.22598 34.9618 1.40332 34.8065L1.54355 34.7918L1.56582 35.0428L1.80938 35.0207L2.06055 34.8805C2.06797 34.9543 2.14922 34.9913 2.31914 34.9764L2.34121 35.2276C2.36328 35.4713 2.22305 35.8405 1.92754 36.35C1.66172 36.653 1.37363 37.2881 1.0709 38.2557L1.07832 38.3737L1.32207 38.3516C2.38555 37.1625 3.19063 35.9956 3.74453 34.8582C6.84648 33.9499 9.20977 33.0561 10.8494 32.1774C12.4963 32.037 13.7518 31.6012 14.6086 30.8848L14.5938 30.752L13.9734 30.9366L13.833 30.9514L13.8184 30.8184C15.0295 30.6338 15.8641 30.3678 16.3295 29.9987C18.6854 28.1817 20.4652 26.8967 21.6691 26.136C24.1434 24.3192 25.7533 22.5465 26.4846 20.8258C26.6174 20.7961 26.7504 20.7666 26.898 20.7297C27.2451 20.7151 27.4373 20.7077 27.4889 20.6928C27.4742 20.6264 27.5037 20.5895 27.5701 20.5747C28.124 20.5157 27.8582 20.6116 28.2127 20.5303L29.1434 20.3163L29.2984 20.2791L29.2246 20.3235C29.3279 20.3383 29.4387 20.3309 29.5643 20.3014L29.6307 20.5747L25.3988 27.3028L24.4609 28.4772L24.0029 30.0133L24.0916 29.9913L24.5494 29.7993L24.4018 30.3975L24.4461 30.5747L24.5717 30.7297C24.5125 30.7446 24.4904 30.7815 24.5051 30.8479L24.5273 30.944L24.7193 30.8997C25 30.6559 25.1182 30.4344 25.0738 30.235C25.3766 30.2866 25.576 30.3088 25.6795 30.2793L25.7016 30.3752C25.517 30.4196 25.4209 30.5672 25.4062 30.8184L25.4283 30.9143L25.5318 30.8922C27.068 29.2157 30.8346 23.4772 33.8553 19.585C33.7592 19.1641 35.3324 18.5805 38.582 17.8272L38.6854 17.8051C38.8035 18.3147 38.5525 19.5481 37.932 21.5053C37.5332 22.687 37.3412 23.3368 37.3707 23.4403C36.8537 25.0133 36.61 25.8627 36.6396 25.9956L35.4875 29.7696C34.7414 31.7047 34.1729 33.7356 33.774 35.8774C33.8404 35.8627 33.9439 35.8702 34.0916 35.9071L34.2541 35.7666C34.2687 35.8332 34.3131 35.8553 34.3797 35.8405L34.3131 35.5672L34.8154 35.5526C34.9631 35.5157 35.0887 35.3309 35.192 34.9913C35.1699 34.4817 35.2732 34.2084 35.5021 34.1493C35.8123 32.9381 36.0045 32.3325 36.0709 32.3102C36.359 31.1065 36.573 30.4196 36.7135 30.2497C37.1492 28.684 37.4668 27.879 37.6736 27.8272L37.718 28.0192L37.4004 28.8391C36.8463 31.2985 36.2852 33.2409 35.7164 34.6663L35.8789 35.3752L35.9822 35.3532C37.3561 32.3989 39.3354 26.5495 41.9129 17.8051C41.9867 17.037 42.3561 16.4387 43.0133 16.0178L42.8656 15.8627L42.8434 15.7815C43.1389 15.7149 43.3457 15.5969 43.4639 15.4344C43.449 15.3678 43.1906 15.2719 42.6883 15.1389L43.9734 9.62934C44.2541 9.37817 44.4166 9.24536 44.4682 9.24536L44.4904 9.52583C44.424 9.53325 44.3205 9.57016 44.2023 9.65141L44.4461 9.99868C44.8893 9.5186 45.3693 9.10493 45.8936 8.75786C46.1596 8.83169 46.2924 8.92036 46.3072 9.00884L46.4992 8.99419C47.9615 7.92329 49.3943 7.15513 50.8051 6.68989L50.8197 6.87446C50.5613 7.26587 50.384 7.46528 50.2881 7.4727C50.3027 7.60571 50.3396 7.72388 50.4062 7.8272C50.4283 8.07095 49.7932 9.69575 48.4934 12.709C45.5244 19.6883 43.0354 24.8508 41.0117 28.204C41.0191 28.2704 41.0635 28.359 41.1447 28.4772C41.6396 28.359 41.9572 28.2334 42.0828 28.1153L42.1713 28.1079L42.1861 28.2924L42.393 28.2778L42.5775 28.1817C42.585 28.2334 42.6514 28.2555 42.777 28.2483L42.7918 28.4477C42.8064 28.6249 42.7031 28.9055 42.4742 29.2895C42.26 29.5186 42.0385 29.9987 41.8021 30.7297L41.8094 30.8258L42.0016 30.811C42.8064 29.91 43.4195 29.0237 43.8404 28.1522C46.1965 27.4581 47.9912 26.7858 49.2318 26.1211C50.4949 26.0104 51.4475 25.6854 52.0975 25.1389L52.09 25.0428L51.61 25.1833L51.5066 25.1907L51.4992 25.0946C52.415 24.9616 53.0576 24.7549 53.4047 24.4817C55.192 23.1079 56.5436 22.1256 57.4594 21.5495C60.3102 19.4743 61.6396 17.4801 61.4771 15.5672ZM60.9896 15.6928L61.0561 16.4387C60.9676 16.6235 60.8715 16.7194 60.7828 16.7268L60.6721 15.4565C60.8789 15.5303 60.9822 15.6041 60.9896 15.6928ZM5.06641 9.6811L4.94102 9.68833L4.91875 9.45942L5.42832 9.41509L5.43574 9.53325C5.35449 9.54067 5.22891 9.58501 5.06641 9.6811ZM2.57754 34.5776C2.28223 34.4446 2.01621 34.393 1.7873 34.4151L1.75781 34.0532C1.74297 33.9129 1.82422 33.8168 2.00156 33.7799C2.16387 33.7653 2.25996 33.8834 2.2748 34.1198C2.70312 33.5954 2.93945 33.3295 2.98379 33.3221L3.25703 33.4329C3.16836 34.1713 2.93945 34.5481 2.57754 34.5776ZM29.1729 6.7563C29.0473 6.77114 28.7961 6.37974 28.4344 5.60415L28.4121 5.37524C28.6484 5.35317 28.8922 5.73716 29.1506 6.52739L29.1729 6.7563ZM28.8184 4.00161L28.7148 4.24536L25.1033 2.73853C27.5111 2.81978 28.752 3.24087 28.8184 4.00161ZM13.5672 17.0961L13.0576 17.1405L13.0355 16.9114L13.5451 16.867L13.5672 17.0961ZM13.1535 9.23052L13.2791 9.22309L13.3088 9.58501C13.1906 9.59243 13.0355 9.76958 12.8434 10.1094L12.8213 9.85825C13.0502 9.58501 13.1684 9.37817 13.1535 9.23052ZM12.0826 11.7563L12.127 12.2364L12.0016 12.2438L11.9572 11.7637L12.0826 11.7563ZM11.5215 12.6575L11.7652 12.6352C11.743 13.034 11.6322 13.2483 11.4328 13.2629L11.3072 13.2704C11.4623 13.0045 11.5361 12.7977 11.5215 12.6575ZM11.1004 13.9129L11.2408 13.8981L11.248 14.0163L11.0191 14.4004L10.7754 14.4225L10.7682 14.3043C11.0119 14.2823 11.1227 14.1567 11.1004 13.9129ZM10.6869 15.043L10.6131 15.6485L10.4875 15.6559L10.4357 15.0577L10.6869 15.043ZM6.54355 26.8229C6.38105 27.65 6.20391 28.0709 6.01914 28.0858L6.01191 27.9676C5.96758 27.5614 6.14473 27.1774 6.54355 26.8229ZM5.78281 28.4698L5.79023 28.5879C5.80508 28.7504 5.73125 28.8465 5.56875 28.8538L5.56133 28.7356C5.54648 28.5954 5.62031 28.5067 5.78281 28.4698ZM5.56133 31.8893L5.94531 31.8524L5.96016 31.9854C5.86406 31.9926 5.73848 32.0444 5.5834 32.1331L5.33965 32.1551C5.325 32.0295 5.40625 31.9336 5.56133 31.8893ZM16.4918 28.5141C14.3354 29.5776 13.065 30.3014 12.6883 30.678C10.3545 31.4905 9.19492 31.9926 9.21719 32.192C7.1418 33.012 5.77539 33.6174 5.11816 33.9942C4.96309 34.0088 4.7416 33.9498 4.44609 33.8168C4.40918 33.3959 4.60117 33.0561 5.00742 32.7829C5.36934 32.7534 5.71641 32.8051 6.04883 32.9454C6.43281 32.7459 7.10488 32.5245 8.05762 32.2881L8.03555 32.037L7.26738 32.1034C7.36328 31.9706 8.10195 31.6235 9.49043 31.0622L9.87441 31.0252L9.88184 31.1434C9.22461 31.2024 8.86269 31.3944 8.78144 31.7416C8.79609 31.8967 8.88477 31.9631 9.04727 31.9483C9.54219 31.6381 9.78574 31.4536 9.77852 31.4018C10.7164 31.2247 13.3088 29.8657 17.5555 27.3325L17.5775 27.5614C17.585 27.6721 17.223 27.9823 16.4918 28.5141ZM9.97793 30.6559C10.5982 30.6041 11.1301 30.3532 11.573 29.9174C11.7504 29.9026 11.8465 29.969 11.8537 30.1241C11.551 30.1538 10.9676 30.4047 10.1182 30.8922L9.99258 30.8997L9.97793 30.6559ZM20.4875 22.5834L17.2305 25.1684C14.808 26.7563 13.5082 27.554 13.316 27.5688C9.46094 29.6883 7.06055 30.7889 6.13008 30.8702L5.98965 30.8848C6.10781 30.4491 7.82129 26.9411 11.1447 20.3383C12.607 20.2127 14.9113 19.5333 18.0502 18.2926L18.8184 18.226C20.4062 18.0858 21.5953 18.3959 22.3781 19.1344L22.4225 19.6145C21.8391 21.3059 21.1891 22.2956 20.4875 22.5834ZM14.1211 19.0016L14.6455 18.9573L14.6529 19.0754L14.1285 19.1198L14.1211 19.0016ZM21.4846 17.7534L21.8686 17.7165C22.223 17.8864 22.4076 18.034 22.4225 18.167L22.4299 18.2852C22.09 18.3147 21.7725 18.1374 21.4846 17.7534ZM22.5258 11.8229C22.1861 12.229 21.2555 12.9233 19.7342 13.8981C19.2318 13.9424 17.3633 14.6663 14.1285 16.0842C13.9668 16.0103 13.7886 15.9798 13.6115 15.9956L13.5895 15.7667C13.5525 15.3014 13.7592 14.718 14.2172 14.009C14.4682 12.6795 14.7416 11.9188 15.0443 11.7342L17.74 5.67075C17.7105 5.29399 18.2865 5.00591 19.4682 4.80649L19.8523 4.76958L19.8818 5.11685C21.0414 4.9395 21.765 4.83618 22.0457 4.81392C24.1877 4.62935 25.3027 5.06509 25.3914 6.10649L25.6352 6.08423L25.5834 5.47134L25.8494 5.44907C26.4771 5.79614 26.8168 6.21724 26.8611 6.71196C26.8906 7.05181 26.7061 7.4727 26.3146 7.97505C26.1521 7.9897 26.0561 7.87153 26.0414 7.6352L25.7754 7.65747L25.7164 8.39595C24.6307 10.0208 23.8404 10.8553 23.3531 10.8997C22.91 11.5125 22.6367 11.8155 22.5258 11.8229ZM24.1803 16.0696C23.9586 15.9217 23.7814 15.8553 23.6484 15.8627L23.6189 15.5008L23.8627 15.4786L24.4018 15.7963C24.424 15.9661 24.35 16.0547 24.1803 16.0696ZM25.8938 18.1004C26.1301 18.1965 26.2703 18.2999 26.2998 18.3959L26.1816 18.4254L26.1891 18.4329C26.167 18.4329 26.1373 18.4403 26.1152 18.4477L25.9379 18.5879L25.8938 18.1004ZM26.0561 19.1198L26.034 19.0237L26.3441 18.9499L26.3664 19.0459L26.0561 19.1198ZM26.8021 19.9543C27.1197 19.9026 27.2748 19.8805 27.8656 19.7475L27.8877 19.8434L26.7652 20.102C26.7799 20.0502 26.7947 19.9987 26.8021 19.9543ZM27.8951 20.4196C27.4225 20.4639 27.5258 20.4047 26.7725 20.5747L26.7504 20.4786L27.6957 20.1758L28.1463 20.0725L28.1906 20.2497C27.9838 20.294 28.1314 20.294 27.8951 20.4196ZM28.8922 20.1833C28.7814 20.2127 28.6928 20.1612 28.641 20.0356L28.9291 19.969C29.0547 19.9395 29.1359 19.9913 29.1654 20.1168L28.8922 20.1833ZM31.5953 17.2733L31.573 17.1774L32.0385 17.0665L32.0828 17.2438L31.5953 17.2733ZM34.483 34.9838C34.5125 34.8508 34.5199 34.7549 34.5051 34.6883L34.6086 34.6663C34.7342 34.6368 34.808 34.6811 34.8375 34.7993L34.8598 34.8952L34.483 34.9838ZM36.5066 18.034L36.2998 17.9971C35.9676 18.1301 35.6869 18.226 35.4578 18.2778L35.2658 18.3221C35.1551 18.3516 35.0664 18.3073 35.0221 18.1891L36.3736 17.879L36.8168 17.6721L36.9646 17.842C36.7504 17.8864 36.5953 17.9528 36.5066 18.034ZM37.548 17.7016L37.5258 17.6057C37.5924 17.5909 37.6809 17.5393 37.777 17.4432L38.7371 17.2215L38.7592 17.3176C38.2496 17.4432 37.8434 17.5688 37.548 17.7016ZM37.6957 15.7592C37.6293 15.7741 37.5406 15.8331 37.4299 15.9217C37.415 15.8553 37.2822 15.8553 37.0311 15.9143C36.9867 15.7297 37.6957 15.4713 39.1654 15.1315L39.3723 15.0872L39.4166 15.2645C38.3826 15.5672 37.8064 15.7372 37.6957 15.7592ZM40.2807 12.9676C40.1773 14.1418 39.7637 14.8065 39.0324 14.9764L39.0104 14.8805L38.3604 15.1315L38.0725 15.1981C37.9246 15.235 37.7918 15.2276 37.6736 15.1907L37.6145 14.9321C37.5924 14.8362 38.5303 13.5362 40.4357 11.0399L40.6572 11.0768C40.7385 11.4166 40.6131 12.0444 40.2807 12.9676ZM44.8523 9.05317L44.7637 9.0606L44.7488 8.87603L45.133 8.83911L45.1402 8.93501C45.0738 8.94985 44.9779 8.98677 44.8523 9.05317ZM42.9689 27.9676C42.7475 27.8641 42.548 27.8198 42.3781 27.8346L42.3561 27.554C42.3486 27.4581 42.4076 27.3915 42.5332 27.3545C42.6588 27.3399 42.7326 27.4284 42.7475 27.6204C43.065 27.2143 43.2422 27.0075 43.2791 27.0075L43.4785 27.0887C43.4047 27.65 43.235 27.9454 42.9689 27.9676ZM63.1609 6.84497C63.065 6.85239 62.8803 6.55688 62.5924 5.95864L62.5775 5.77407C62.7621 5.75923 62.9543 6.04731 63.1463 6.63813L63.1609 6.84497ZM62.8951 4.73267L62.8064 4.92466L60.0738 3.77993C61.898 3.83911 62.8434 4.15669 62.8951 4.73267ZM51.3072 14.6811L50.9232 14.718L50.9084 14.5333L51.2924 14.4963L51.3072 14.6811ZM50.9896 8.7061L51.093 8.69868L51.1152 8.97935C51.0191 8.98677 50.901 9.11977 50.7607 9.37817L50.7459 9.1936C50.9158 8.97935 50.9971 8.81684 50.9896 8.7061ZM50.1846 10.6264L50.2143 10.9883L50.1107 10.9958L50.0812 10.6338L50.1846 10.6264ZM49.7488 11.3131L49.9408 11.2985C49.9188 11.6086 49.8375 11.7711 49.6973 11.7858L49.5938 11.7932C49.7045 11.5866 49.7563 11.4241 49.7488 11.3131ZM49.4387 12.2586L49.5273 12.2512L49.5348 12.3471L49.3648 12.6426L49.1729 12.6575L49.1654 12.5614C49.3648 12.5465 49.4535 12.4432 49.4387 12.2586ZM49.1285 13.1153L49.0621 13.5879L48.9734 13.5954L48.9365 13.1301L49.1285 13.1153ZM45.9748 22.0739C45.8494 22.6944 45.7164 23.012 45.576 23.0266L45.5687 22.9454C45.5465 22.6352 45.6795 22.3397 45.9748 22.0739ZM45.3914 23.3221L45.3988 23.4034C45.4137 23.5362 45.3545 23.61 45.2215 23.6174L45.2143 23.5215C45.2068 23.4254 45.2658 23.359 45.3914 23.3221ZM45.2289 25.9217L45.5244 25.8997L45.5316 25.9956C45.4652 26.003 45.3619 26.0399 45.2437 26.1065L45.0518 26.1211C45.0443 26.0178 45.1033 25.9514 45.2289 25.9217ZM53.5229 23.359C51.898 24.1641 50.9305 24.7106 50.6277 24.9913C48.8553 25.6116 47.9764 25.9956 47.9912 26.1506C46.418 26.7786 45.384 27.229 44.8967 27.517C44.7785 27.5245 44.6086 27.4801 44.3869 27.3768C44.3574 27.0592 44.5051 26.8006 44.8154 26.6086C45.0961 26.5866 45.3619 26.6235 45.6057 26.7268C45.901 26.5791 46.4105 26.4166 47.1344 26.2319L47.1197 26.0473L46.5215 26.0991C46.5953 25.9956 47.1639 25.7297 48.2201 25.3014L48.5154 25.2791L48.5229 25.3604C48.0207 25.4047 47.74 25.5526 47.6809 25.8184C47.6883 25.9366 47.7621 25.9956 47.8877 25.9809C48.257 25.7372 48.4342 25.5967 48.4342 25.5526C49.1434 25.427 51.1078 24.393 54.3354 22.4581L54.35 22.6426C54.35 22.7165 54.0768 22.9528 53.5229 23.359ZM48.5746 24.9838C49.0547 24.9395 49.4609 24.7549 49.8006 24.4299C49.9262 24.4225 50 24.4743 50.0074 24.5924C49.7857 24.6145 49.35 24.7993 48.6928 25.1538L48.5895 25.161L48.5746 24.9838ZM56.5658 18.8465L54.1064 20.8258C52.2674 22.0295 51.2703 22.6352 51.1152 22.65C48.1906 24.26 46.3736 25.0946 45.6572 25.1538L45.5539 25.161C45.6426 24.8288 46.9498 22.1625 49.4756 17.1551C50.576 17.0592 52.3191 16.5348 54.7119 15.5895L55.3102 15.5377C56.5141 15.4344 57.415 15.6708 58.0059 16.2393L58.0355 16.6012C57.585 17.8715 57.0975 18.6174 56.5658 18.8465ZM51.7355 16.1286L52.1197 16.0916L52.127 16.1877L51.743 16.2247L51.7355 16.1286ZM57.3264 15.1758L57.6219 15.1538C57.8951 15.2866 58.0355 15.4047 58.0428 15.5008L58.0502 15.5821C57.7918 15.6041 57.548 15.4713 57.3264 15.1758ZM58.102 10.678C57.8434 10.9883 57.1418 11.52 55.9971 12.2586C55.6131 12.2956 54.1949 12.842 51.743 13.9055C51.6248 13.8612 51.4918 13.8465 51.3516 13.8538L51.3367 13.6692C51.3072 13.3147 51.4623 12.8715 51.8021 12.3325C51.9941 11.3131 52.2082 10.7446 52.4299 10.6116L54.4904 6.00298C54.4682 5.72974 54.9039 5.50825 55.7902 5.33833L56.0857 5.31626L56.1078 5.59673C56.9793 5.45649 57.5258 5.37524 57.7475 5.35317C59.3723 5.21274 60.2215 5.53774 60.2881 6.3354L60.4801 6.32056L60.4432 5.87739L60.6352 5.86274C61.1078 6.12114 61.359 6.4313 61.3885 6.80063C61.4105 7.06645 61.2777 7.39145 60.9971 7.76821C60.8715 7.78286 60.7977 7.69438 60.7828 7.5022L60.5908 7.51704L60.5318 8.07095C59.7119 9.31919 59.1137 9.96157 58.7371 9.99126C58.4047 10.4416 58.1978 10.6708 58.102 10.678ZM58.966 13.7504L58.9439 13.4698L59.1359 13.4551L59.5494 13.7061C59.5568 13.8243 59.4978 13.8909 59.3723 13.9055C59.1949 13.7948 59.0621 13.743 58.966 13.7504ZM24.5863 31.6899L24.3943 31.7342L24.2318 31.8745C24.2615 31.9926 24.3354 32.037 24.4609 32.0075C24.5863 31.978 24.6381 31.9041 24.6086 31.786L24.5863 31.6899ZM23.8553 30.235L23.8773 30.3309C24.0029 30.3014 24.0547 30.2276 24.0252 30.1094L24.0029 30.0133C23.8848 30.0428 23.833 30.1168 23.8553 30.235ZM29.0842 20.4122L29.2246 20.3235C29.1949 20.3235 29.1729 20.3161 29.1506 20.3088C29.099 20.3235 29.0768 20.3604 29.0842 20.4122ZM29.0547 17.8641L29.2762 17.8125L29.2318 17.6204L29.0104 17.6721L29.0547 17.8641ZM81.2482 25.3235L80.7459 25.2645L80.6572 25.4565L80.6646 25.5526L83.6559 25.3014L83.641 25.1168L81.2482 25.3235ZM83.9809 25.0946L83.9955 25.2791H84.025L84.0104 25.0946H83.9809ZM96.5287 23.4549L96.5436 23.6397L96.8686 23.6987L96.8537 23.5141L96.5287 23.4549ZM96.0709 23.4918C93.8258 23.9942 93.5451 23.9055 93.0725 23.9424L93.0871 24.127L93.2939 24.1124L93.4047 24.1049L93.3752 24.0829L93.6189 23.9868C95.842 23.743 96.1004 23.8317 96.0783 23.5805L96.0709 23.4918ZM82.5924 20.2276L82.393 20.1612C82.2305 20.5967 82.1492 20.8553 82.1566 20.9291L82.1639 21.0104C82.3191 21.003 82.4594 20.7372 82.5924 20.2276ZM79.8893 18.7727L79.8818 18.6766L79.7785 18.684L79.5938 18.8022L79.6973 18.9793C79.8375 18.9647 79.9039 18.8981 79.8893 18.7727ZM85.7607 24.8434L85.7459 24.6588L85.6869 24.6663L85.7016 24.8508L85.7607 24.8434ZM97.9469 22.0961L98.0871 22.0813C98.1684 22.0739 98.2053 22.0075 98.1979 21.8893L98.1166 21.712C97.607 21.7563 97.3707 21.7786 96.9572 22.0075L96.9498 21.9114L96.3367 21.9706C96.3221 21.7858 96.2703 21.6899 96.1891 21.6973L95.8715 21.7268C95.5022 21.7563 95.325 21.7416 95.1402 21.8819C95.133 21.8155 95.1107 21.7858 95.0738 21.7858L94.7193 21.8155L94.5125 21.9336C94.5051 21.867 94.483 21.8375 94.4461 21.8375L94.3205 21.9483L94.3131 21.8524L93.8184 21.8155L93.7002 21.8229L93.7148 22.0075L93.966 22.0739L94.2023 22.0592C94.2836 22.1108 94.3723 22.1256 94.4756 22.1182L94.6824 22.0149L94.6898 22.0961C93.5303 22.384 93.5377 22.3325 92.74 22.4653C92.6514 22.4063 92.585 22.3768 92.5406 22.384L92.5258 22.3989C92.4373 22.3915 92.3856 22.3325 92.3781 22.2364L92.7918 22.1846C92.8213 22.1846 92.8434 22.2143 93.0723 22.2586C93.4047 22.0961 93.4195 22.0295 93.5967 22.0149L93.582 21.8301C92.4445 22.0518 92.9025 21.904 91.4771 22.0295L91.4105 22.037L91.3959 21.8524C93.2275 21.6307 92.6144 21.7563 93.2422 21.5791C93.2496 21.6456 93.2719 21.675 93.3088 21.675C93.3761 21.6063 93.4644 21.5621 93.5598 21.5495L93.6854 21.5422C94.3279 21.4905 94.5422 21.6161 95.8125 21.2616L95.8197 21.3428L96.0266 21.2393L96.2186 21.2247C96.2039 21.0399 96.4846 21.0104 96.5805 21.003L96.5658 20.8036C94.3354 21.2541 93.7518 21.1286 93.1314 21.3059L93.124 21.2247C92.5406 21.328 92.5186 21.2836 92.3707 21.2911C92.3264 21.2985 92.26 21.3354 92.1861 21.4092C92.1787 21.3428 92.1566 21.3131 92.1123 21.3131C92.09 21.3131 92.0828 21.3206 92.0754 21.3206L90.1846 21.6307C90.1773 21.5791 90.1551 21.5495 90.1107 21.5569C89.1285 21.7637 89.3943 21.8006 88.0797 21.9188C88.0207 21.9262 87.9395 21.9557 87.8361 22.0221C87.8287 21.9706 87.799 21.9411 87.7326 21.9483L86.9275 22.0149L86.3885 22.1477C86.3811 22.0961 86.3516 22.0665 86.2852 22.0739C85.9822 22.1551 85.7164 22.2069 85.5022 22.2215H85.4875C85.3545 22.2364 85.5539 22.1846 85.4506 22.1405L85.2881 22.2364C85.0518 22.2586 85.1773 22.2215 84.3648 22.229C82.9395 22.4063 83.0945 22.4284 82.9395 22.4358L82.4076 22.3989C82.415 22.4506 82.3855 22.4875 82.3264 22.4875C81.7209 22.4063 81.4107 22.3102 81.4033 22.1995C81.4846 21.6235 81.6248 21.328 81.8242 21.3131L81.9277 21.3059L81.8391 21.4979L81.9424 21.4905C82.1344 21.387 82.223 21.2911 82.2156 21.2024L82.201 21.003L82.0088 21.0178L81.9941 20.8331C81.9793 20.6928 82.0016 20.5672 82.0531 20.4639L82.4889 19.7622L82.5037 19.9469L82.7105 19.9321L82.6957 19.7475L82.5775 19.5776C82.7326 19.4446 82.8508 19.3708 82.9469 19.3633L82.9395 19.2674L82.6588 19.2895L82.6367 19.0088C83.1981 17.842 83.4639 17.1625 83.449 16.9706L83.6484 17.0518C83.774 17.0444 83.833 16.9706 83.8258 16.8375L83.6336 16.8524L83.6264 16.7711C83.6127 16.6363 83.6383 16.5003 83.7002 16.3797C84.0029 16.0622 84.1434 15.7446 84.1137 15.4122C84.1729 15.4047 84.2023 15.4344 84.2098 15.5008C84.4684 15.3532 84.6678 14.9616 84.8154 14.3118C85.2732 13.4846 85.9232 11.8301 86.7725 9.3561C88.3975 4.98384 88.3309 4.5186 88.5598 3.48462L88.3678 3.49927C88.3826 3.63228 88.3531 3.75786 88.2939 3.87603C88.1609 3.82427 88.0576 3.79478 87.9838 3.8022L87.9764 3.72095C87.9469 3.34419 88.102 2.8938 88.4564 2.36196L88.5451 2.35454L88.7076 2.9897L88.8996 2.97505C88.8922 2.93071 88.9439 2.67954 89.0473 2.21431C89.0398 2.11821 88.966 2.05923 88.8184 2.05181L88.6338 2.16997C88.6189 2.03696 88.6264 1.68989 88.6484 1.13599L88.5523 1.14341C88.39 0.980908 88.3088 0.8479 88.3014 0.737158L87.2451 0.840478C87.2379 0.76665 87.201 0.655908 87.127 0.515478C87.1197 0.41958 87.3561 0.323486 87.8434 0.227588L88.0576 0.308838L88.257 0.190674C88.2645 0.25708 88.3014 0.286572 88.3752 0.27915L88.5746 0.160986C88.582 0.227588 88.6189 0.25708 88.6928 0.249658L88.7889 0.242236L88.774 0.0281738C88.6264 0.0428223 88.235 0.0428223 87.6145 0.020752L87.415 0.15376L87.4076 0.0355957C82.452 0.44165 79.6381 0.670752 78.966 0.737158C78.8773 0.74458 78.5303 0.737158 77.9174 0.722314C77.9246 0.803564 77.8508 0.8479 77.7031 0.862744L77.4889 0.76665L76.7652 0.951416C76.5953 0.966064 76.3072 0.958642 75.9084 0.914307C75.7977 1.00298 75.6646 1.05474 75.5022 1.06958C75.4137 1.07681 76.5584 1.0104 77.6219 0.936572C77.5111 1.02524 77.3412 1.07681 77.1049 1.09907C76.9424 1.11372 76.8021 1.09165 76.684 1.02524C76.5215 1.09907 75.9971 1.21724 75.1182 1.39438L74.9041 1.31313L71.4477 1.84497C71.3147 1.77856 71.1596 1.7563 70.9822 1.77114C70.7977 1.78579 70.4875 1.85239 70.0592 1.97056L68.39 2.6647L68.5154 2.87153C68.5967 2.86411 68.7148 2.81978 68.8553 2.73853L69.4461 2.79028L69.3723 3.34419C68.8258 3.58794 68.5082 3.94985 68.4195 4.40767C67.5998 4.76958 67.1936 5.02817 67.1936 5.18325L67.201 5.27915L67.3264 5.27192L67.548 5.15376L67.8064 5.46392L67.8434 5.89224C67.8582 6.02524 66.4771 8.92759 63.7148 14.5999C61.3221 20.0651 60.0664 23.0563 59.9482 23.5954C59.1285 23.8243 58.6559 24.1567 58.5154 24.5999C58.5303 24.7401 58.774 24.8362 59.2467 24.8731L59.2687 25.0872L59.0547 25.4416L59.0916 25.8702C59.1137 26.0916 59.7119 26.2616 60.8863 26.3797C60.8789 26.3059 60.9158 26.2616 60.9971 26.2541C61.0191 26.52 60.9453 27.037 60.7754 27.8051L60.901 27.7977C61.3885 27.1331 61.6174 26.675 61.5953 26.4241L61.6986 26.4166C61.8168 26.4092 61.9424 26.5422 62.09 26.8301C61.9424 26.8893 61.4254 28.0635 60.5391 30.3604L60.6646 30.5672L60.7902 30.5598C61.876 27.8125 62.5555 26.2911 62.8359 26.003C64.2615 25.8774 66.7281 25.6264 70.2289 25.2497L70.4506 25.1166C70.4578 25.1907 70.5021 25.2276 70.5834 25.2202L70.8125 25.1979L71.034 25.0651C71.0414 25.1389 71.0857 25.1758 71.167 25.1684L73.8184 24.9395C74.5199 24.8803 74.8523 24.6663 74.8227 24.3043C74.8154 24.2083 75.2289 24.0975 76.0635 23.9793C76.1447 23.9719 76.2629 23.9942 76.4254 24.0458C76.418 23.9793 76.8391 23.9129 77.6811 23.8391C77.7031 23.3959 77.8434 23.1596 78.0945 23.1374L78.0725 22.9233C77.8361 22.9454 77.5701 23.0045 77.26 23.1079C76.7061 23.0784 76.3516 23.034 76.2039 22.9823C76.0561 23.0635 75.9453 23.1079 75.8641 23.1153L74.0178 23.1743L73.7961 23.2924C73.7887 23.226 73.7445 23.1965 73.6633 23.204L73.5598 23.2112L73.3234 23.3295C73.316 23.2629 73.124 23.2112 72.74 23.1596L72.5037 23.2999L72.0459 23.3368L72.0385 23.2186C74.4166 22.9602 75.5908 22.6352 75.5613 22.2512C75.7164 22.2364 75.7977 22.3102 75.8123 22.4653L76.5066 22.2881L76.4846 22.0739L70.7902 22.229C70.7977 22.3028 70.7607 22.3471 70.6795 22.3545L69.9852 22.2956C69.808 22.3102 69.6604 22.362 69.5422 22.4506L69.2836 22.3545C68.5672 22.4137 68.0354 22.5022 67.6809 22.6131C67.1936 22.5762 66.6543 22.5834 66.0561 22.6352L64.7785 22.7459L64.1877 22.6795C64.158 22.3028 64.8893 20.4491 66.3959 17.1256C66.8316 16.003 67.2305 15.3014 67.6145 15.0356C67.6957 15.0282 67.8139 15.0577 67.9764 15.1241L68.8848 14.8139L69.35 14.8877C70.133 14.8213 71.0414 14.5999 72.0828 14.2157C72.3412 14.1936 72.5332 14.2084 72.6736 14.2674L73.3678 14.1049L75.4357 13.9276C76.3146 13.8538 77.2674 13.6618 78.3014 13.3442L78.2791 13.1301C77.8951 13.167 77.6957 13.1004 77.6811 12.9454C77.6588 12.6575 77.3781 12.5391 76.8391 12.5834L76.8168 12.3694L77.3855 12.2069L78.8773 12.0813L78.8553 11.8672C78.7961 11.8745 78.4934 11.8672 77.932 11.845L77.91 11.6161L78.4859 11.5643C78.641 11.5497 78.7076 11.4756 78.6928 11.328C77.9174 11.35 77.5258 11.3131 77.5186 11.2098C72.1123 11.4756 69.4018 11.5274 69.3871 11.3575C69.3059 11.3649 69.1949 11.4166 69.0473 11.5053L68.907 11.2836C70.3396 8.24087 71.1816 6.70454 71.4254 6.68247C71.4328 6.80063 71.3736 6.99263 71.248 7.25122L71.2555 7.34712L71.4846 7.32505C72.0531 5.96606 72.5332 5.2645 72.932 5.23501C74.6307 5.08716 72.6957 4.97642 76.3295 4.40767C76.4771 4.47427 76.5805 4.50376 76.6543 4.49634C78.0797 4.20825 80.0664 3.90552 82.6144 3.59536L82.5996 3.3811L81.2408 3.50669L81.226 3.29243C81.3885 3.27778 81.5215 3.22603 81.6322 3.13735L81.6396 3.25552C81.7135 3.24829 81.8168 3.19653 81.9498 3.10786C82.1861 3.08579 82.3633 3.10786 82.4889 3.17427C82.9615 3.04888 83.3457 2.97485 83.6264 2.94536L84.4756 2.86411C84.6824 2.7313 84.7785 2.61313 84.7711 2.5022L84.7637 2.4063C84.5494 2.42837 84.3059 2.41372 84.0178 2.36196C84.0104 2.2438 84.0693 2.16255 84.2098 2.12563L85.7902 1.97798L86.5141 1.79321C86.5215 1.87446 86.5584 1.90395 86.6174 1.90395C86.6912 1.89673 86.7947 1.84497 86.9275 1.7563C86.9646 1.76372 87.0088 1.76372 87.0457 1.77114C86.9498 1.97056 86.8391 2.25864 86.7281 2.6352L86.5215 2.65005C86.5066 2.50962 86.4697 2.38403 86.4033 2.27329L86.2998 2.28071C84.3797 7.62778 83.5229 10.1168 81.7504 14.2231C81.4254 15.2719 81.1521 15.8553 80.9158 15.9809C80.9232 16.0991 80.9971 16.1581 81.1227 16.1434C81.167 16.6604 81.0488 17.17 80.7607 17.6721C79.9408 20.0356 79.3943 21.328 79.1137 21.5643L79.2984 22.6795C79.3057 22.7977 79.2467 22.8641 79.1211 22.879L78.9291 22.8938C78.8996 22.5834 78.7887 22.4358 78.5895 22.4581L78.4859 22.4653C78.2348 22.8567 78.0428 23.3073 77.9174 23.8317L78.1094 23.8168C78.3678 23.6471 78.4859 23.4477 78.4639 23.2186L78.8478 23.1817L79.0693 23.2629C78.8922 23.5436 78.8109 23.7653 78.8258 23.935L78.9291 24.1124L78.6779 24.7032L78.6853 24.7993C78.907 24.777 79.1506 24.8508 79.4092 25.0059C79.5863 24.9913 79.7785 24.91 79.9926 24.7696C80.2143 24.7475 81.0414 24.7401 82.4668 24.7401L83.1832 24.4963C84.0547 24.4889 84.1949 24.5112 84.9482 24.4446L85.2584 24.4151L85.4209 24.3043L85.4283 24.4004C86.2186 24.3338 86.2703 24.3856 86.8906 24.4594L86.898 24.5555L86.4623 24.5924L86.4771 24.777C86.61 24.7622 86.7281 24.7252 86.8242 24.644C86.935 24.6368 87.0014 24.6957 87.0088 24.8288C86.8316 24.8434 86.6322 24.8877 86.4105 24.9616L86.2186 24.8952C85.9158 24.9764 85.9822 24.9985 85.7754 25.0133L85.4727 24.9543C85.4801 25.0059 85.4506 25.0428 85.3988 25.0428C85.4062 25.161 85.4727 25.2202 85.5834 25.2127L85.8936 25.1833L87.5111 25.0428L88.124 24.91C88.1314 24.9616 88.1535 24.9913 88.2053 24.9838L88.5008 24.8731L89.0547 24.8288C89.483 24.7918 89.4756 24.7622 90.4062 24.6145C90.3988 24.5555 90.4209 24.5333 90.4652 24.5258L90.4727 24.6071C91.9867 24.3487 92.0826 24.3338 92.3264 24.2526L92.3486 24.2969C92.7252 24.2083 92.5111 24.2305 92.6145 24.1567C92.6219 24.2231 92.6439 24.2526 92.6809 24.2526L92.9469 24.2305L92.932 24.0311L92.393 24.0237L92.3856 24.0088C92.3633 24.0163 92.3486 24.0163 92.3264 24.0237H92.2525V24.0385C91.8906 24.1124 91.8832 24.0606 91.6469 24.0829L90.2953 24.1567L90.2881 24.0606L91.0414 23.9573L91.3147 23.935L91.4697 23.8243L91.4771 23.9204C92.5406 23.8317 92.9172 24.0975 97.8359 23.0489C98.102 23.0266 98.0797 22.8051 98.2496 22.3471C98.1595 22.3533 98.0697 22.3328 97.9912 22.2881C97.585 22.4432 97.3707 22.3694 96.5879 22.495C96.5215 22.5024 96.4697 22.4432 96.4475 22.325L96.44 22.2438L97.1934 22.2659C97.3338 22.2512 97.607 22.229 98.0133 22C98.0133 22.0665 97.8582 22.1034 97.9467 22.0961H97.9469ZM61.5805 22.6795L61.2334 22.709C61.2186 22.5688 61.4033 22.037 61.7873 21.1286L62.0162 21.1065C62.0236 21.3206 61.8832 21.845 61.5805 22.6795ZM62.0016 20.9956L61.9941 20.8997C61.9867 20.7815 62.0605 20.7002 62.223 20.6633L62.2305 20.7592C62.2379 20.8997 62.1639 20.9809 62.0016 20.9956ZM66.6174 24.5627L66.6248 24.6588L66.0488 24.7106L66.0414 24.6145L66.6174 24.5627ZM65.9232 24.5038C65.9307 24.6219 65.7533 24.7549 65.3693 24.8877L64.6602 24.8362L64.4313 24.8582L64.4092 24.644L65.9232 24.5038ZM70.5908 3.01919L70.2438 3.04888L70.2363 2.93071C70.2289 2.81255 70.2955 2.7313 70.4432 2.69438L70.5688 2.68696L70.8051 2.78286C70.8123 2.92329 70.7459 3.00454 70.5908 3.01919ZM75.8715 1.9852L75.9822 1.97798L75.9971 2.19204L75.6795 2.22153C75.6721 2.10337 75.7311 2.02231 75.8715 1.9852ZM74.542 2.45063L74.0178 2.39145L74.0104 2.29556C74.6973 2.23638 74.9262 2.16255 75.3471 2.04438C75.3545 2.12563 75.4283 2.15513 75.5613 2.14048L75.576 2.35454L75.3693 2.37681C75.2068 2.39145 75.0664 2.36938 74.9482 2.30278C74.8227 2.38403 74.6898 2.43579 74.542 2.45063ZM75.1994 4.36353L75.192 4.26743L76.0414 4.18618L76.0488 4.28228L75.1994 4.36353ZM76.1078 3.62485L76.1004 3.50669L76.5141 3.46978L76.5215 3.58794L76.1078 3.62485ZM76.2039 2.17739L76.093 2.18462L76.1891 1.95571L77.1344 1.86704L77.1418 1.9852C76.898 2.00747 76.5805 2.07388 76.2039 2.17739ZM76.684 4.21567L76.6691 4.00161L77.0828 3.9647C77.223 3.94985 77.2969 4.01626 77.3043 4.16411L76.684 4.21567ZM79.1875 0.803564L78.6559 0.951416L78.5598 0.958643C78.3088 0.980908 77.9838 0.973486 77.5996 0.936572C78.2865 0.892236 78.9439 0.840478 79.1875 0.803564ZM78.6189 3.16704L78.6264 3.26294L77.8951 3.32954L77.8877 3.23345L78.6189 3.16704ZM79.8154 3.7356C79.808 3.64712 79.6676 3.58794 79.3797 3.55845L78.6484 3.76528L78.0871 3.78735C77.9615 3.69868 77.8951 3.6397 77.8877 3.59536L78.5377 3.63227L80 3.39595L80.7459 3.42544L80.7533 3.5436C80.384 3.58052 80.0738 3.64712 79.8154 3.7356ZM87.3412 1.79321C87.4299 1.80063 87.4889 1.80063 87.5111 1.80063C87.7695 1.54946 88.0576 1.35005 88.39 1.20981C88.124 2.37681 87.7105 3.24087 87.1418 3.8022L86.7281 3.55103C87.0754 2.67212 87.2822 2.08872 87.3412 1.79321ZM86.0709 3.97192L86.1742 3.9647C86.034 4.23052 85.9084 4.37075 85.8051 4.37817L85.7828 4.09751C85.8494 4.09751 85.9453 4.05317 86.0709 3.97192ZM85.2512 5.92915C85.4506 5.13149 85.6426 4.6811 85.8197 4.56294L85.8271 4.65884C85.7238 5.39731 85.5613 5.78892 85.3471 5.81841L85.384 6.28364C85.2068 6.53481 85.1256 6.72681 85.1328 6.87446L85.0295 6.88188L84.9705 6.23931C85.0887 6.22466 85.1846 6.12114 85.2512 5.92915ZM84.9336 6.99263C84.9408 7.10337 84.867 7.36196 84.7193 7.76079L84.616 7.76821L84.5938 7.48755C84.7342 7.16255 84.8523 7.00005 84.9334 6.99263H84.9336ZM78.9734 24.2895L78.966 24.2083L79.158 24.1936L79.1803 24.4743C79.0768 24.4817 79.0029 24.4225 78.9734 24.2895ZM87.4889 24.5112C87.4814 24.4446 87.452 24.4151 87.3855 24.4225L86.9055 24.4668L86.898 24.3708H86.9424L88.0797 24.2749L88.0871 24.3708C87.7549 24.3856 87.5555 24.4374 87.4889 24.5112ZM86.9203 24.2749C86.9647 24.2969 86.9424 24.3192 86.9203 24.3338C86.898 24.3264 86.8686 24.3043 86.9203 24.2749ZM86.9793 22.9454L86.3441 22.9971L86.3367 22.901L86.9129 22.8495L87.415 22.7239C87.4225 22.7829 87.452 22.8051 87.5186 22.7977C88.1168 22.6944 88.0576 22.6647 88.3457 22.6426C88.4416 22.6352 88.5008 22.6944 88.5082 22.8125L86.9793 22.9454ZM89.2023 22.7534C88.8479 22.7165 88.8258 22.687 88.5746 22.709L88.5672 22.6278L89.1359 22.5762L89.1434 22.6575C89.0842 22.6647 89.2984 22.6795 89.2023 22.7534ZM89.2467 22.65L89.2393 22.5688L89.5494 22.5391L89.5568 22.6204L89.2467 22.65ZM89.9336 22.5909L89.9262 22.5096C89.9779 22.5024 90.0518 22.4653 90.1477 22.3915C90.3027 22.3768 90.384 22.4801 90.3988 22.5983L89.9336 22.5909ZM90.8125 22.4801L90.8051 22.384L91.1816 22.3545L91.1891 22.4506L90.8125 22.4801ZM91.3367 22.4358C91.3295 22.325 91.3736 22.2586 91.4697 22.2438L91.5953 22.4063C91.5879 22.3545 91.61 22.325 91.6543 22.3176L91.7504 22.495L91.3367 22.4358ZM98.6041 21.5791L98.6115 21.5717V21.5643C98.6115 21.5643 98.6041 21.5717 98.6041 21.5791ZM98.7371 21.4831C98.7961 21.4461 98.8258 21.4092 98.6854 21.3872C98.6189 21.461 98.7592 21.4831 98.6115 21.4905L98.6189 21.5569C98.6336 21.5422 98.6707 21.52 98.7002 21.4979L98.6189 21.5643V21.5717L98.4639 21.7711L98.774 21.6604H98.8109L98.7961 21.4756L98.7371 21.4831ZM99.2762 21.9041L99.2172 21.9114L99.2318 22.0961L99.6676 22.0592C99.6604 21.9411 99.3723 21.9041 99.2762 21.9041Z" fill="#F9DC3E"/>
</svg>
