<svg width="88" height="101" viewBox="0 0 88 101" fill="none" xmlns="http://www.w3.org/2000/svg">
<path fill-rule="evenodd" clip-rule="evenodd" d="M81.4284 20.4288L49.8502 1.68501C48.0156 0.595733 45.9214 0.020874 43.7877 0.020874C41.6541 0.020874 39.5599 0.595733 37.7252 1.68501L6.14086 20.4288C4.26371 21.5488 2.71042 23.1382 1.63376 25.0406C0.557095 26.943 -0.00586692 29.0928 0.000239188 31.2788V68.7663C-0.0113592 70.9471 0.543555 73.0935 1.61065 74.9954C2.67775 76.8974 4.22046 78.4896 6.08774 79.6163L37.6659 98.36C39.5005 99.4493 41.5947 100.024 43.7284 100.024C45.862 100.024 47.9562 99.4493 49.7909 98.36L81.3752 79.6163C83.2425 78.4896 84.7852 76.8974 85.8523 74.9954C86.9194 73.0935 87.4743 70.9471 87.4627 68.7663V31.2788C87.4802 29.1033 86.9338 26.9605 85.8768 25.059C84.8198 23.1576 83.2883 21.5623 81.4315 20.4288H81.4284ZM56.969 78.9663V81.6538C56.967 81.8194 56.9237 81.9819 56.8429 82.1266C56.7621 82.2712 56.6465 82.3933 56.5065 82.4819L54.9065 83.3975C54.6565 83.5288 54.444 83.3975 54.444 83.0444V80.3975C53.3145 80.9526 52.0217 81.0781 50.8065 80.7506C50.6127 80.6194 50.5377 80.3694 50.6315 80.1256L51.2034 77.6881C51.2511 77.4819 51.3626 77.296 51.5221 77.1569C51.5676 77.1118 51.6204 77.0748 51.6784 77.0475C51.7587 77.0161 51.848 77.0161 51.9284 77.0475C53.0437 77.347 54.2321 77.1966 55.2377 76.6288C55.9521 76.2798 56.5587 75.7441 56.9933 75.0784C57.428 74.4128 57.6744 73.6419 57.7065 72.8475C57.7065 71.4788 56.9565 70.91 55.144 70.8944C52.8502 70.8944 50.769 70.4569 50.6752 67.0694C50.7015 65.6233 51.0474 64.2009 51.6882 62.9042C52.3289 61.6075 53.2487 60.4687 54.3815 59.5694V56.8444C54.3877 56.6784 54.4328 56.5161 54.5131 56.3706C54.5935 56.2252 54.7068 56.1006 54.844 56.0069L56.3877 55.0256C56.6377 54.8944 56.8502 55.0256 56.8502 55.3881V58.1131C57.7959 57.6832 58.8516 57.5566 59.8721 57.7506C60.0909 57.8756 60.1784 58.1506 60.0721 58.3756L59.5315 60.7913C59.4703 61.0418 59.3161 61.2596 59.1002 61.4006C59.0377 61.4381 58.944 61.4256 58.869 61.4006C57.8741 61.1828 56.8336 61.3527 55.9596 61.8756C55.3221 62.1506 54.7761 62.6014 54.3854 63.1753C53.9947 63.7491 53.7755 64.4224 53.7534 65.1163C53.7534 66.3506 54.4034 66.7256 56.5877 66.7725C59.5096 66.7725 60.7659 68.0944 60.8002 71.0288C60.7727 72.5461 60.4151 74.0393 59.7524 75.4046C59.0898 76.7699 58.1378 77.9746 56.9627 78.935L56.969 78.9663ZM73.5096 74.435C73.5285 74.5487 73.5158 74.6654 73.4728 74.7723C73.4298 74.8793 73.3582 74.9723 73.2659 75.0413L65.3127 79.8913C65.2377 79.9538 65.1252 79.9631 65.0409 79.9131C64.9565 79.8631 64.9159 79.7569 64.9377 79.6631V77.6006C64.9432 77.4904 64.9803 77.384 65.0445 77.2942C65.1088 77.2044 65.1976 77.1351 65.3002 77.0944L73.1627 72.385C73.2377 72.3225 73.3502 72.3131 73.4346 72.3631C73.519 72.4131 73.5596 72.5194 73.5377 72.6131V74.4319L73.5096 74.435ZM79.0252 28.335L49.144 46.7913C45.4159 48.9975 42.6752 51.41 42.6752 55.8975V92.7038C42.6752 95.3913 43.7784 97.0788 45.4315 97.6413C44.8851 97.7433 44.331 97.7987 43.7752 97.8069C42.0202 97.803 40.2986 97.327 38.7909 96.4288L7.21274 77.6881C5.67518 76.7655 4.40475 75.458 3.52682 73.8945C2.6489 72.331 2.19382 70.5656 2.20649 68.7725V31.2788C2.19233 29.4833 2.64665 27.7151 3.52459 26.1489C4.40252 24.5826 5.67374 23.2724 7.21274 22.3475L38.7909 3.60376C41.8534 1.79126 45.6534 1.79126 48.7159 3.60376L80.294 22.3475C82.8971 23.9225 84.669 26.5663 85.144 29.535C84.119 27.3069 81.7596 26.7225 79.0127 28.3006H79.0221L79.0252 28.335Z" fill="white"/>
</svg>
