<svg width="100" height="90" viewBox="0 0 100 90" fill="none" xmlns="http://www.w3.org/2000/svg">
<path d="M3.24557 0.0210198C2.77793 0.0149728 2.31464 0.111377 1.88823 0.303463C1.46182 0.495549 1.08263 0.778658 0.777295 1.13291C0.471961 1.48716 0.247883 1.90396 0.120799 2.35404C-0.00628458 2.80412 -0.0332933 3.27656 0.04167 3.73819L13.6428 86.3054C13.8122 87.3158 14.3323 88.2342 15.1116 88.8993C15.8909 89.5644 16.8796 89.9336 17.9041 89.9421H83.1539C83.9218 89.9519 84.6677 89.6855 85.2557 89.1915C85.8436 88.6975 86.2346 88.0088 86.3574 87.2507L99.9589 3.75421C100.034 3.2926 100.007 2.82021 99.8795 2.3702C99.7523 1.92019 99.5282 1.50347 99.2228 1.1493C98.9175 0.795137 98.5383 0.512109 98.1119 0.320094C97.6855 0.128079 97.2222 0.0317316 96.7546 0.0378166L3.24557 0.0210198ZM60.5173 59.6958H39.6912L34.0521 30.2349H65.5637L60.5173 59.6958Z" fill="#2684FF"/>
<path d="M95.5507 30.1936H65.5055L60.4629 59.631H39.6536L15.0826 88.7961C15.8614 89.4694 16.8543 89.8438 17.8838 89.8523H83.0976C83.865 89.8622 84.6103 89.5962 85.198 89.1026C85.7856 88.609 86.1764 87.9208 86.2992 87.1633L95.5507 30.1936Z" fill="url(#paint0_linear_790_3937)"/>
<defs>
<linearGradient id="paint0_linear_790_3937" x1="102.497" y1="38.4373" x2="67.7905" y2="87.7172" gradientUnits="userSpaceOnUse">
<stop offset="0.18" stop-color="#0052CC"/>
<stop offset="1" stop-color="#2684FF"/>
</linearGradient>
</defs>
</svg>
