<svg width="100" height="80" viewBox="0 0 100 80" fill="none" xmlns="http://www.w3.org/2000/svg">
<path fill-rule="evenodd" clip-rule="evenodd" d="M20.7703 0.020752C15.0645 0.020752 10.8424 5.01489 11.0314 10.4309C11.2129 15.6342 10.9771 22.3733 9.28066 27.869C7.57812 33.3801 4.70078 36.8725 0 37.3208V42.3817C4.70078 42.8309 7.57812 46.3215 9.28047 51.8335C10.9771 57.3292 11.2127 64.0682 11.0312 69.2715C10.8422 74.6868 15.0643 79.6817 20.7711 79.6817H79.2373C84.9432 79.6817 89.1645 74.6875 88.9754 69.2715C88.7939 64.0682 89.0297 57.3292 90.7262 51.8335C92.4287 46.3215 95.299 42.8295 100 42.3817V37.3208C95.2992 36.8715 92.4289 33.3809 90.7262 27.869C89.0295 22.3741 88.7939 15.6342 88.9754 10.4309C89.1645 5.01567 84.9432 0.020752 79.2373 0.020752H20.7695H20.7703ZM67.7967 49.0573C67.7967 56.5149 62.234 61.0377 53.0025 61.0377H37.2881C36.8386 61.0377 36.4075 60.8592 36.0896 60.5413C35.7717 60.2235 35.5932 59.7923 35.5932 59.3428V20.3598C35.5932 19.9103 35.7717 19.4792 36.0896 19.1613C36.4075 18.8435 36.8386 18.6649 37.2881 18.6649H52.9131C60.6105 18.6649 65.6623 22.8344 65.6623 29.236C65.6623 33.7291 62.2639 37.7516 57.9344 38.4563V38.6907C63.8281 39.3372 67.7967 43.4192 67.7967 49.0573ZM51.2891 24.0377H42.3289V36.694H49.8756C55.7096 36.694 58.9264 34.3448 58.9264 30.1458C58.9258 26.2106 56.1602 24.0377 51.2891 24.0377ZM42.3289 41.7157V55.6631H51.6187C57.693 55.6631 60.9104 53.2258 60.9104 48.6454C60.9104 44.0649 57.6027 41.7149 51.2281 41.7149H42.3289V41.7157Z" fill="white"/>
</svg>
