<svg width="100" height="101" viewBox="0 0 100 101" fill="none" xmlns="http://www.w3.org/2000/svg">
<path d="M0.000244141 87.1266C0.000244141 94.2485 5.77329 100.021 12.8944 100.021H87.1057C94.228 100.021 100 94.2477 100 87.1266V12.9153C100 5.79302 94.2272 0.020752 87.1061 0.020752H12.8948C5.77251 0.020752 0.000244141 5.7938 0.000244141 12.9149V87.1262V87.1266Z" fill="#563D7C"/>
<path d="M41.4682 44.2543V30.093H53.9335C55.121 30.093 56.2655 30.1918 57.3679 30.3899C58.4702 30.5876 59.4456 30.9407 60.2937 31.4497C61.1413 31.9586 61.8199 32.6653 62.3288 33.5696C62.8374 34.4743 63.0921 35.6333 63.0921 37.0461C63.0921 39.5903 62.3288 41.4278 60.8023 42.5583C59.2761 43.6891 57.3257 44.2543 54.9511 44.2543H41.4682ZM28.1545 19.7473V80.2942H57.4952C60.2089 80.2942 62.8519 79.9551 65.4242 79.2766C67.9964 78.5981 70.2859 77.5524 72.2929 76.1391C74.2996 74.7258 75.8968 72.9024 77.084 70.6696C78.2715 68.4364 78.8648 65.7934 78.8648 62.7407C78.8648 58.9528 77.9461 55.7165 76.109 53.0313C74.2714 50.3458 71.4871 48.4661 67.7558 47.3918C70.4695 46.0918 72.5191 44.4239 73.9043 42.3887C75.289 40.3536 75.9816 37.8098 75.9816 34.7567C75.9816 31.9301 75.5152 29.5559 74.5824 27.6336C73.6496 25.7118 72.3351 24.1711 70.639 23.0122C68.9433 21.8532 66.9081 21.0192 64.5335 20.5106C62.1593 20.0016 59.5304 19.7473 56.6472 19.7473H28.1545ZM41.4682 69.9485V53.3278H55.9687C58.8519 53.3278 61.1699 53.9918 62.9226 55.3207C64.6749 56.6493 65.5515 58.868 65.5515 61.9774C65.5515 63.5606 65.2828 64.8606 64.7456 65.8782C64.2085 66.8958 63.4878 67.7016 62.5831 68.295C61.6788 68.8887 60.6327 69.3125 59.4456 69.5672C58.2581 69.8211 57.0148 69.9485 55.7144 69.9485H41.4682Z" fill="white"/>
</svg>
