<svg width="100" height="68" viewBox="0 0 100 68" fill="none" xmlns="http://www.w3.org/2000/svg">
<path d="M79.027 25.1734C79.7362 33.435 66.7345 41.2981 49.9875 42.7349C33.2405 44.1716 19.0894 38.6376 18.3811 30.3765C17.6719 22.1136 30.6736 14.251 47.4206 12.8142C64.1676 11.3779 78.3187 16.9105 79.027 25.1734Z" fill="#BBE6FB"/>
<path opacity="0.4" d="M47.9122 13.7831C41.5239 13.6793 34.0486 16.2157 28.4864 18.5909C27.9074 20.2591 27.5958 22.0335 27.5958 23.8728C27.5958 33.6728 36.4448 41.6183 47.361 41.6183C58.2772 41.6183 67.1262 33.6728 67.1262 23.8728C67.1262 20.7714 66.2379 17.8575 64.6802 15.3206C60.2302 14.6289 54.1097 13.8839 47.9122 13.7831Z" fill="white"/>
<path d="M47.3608 13.7813C43.8241 13.5655 37.7282 15.4106 32.6451 17.2513C31.8728 19.074 31.4438 21.0686 31.4438 23.1618C31.4438 31.7484 39.229 38.7093 47.4646 38.7093C55.6461 38.7093 62.8846 31.7372 63.4854 23.1618C63.6806 20.3693 62.7194 17.7379 61.3847 15.4693C56.1148 14.5411 50.5222 13.9743 47.3608 13.7813Z" fill="white"/>
<path d="M38.285 22.0343C38.7189 21.0735 39.3761 20.6029 40.0128 19.7975C39.9421 19.6067 39.7871 18.983 39.7871 18.7668C39.7871 17.8015 40.5702 17.0179 41.536 17.0179C41.7639 17.0179 41.9815 17.0632 42.1807 17.1424C45.0753 14.9364 48.886 13.9747 52.7154 14.8308C53.0651 14.9096 53.4081 15.0049 53.7448 15.1097C49.9601 14.585 45.6941 15.9255 42.7923 18.2676C42.881 18.4767 43.1268 19.0744 43.1268 19.3148C43.1268 20.2806 42.5017 20.5156 41.536 20.5156C41.3166 20.5156 41.1071 20.4736 40.9132 20.3997C40.2577 21.2799 39.4545 22.9567 39.0614 24.0048C40.666 25.4403 42.1158 25.9605 44.0052 26.6666C44.0003 26.5766 44.0702 26.4933 44.0702 26.4015C44.0702 23.4899 46.6334 21.1237 49.5455 21.1237C52.1549 21.1237 54.3156 23.0212 54.7374 25.5105C56.0394 24.6822 57.2984 24.0474 58.2579 22.8197C58.0341 22.5466 57.7927 21.7733 57.7927 21.3927C57.7927 20.5165 58.5037 19.806 59.3799 19.806C59.504 19.806 59.6231 19.8239 59.739 19.8508C60.2262 18.8496 60.5938 17.7885 60.8288 16.6942C56.2754 13.3233 47.4653 13.7831 47.4653 13.7831C47.4653 13.7831 40.4547 13.4173 35.7087 15.7303C36.0253 18.0186 36.9382 20.1942 38.285 22.0343Z" fill="white"/>
<path d="M60.0486 20.721C60.3706 21.0111 60.5461 21.2659 60.6844 21.5139C61.1102 22.2796 60.2559 22.9803 59.3797 22.9803C59.2906 22.9803 59.2047 22.9682 59.1191 22.9538C58.1319 24.4967 56.4027 26.4753 54.8666 27.471C57.2221 27.857 59.4433 28.8003 61.211 30.2582C62.4982 27.9519 63.4854 24.6216 63.4854 21.7929C63.4854 19.6397 62.5349 18.0615 61.0999 16.9036C61.0247 18.057 60.4091 19.6702 60.0486 20.721Z" fill="white"/>
<path d="M40.9276 35.3282C41.7125 33.1607 43.6431 31.4813 45.4694 30.0037C45.2021 29.6379 44.8014 28.7322 44.6344 28.3033C42.4069 27.6258 40.436 26.3579 38.9074 24.6793C38.8962 24.7281 38.8824 24.7756 38.8707 24.8244C38.5828 26.1143 38.53 27.4069 38.6733 28.6677C39.7398 28.8665 40.547 29.8009 40.547 30.9252C40.547 31.5919 39.9627 32.5581 39.5092 32.9785C40.0021 34.0423 40.3384 34.5554 40.9276 35.3282Z" fill="white"/>
<path d="M40.7894 37.1477C39.8532 36.2169 39.2058 34.3602 38.5982 33.1943C38.4845 33.2117 38.368 33.2238 38.2489 33.2238C36.9792 33.2238 35.649 32.1582 35.9498 30.9251C36.1164 30.2428 36.5874 29.7964 37.3544 29.4239C37.1798 28.0104 37.1323 25.9786 37.4605 24.5091C37.5545 24.0887 37.7538 23.8917 37.8858 23.4914C36.4849 21.4413 35.5796 18.7504 35.5796 16.0806C35.5796 15.9829 35.5845 15.8867 35.5867 15.79C33.2191 16.9774 31.4438 18.848 31.4438 21.7927C31.4438 28.3064 35.1954 34.696 40.7773 37.2006C40.7813 37.1831 40.7849 37.1652 40.7894 37.1477Z" fill="white"/>
<path d="M54.5151 28.143C53.7938 30.1945 51.8434 31.668 49.5452 31.668C48.3158 31.668 47.1879 31.244 46.2915 30.5392C44.4438 31.9783 42.7674 34.5062 41.9154 36.6992C42.2978 37.1106 42.5642 37.4491 42.9931 37.814C44.2857 38.1507 46.0659 37.814 47.4651 37.814C53.0931 37.814 58.0777 35.3103 60.9356 30.9198C59.0354 29.6039 56.794 28.3516 54.5151 28.143Z" fill="white"/>
<path d="M38.1406 22.7955C38.5744 21.8347 39.1184 20.9455 39.7547 20.14C39.6839 19.9497 39.6427 19.7442 39.6427 19.528C39.6427 18.5626 40.4258 17.7791 41.3916 17.7791C41.6195 17.7791 41.8371 17.8243 42.0363 17.9036C44.9309 15.6976 48.7416 14.7359 52.571 15.5919C52.9207 15.6707 53.2637 15.7661 53.6004 15.8709C49.8157 15.3461 45.9052 16.5062 43.0034 18.8488C43.0921 19.0574 43.1404 19.2875 43.1404 19.528C43.1404 20.4937 42.3573 21.2768 41.3916 21.2768C41.1722 21.2768 40.9627 21.2347 40.7688 21.1608C40.1133 22.0411 39.5774 23.0136 39.1843 24.0622C40.5624 25.5473 42.2539 26.7217 44.1429 27.4278C44.1384 27.3378 44.129 27.2487 44.129 27.1569C44.129 24.2453 46.489 21.8848 49.4011 21.8848C52.0105 21.8848 54.1712 23.7823 54.593 26.2717C55.895 25.4434 57.0519 24.3796 58.011 23.1519C57.7871 22.8788 57.6483 22.5345 57.6483 22.1539C57.6483 21.2777 58.3593 20.5671 59.2355 20.5671C59.3596 20.5671 59.4787 20.5851 59.5946 20.6119C60.0818 19.6108 60.4493 18.5497 60.6844 17.4554C56.131 14.0844 47.3209 14.5442 47.3209 14.5442C47.3209 14.5442 40.3103 14.1784 35.5643 16.4914C35.8809 18.7798 36.7938 20.9553 38.1406 22.7955Z" fill="#1287B1"/>
<path d="M60.2943 20.9805C60.6162 21.2707 60.8226 21.6866 60.8226 22.154C60.8226 23.0303 60.1116 23.7413 59.2354 23.7413C59.1463 23.7413 59.0604 23.7292 58.9748 23.7148C57.9876 25.2577 56.6793 26.5732 55.1427 27.5689C57.4136 27.924 59.5511 28.8875 61.3183 30.3453C62.6055 28.039 63.3411 25.3826 63.3411 22.5539C63.3411 20.4007 62.3906 18.8225 60.9556 17.6646C60.8804 18.818 60.6547 19.9297 60.2943 20.9805Z" fill="#1287B1"/>
<path d="M41.1698 35.849C41.9546 33.6815 43.3184 31.7366 45.1447 30.2595C44.8774 29.8933 44.6572 29.4934 44.4902 29.0645C42.2622 28.3871 40.2918 27.1191 38.7632 25.4405C38.752 25.4893 38.7377 25.5368 38.7265 25.5856C38.4381 26.8755 38.3853 28.1681 38.529 29.429C39.5951 29.6277 40.4028 30.5622 40.4028 31.6864C40.4028 32.3531 40.1167 32.9526 39.6631 33.373C40.0746 34.2452 40.5806 35.0762 41.1698 35.849Z" fill="#1287B1"/>
<path d="M40.7832 37.1214C39.847 36.1905 39.0612 35.1213 38.4541 33.9559C38.3399 33.9733 38.2235 33.985 38.1049 33.985C36.8351 33.985 35.8058 32.9557 35.8058 31.6863C35.8058 30.7765 36.3359 29.9921 37.1028 29.6196C36.9287 28.2065 36.9878 26.7398 37.3164 25.2703C37.4104 24.8503 37.525 24.4402 37.6571 24.0395C36.2562 21.9898 35.4355 19.5116 35.4355 16.8417C35.4355 16.7441 35.44 16.6479 35.4422 16.5516C33.0746 17.7385 31.2993 19.6096 31.2993 22.5539C31.2993 29.068 35.1892 34.6696 40.7711 37.1742C40.7751 37.1567 40.7787 37.1388 40.7832 37.1214Z" fill="#1287B1"/>
<path d="M54.3708 28.9042C53.6495 30.9557 51.6992 32.4292 49.401 32.4292C48.1715 32.4292 47.0437 32.0052 46.1473 31.3005C44.2995 32.7395 42.9048 34.701 42.0532 36.8945C42.4351 37.3059 42.8435 37.6937 43.2724 38.0581C44.5655 38.3948 45.9216 38.5753 47.3208 38.5753C52.9488 38.5753 57.8967 35.6695 60.7546 31.2795C58.8544 29.9631 56.6498 29.1129 54.3708 28.9042Z" fill="#1287B1"/>
<path d="M54.5557 27.5448L59.4266 26.3829L54.5374 26.1335L58.5164 23.0925L54.0014 24.7111L57.0697 20.4589L52.8319 23.2756L54.3135 18.2982L51.4032 22.4008L51.337 17.2165L49.422 21.8344L47.8254 17.1614L47.9118 22.6663L45.1524 17.7318L46.6456 22.9712L42.1696 19.7162L45.6758 24.1218L40.119 22.0784L44.5046 25.3231L38.881 25.4959L44.6308 26.9797L38.8761 28.224L44.5565 28.6359L39.7662 31.7033L44.6989 29.9151L41.2764 34.2496L45.6011 30.7617L44.0438 36.5782L47.3826 31.8448L46.9147 37.4352L48.81 32.3673L50.4231 37.694L50.8154 32.3512L53.2098 36.9096L51.795 31.6957L56.1796 35.0922L53.3491 30.7617L58.1595 32.6359L54.4814 29.0214L59.4136 29.4091L54.5557 27.5448Z" fill="white"/>
<path opacity="0.3" d="M2.69958 36.8653C17.8061 21.7592 29.8712 17.0956 40.8209 14.9667C42.2698 14.685 42.5438 11.5191 42.5438 11.5191C42.5438 11.5191 42.7466 13.8509 43.7607 14.1549C44.7744 14.4594 46.0921 10.505 46.0921 10.505C46.0921 10.505 44.8756 14.0537 46.0921 14.2566C47.309 14.4594 49.5392 10.8095 49.5392 10.8095C49.5392 10.8095 48.6272 13.9521 49.2356 14.1549C49.8432 14.3577 52.8847 9.59297 52.8847 9.59297C52.8847 9.59297 51.0597 12.7356 52.7835 13.0401C54.5077 13.3441 57.0222 10.895 57.0222 10.895C57.0222 10.895 55.045 13.1359 55.9261 13.4453C59.6777 14.7638 62.7133 9.88803 62.7133 9.88803C62.7133 9.88803 62.0099 12.026 60.1849 14.3577C64.1384 15.3714 67.0751 9.41522 67.0751 9.41522L64.1384 15.3714C65.6594 16.1832 71.7432 9.18732 71.7432 9.18732C71.7432 9.18732 68.6001 14.6622 66.7751 15.7771C67.7888 16.5884 71.4387 13.3441 71.4387 13.3441C71.4387 13.3441 68.4985 16.9936 69.6138 17.1964C71.2359 18.5145 77.2172 10.4038 77.2172 10.4038C77.2172 10.4038 74.8858 15.1686 71.4387 18.9201C74.3199 20.3614 81.476 11.1135 81.476 11.1135C81.476 11.1135 81.2732 14.0537 76.1023 18.7173C79.9551 18.2105 84.9231 10.9106 84.9231 10.9106C84.9231 10.9106 83.0981 16.3855 78.7381 20.2378C82.521 19.8443 88.5721 10.505 88.5721 10.505C88.5721 10.505 86.2408 16.9936 81.476 20.7451C86.7481 21.911 94.3519 14.0537 94.3519 14.0537C94.3519 14.0537 91.3611 19.6303 87.4573 21.911C91.8173 23.5837 97.799 16.6895 97.799 16.6895C97.799 16.6895 91.8173 25.916 82.2873 25.5103C79.1603 25.3774 69.702 16.0238 49.438 16.7912C22.6725 17.8053 16.9953 29.1603 2.69958 36.8653Z" fill="white"/>
<path d="M3.31873 35.7181C18.4252 20.612 30.4899 15.9489 41.4396 13.8195C42.8889 13.5378 43.163 10.3724 43.163 10.3724C43.163 10.3724 43.3653 12.7046 44.3799 13.0082C45.3936 13.3122 46.7112 9.3587 46.7112 9.3587C46.7112 9.3587 45.4947 12.9074 46.7112 13.1098C47.9282 13.3122 50.1583 9.66271 50.1583 9.66271C50.1583 9.66271 49.2463 12.8053 49.8539 13.0082C50.4623 13.211 53.5038 8.44577 53.5038 8.44577C53.5038 8.44577 51.6788 11.5889 53.4026 11.8929C55.1259 12.1973 57.6413 9.74822 57.6413 9.74822C57.6413 9.74822 55.6641 11.9891 56.5452 12.2985C60.2968 13.6166 63.3315 8.74127 63.3315 8.74127C63.3315 8.74127 62.6282 10.8792 60.8041 13.211C64.7576 14.2251 67.6943 8.26802 67.6943 8.26802L64.7576 14.2251C66.2785 15.036 72.3614 8.04102 72.3614 8.04102C72.3614 8.04102 69.2192 13.515 67.3943 14.6303C68.4079 15.4416 72.0579 12.1973 72.0579 12.1973C72.0579 12.1973 69.1176 15.8472 70.2329 16.0496C71.855 17.3682 77.8363 9.25706 77.8363 9.25706C77.8363 9.25706 75.5041 14.0223 72.0579 17.7734C74.939 19.2151 82.0952 9.96672 82.0952 9.96672C82.0952 9.96672 81.8923 12.9074 76.7215 17.571C80.5742 17.0637 85.5422 9.7639 85.5422 9.7639C85.5422 9.7639 83.7173 15.2388 79.3573 19.0915C83.1402 18.698 89.1913 9.3587 89.1913 9.3587C89.1913 9.3587 86.8599 15.8472 82.0952 19.5984C87.3672 20.7643 94.9711 12.9074 94.9711 12.9074C94.9711 12.9074 91.9802 18.4831 88.0764 20.7643C92.4364 22.437 98.4182 15.5428 98.4182 15.5428C98.4182 15.5428 92.4364 24.7692 82.9055 24.3636C79.7795 24.2302 70.3211 14.8766 50.0567 15.6444C23.2917 16.6581 17.614 28.0131 3.31873 35.7181Z" fill="white"/>
<path opacity="0.3" d="M2.30371 38.5176C10.2877 42.5225 17.588 37.9095 26.7885 40.5024C33.7834 42.4742 42.3002 44.9049 53.8575 43.2317C65.4153 41.5595 75.3008 36.5408 80.0159 27.5678C81.4858 23.5637 87.467 28.4807 87.467 28.4807C87.467 28.4807 83.1079 26.6558 83.2096 27.5176C83.3107 28.3791 89.7487 31.3699 89.7487 31.3699C89.7487 31.3699 83.9188 29.545 84.2738 30.9137C84.6289 32.2824 91.5728 37.7573 91.5728 37.7573C91.5728 37.7573 83.7159 31.7756 83.0573 32.5864C82.3978 33.3977 86.4028 36.693 86.4028 36.693C86.4028 36.693 79.762 32.5864 77.4298 33.7976C75.7526 34.6675 84.3244 40.2924 84.3244 40.2924C84.3244 40.2924 78.7479 36.0335 77.4298 37.1488C76.1121 38.2646 83.7159 47.3889 83.7159 47.3889C83.7159 47.3889 75.0975 38.0613 74.2365 38.5176C73.3742 38.9738 76.6185 43.435 76.6185 43.435C76.6185 43.435 72.3605 38.771 71.1951 39.5823C70.0292 40.3936 77.278 52.5088 77.278 52.5088C77.278 52.5088 69.4207 40.0895 66.1764 42.167C71.2712 53.3451 69.3701 54.9422 69.3701 54.9422C69.3701 54.9422 68.72 43.5384 62.3743 43.8402C59.1806 43.9924 63.8948 52.3565 63.8948 52.3565C63.8948 52.3565 59.5558 44.7173 56.6661 44.8695C61.9919 54.9485 60.0935 59.0479 60.0935 59.0479C60.0935 59.0479 60.9742 50.4398 53.7509 45.6495C56.4879 48.082 52.0334 59.0479 52.0334 59.0479C52.0334 59.0479 55.952 42.8888 49.1433 45.9696C48.0674 46.4554 49.0672 54.0297 49.0672 54.0297C49.0672 54.0297 47.6985 45.3607 45.6461 45.8174C44.4493 46.0829 38.0418 57.8314 38.0418 57.8314C38.0418 57.8314 43.2888 45.1328 41.6921 45.6652C40.5289 46.0534 38.3462 51.2923 38.3462 51.2923C38.3462 51.2923 39.4105 46.1214 38.3462 45.8174C37.282 45.5129 31.3504 51.2923 31.3504 51.2923C31.3504 51.2923 35.761 46.1214 35.0003 45.0567C33.8479 43.4435 32.497 43.3678 30.8942 43.9924C28.5619 44.9013 25.4197 49.1629 25.4197 49.1629C25.4197 49.1629 28.5521 44.8481 28.0045 43.2317C27.1256 40.6349 18.1199 48.2504 18.1199 48.2504C18.1199 48.2504 23.4425 43.2317 22.226 42.167C21.0096 41.1028 14.4037 41.4318 12.341 41.426C6.25809 41.4072 4.15016 39.9803 2.30371 38.5176Z" fill="white"/>
<path d="M2 37.6049C9.98398 41.6099 17.2838 36.9969 26.4843 39.5902C33.4792 41.5611 41.9965 43.9923 53.5542 42.3191C65.112 40.6464 74.9966 35.6277 79.7117 26.6556C81.1816 22.6511 87.1629 27.5676 87.1629 27.5676C87.1629 27.5676 82.8037 25.7431 82.9054 26.605C83.0066 27.4665 89.4445 30.4573 89.4445 30.4573C89.4445 30.4573 83.6146 28.6328 83.9697 30.0015C84.3247 31.3698 91.2695 36.8447 91.2695 36.8447C91.2695 36.8447 83.4118 30.8625 82.7532 31.6743C82.0945 32.4851 86.0991 35.78 86.0991 35.78C86.0991 35.78 79.4578 31.6743 77.1261 32.8845C75.4484 33.7549 84.0202 39.3793 84.0202 39.3793C84.0202 39.3793 78.4437 35.1209 77.1261 36.2362C75.8079 37.352 83.4127 46.4763 83.4127 46.4763C83.4127 46.4763 74.7938 37.1487 73.9324 37.6049C73.0709 38.0616 76.3152 42.5219 76.3152 42.5219C76.3152 42.5219 72.0564 37.8583 70.8909 38.6696C69.725 39.4805 76.9738 51.5961 76.9738 51.5961C76.9738 51.5961 69.1165 39.1765 65.8723 41.2548C70.967 52.4325 69.0659 54.0296 69.0659 54.0296C69.0659 54.0296 68.4158 42.6258 62.0701 42.928C58.8764 43.0803 63.5906 51.4439 63.5906 51.4439C63.5906 51.4439 59.2516 43.8042 56.3624 43.9565C61.6887 54.0358 59.7894 58.1353 59.7894 58.1353C59.7894 58.1353 60.6701 49.5267 53.4468 44.7364C56.1838 47.1694 51.7293 58.1353 51.7293 58.1353C51.7293 58.1353 55.6487 41.9761 48.8401 45.057C47.7642 45.5432 48.7639 53.1171 48.7639 53.1171C48.7639 53.1171 47.3943 44.4485 45.3424 44.9048C44.1451 45.1703 37.7376 56.9188 37.7376 56.9188C37.7376 56.9188 42.9846 44.2202 41.388 44.753C40.2248 45.1403 38.0421 50.3792 38.0421 50.3792C38.0421 50.3792 39.1068 45.2088 38.0421 44.9048C36.9778 44.6008 31.0467 50.3792 31.0467 50.3792C31.0467 50.3792 35.4573 45.2088 34.6962 44.1441C33.5437 42.5309 32.1929 42.4557 30.5905 43.0803C28.2578 43.9887 25.1156 48.2502 25.1156 48.2502C25.1156 48.2502 28.2479 43.935 27.7008 42.3191C26.8214 39.7227 17.8162 47.3378 17.8162 47.3378C17.8162 47.3378 23.1388 42.3191 21.9219 41.2548C20.7054 40.1901 14.0995 40.5197 12.0368 40.5134C5.95393 40.4941 3.84645 39.0677 2 37.6049Z" fill="white"/>
</svg>
