<svg width="89" height="101" viewBox="0 0 89 101" fill="none" xmlns="http://www.w3.org/2000/svg">
<path d="M88.1749 0.0415039L80.142 90.0311L44.0335 100.042L8.02445 90.0452L0 0.0415039H88.1749Z" fill="#264DE4"/>
<path d="M73.2648 84.3008L80.1295 7.40063H44.0874V92.3899L73.2648 84.3008Z" fill="#2965F1"/>
<path d="M18.3959 40.7817L19.3852 51.8202H44.0874V40.7817H18.3959Z" fill="#EBEBEB"/>
<path d="M44.0875 18.4392H44.0493H16.408L17.4114 29.4779H44.0875V18.4392Z" fill="#EBEBEB"/>
<path d="M44.0874 80.9346V69.4498L44.039 69.4627L31.7453 66.1431L30.9594 57.3394H24.9856H19.8784L21.4249 74.6715L44.0366 80.9487L44.0874 80.9346Z" fill="#EBEBEB"/>
<path d="M57.6421 51.82L56.3608 66.1362L44.0493 69.4592V80.9435L66.679 74.6716L66.845 72.8067L69.439 43.7457L69.7083 40.7816L71.7011 18.4392H44.0493V29.4779H59.6038L58.5994 40.7816H44.0493V51.82H57.6421Z" fill="white"/>
</svg>
