<svg width="94" height="101" viewBox="0 0 94 101" fill="none" xmlns="http://www.w3.org/2000/svg">
<path fill-rule="evenodd" clip-rule="evenodd" d="M78.2482 71.0476L69.927 65.5732L62.9927 77.1425L54.927 74.8068L47.8102 85.6462L48.1752 89.0404L86.7883 81.9236L84.562 57.836L78.2482 71.0476ZM42.2263 60.6462L48.4307 59.8068C49.4161 60.2447 50.1095 60.4272 51.3504 60.7192C52.5358 61.1097 53.7887 61.253 55.0316 61.14C56.2746 61.027 57.4811 60.6602 58.5766 60.0622C59.3066 59.6973 60.8759 58.2374 61.4963 57.471L86.8978 52.836L89.4526 84.2228L46.0219 92.0331L42.2263 60.6462ZM89.3796 49.3323L86.8613 49.8433L82.0438 0.0622559L0.036499 9.55131L10.146 91.6681L19.708 90.2082C18.9416 89.1133 17.7372 87.7995 15.6934 86.1206C12.8832 83.7484 13.8686 79.7703 15.5474 77.252C17.7372 72.982 29.1241 67.5805 28.4672 60.7557C28.2482 58.3104 27.8467 55.0623 25.5474 52.8725C25.4745 53.7849 25.6204 54.6973 25.6204 54.6973C25.6204 54.6973 24.6715 53.4564 24.1971 51.8141C23.7591 51.1936 23.3942 51.0112 22.8832 50.1717C22.5183 51.1206 22.5912 52.252 22.5912 52.252C22.5912 52.252 21.7883 50.4272 21.6788 48.8944C21.3544 49.5187 21.156 50.2008 21.0949 50.9017C21.0949 50.9017 20.1095 47.982 20.365 46.4856C19.8905 45.1352 18.5401 42.471 18.9051 36.3761C21.4234 38.1279 26.9343 37.7265 29.0511 34.5513C29.781 33.4929 30.2555 30.6462 28.6861 24.9893C27.7007 21.3761 25.219 16.0112 24.2701 13.9674L24.1606 14.0404C24.8559 16.2762 25.5008 18.5274 26.0949 20.7922C27.3723 25.9017 27.7372 27.6535 27.1168 29.9893C26.6423 32.0331 25.4745 33.3469 22.5183 34.8433C19.562 36.3031 15.6204 32.69 15.365 32.5075C12.8273 30.4992 10.9673 27.7603 10.0365 24.6608C9.78102 22.6535 11.1679 21.4856 11.8613 19.8433C11.1398 20.0668 10.4328 20.335 9.74453 20.6462C9.74453 20.6462 11.0949 19.2593 12.7372 18.0915C13.4672 17.617 13.8321 17.325 14.562 16.7046H12.6642C12.6642 16.7046 14.4161 15.7922 16.2409 15.0988C14.8905 15.0258 13.6131 15.0988 13.6131 15.0988C13.6131 15.0988 17.5183 13.3469 20.6204 12.0696C22.7372 11.1936 24.8175 11.4491 25.9854 13.1279C27.4818 15.3177 29.0876 16.5221 32.5182 17.252C34.5985 16.3396 35.219 15.8652 37.8467 15.1352C40.146 12.5805 41.9708 12.2885 41.9708 12.2885C41.9708 12.2885 41.0584 13.0915 40.8394 14.4053C42.1533 13.3834 43.5766 12.5075 43.5766 12.5075C43.5766 12.5075 43.0292 13.2009 42.4818 14.2958L42.6277 14.4783C43.6984 13.8602 44.8078 13.3117 45.9489 12.836L44.854 14.2958C45.9854 14.2958 48.3212 14.3688 49.2336 14.4783C54.5985 14.5878 55.6934 8.74839 57.7372 8.01846C60.292 7.10605 61.4599 6.55861 65.8394 10.8652C69.5985 14.5148 72.5547 21.1571 71.0949 22.6535C69.854 23.8579 67.4453 22.179 64.781 18.8214C63.2536 16.9417 62.2243 14.7075 61.7883 12.325C61.3869 10.0988 59.7445 8.78488 59.7445 8.78488C59.7445 8.78488 60.6934 10.9017 60.6934 12.7995C60.6934 13.8214 60.8029 17.617 62.4453 19.7703C62.2993 20.0988 62.2263 21.3396 62.0438 21.5951C60.146 19.2593 56.0219 17.5805 55.365 17.1425C57.6277 18.9674 62.8102 23.2374 64.854 27.325C66.7153 31.1936 65.5839 34.7338 66.5693 35.6462C66.8248 35.9017 70.6204 40.6097 71.3504 43.0185C72.6277 47.1425 71.4234 51.4856 69.7445 54.1863L65.1095 54.9163C64.4161 54.7338 63.9781 54.6243 63.3577 54.2593C63.785 53.5088 64.1277 52.7132 64.3796 51.8871L64.1241 51.4126C62.5185 53.517 60.5082 55.279 58.2117 56.5951C57.0421 57.209 55.7618 57.5833 54.4458 57.6961C53.1297 57.8089 51.8044 57.6579 50.5474 57.252C46.1572 55.7489 42.0404 53.5425 38.3577 50.7192C38.3577 50.7192 38.3577 51.5221 38.5766 51.7046C39.9635 53.3104 43.2117 56.1936 46.3504 58.2009L39.6715 58.9309L42.8467 83.5294C41.4234 83.7484 41.2044 83.8579 39.6715 84.0768C38.7012 80.1162 36.2952 76.6568 32.9197 74.3688C30.1276 72.792 26.8446 72.323 23.7226 73.0549L23.5401 73.2739C25.8029 73.055 28.5037 73.3834 31.2774 75.1352C34.0146 76.8506 36.2044 81.3396 37.0073 83.9674C38.0657 87.398 38.7591 91.0476 35.9854 94.9163C34.0146 97.69 28.2117 99.2228 23.5766 95.9382C24.781 97.9455 26.4964 99.5878 28.7591 99.8798C32.1168 100.354 35.3285 99.7703 37.5183 97.5075C39.4161 95.5732 40.4015 91.5221 40.146 87.2885L43.1022 86.8506L44.1971 94.4783L93.4672 88.5294L89.4161 49.3688L89.3796 49.3323ZM59.4526 28.6024C59.2701 28.9309 59.0876 29.1133 59.3796 30.1352V30.2082L59.4526 30.3542L59.5985 30.6462C60.1825 31.8506 60.8394 32.982 61.8978 33.5659C62.1898 33.4929 62.4453 33.4564 62.7737 33.4564C63.7591 33.4199 64.4161 33.5659 64.8175 33.7849V32.836C64.7445 31.3396 65.1095 28.7484 62.2263 27.398C61.1314 26.8871 59.562 27.0331 59.0511 27.69L59.3066 27.763C60.073 28.0185 59.562 28.2739 59.4161 28.6024H59.4526ZM67.5912 42.7265C64.5108 42.404 61.4015 42.9475 58.6131 44.2958C57.5912 45.0987 58.0657 46.4856 58.8321 47.0331C60.9489 48.6389 62.8467 49.6973 64.781 49.4418C65.9854 49.2958 67.0438 47.3615 67.8102 45.6462C68.3212 44.4418 68.3212 43.1644 67.5547 42.7265H67.5912ZM46.4234 30.5002C47.1168 29.8433 43.0657 29.0039 39.9635 31.1206C37.6642 32.69 37.5912 36.0842 39.781 37.982L40.365 38.4199C42.1944 37.5397 44.1539 36.9605 46.1679 36.7046C46.6423 36.1936 47.1898 35.2447 47.0438 33.6024C46.8613 31.3396 45.146 31.7046 46.4234 30.5002Z" fill="white"/>
</svg>
