<svg width="100" height="101" viewBox="0 0 100 101" fill="none" xmlns="http://www.w3.org/2000/svg">
<path fill-rule="evenodd" clip-rule="evenodd" d="M49.9784 100.062V80.6827C70.4913 80.6827 86.4146 60.3403 78.5372 38.7501C77.0905 34.7838 74.7942 31.1817 71.809 28.1962C68.8238 25.2107 65.222 22.9139 61.2559 21.4668C39.6658 13.6475 19.3234 29.5127 19.3234 50.0256H0C0 17.3325 31.6199 -8.16727 65.9017 2.54054C80.8621 7.24652 92.8176 19.1439 97.4654 34.1063C108.175 68.4423 82.7316 100.062 49.9784 100.062Z" fill="#0080FF"/>
<path fill-rule="evenodd" clip-rule="evenodd" d="M30.7694 80.739H50.0346V61.4736H30.7714L30.7694 80.739ZM15.9233 95.5852H30.7674V80.741H15.9233V95.5852ZM3.51245 80.741H15.9233V68.328H3.51245V80.741Z" fill="#0080FF"/>
</svg>
