<svg width="100" height="72" viewBox="0 0 100 72" fill="none" xmlns="http://www.w3.org/2000/svg">
<path d="M99.014 27.1505C98.7428 26.9351 96.211 25.0234 90.8716 25.0234C89.4617 25.0295 88.0548 25.1504 86.6646 25.385C85.6312 18.3019 79.7751 14.8484 79.5125 14.6935L78.0788 13.8667L77.1358 15.2274C75.9549 17.0553 75.0928 19.0703 74.5867 21.1868C73.6307 25.2301 74.2121 29.0278 76.266 32.2745C73.7858 33.6566 69.8072 33.9968 69.002 34.0269H3.13051C1.40996 34.0293 0.0138216 35.4197 0.00444499 37.1401C-0.0723876 42.9108 0.905303 48.6471 2.88937 54.0665C5.15852 60.0173 8.5344 64.4007 12.9264 67.0832C17.8481 70.0973 25.8441 71.8197 34.908 71.8197C39.0026 71.8326 43.0896 71.462 47.1152 70.7131C52.7113 69.6856 58.0961 67.7297 63.047 64.9259C67.1264 62.5636 70.7979 59.5583 73.9194 56.0256C79.1382 50.1179 82.2472 43.5385 84.5593 37.6912H85.4807C91.1946 37.6912 94.7083 35.4047 96.6459 33.4887C97.9336 32.2666 98.9389 30.778 99.5912 29.1268L100 27.9299L99.014 27.1505Z" fill="#2496ED"/>
<path d="M9.23622 32.098H18.0633C18.489 32.098 18.834 31.7529 18.834 31.3273V23.4646C18.8364 23.0389 18.4932 22.692 18.0676 22.6896C18.0662 22.6896 18.0647 22.6896 18.0633 22.6896H9.23622C8.81049 22.6896 8.46552 23.0347 8.46552 23.4603V23.4646V31.3271C8.46552 31.7529 8.81049 32.098 9.23622 32.098Z" fill="#2496ED"/>
<path d="M21.4004 32.098H30.2275C30.6532 32.098 30.9982 31.7529 30.9982 31.3273V23.4646C31.0006 23.0389 30.6574 22.692 30.2317 22.6896C30.2303 22.6896 30.2288 22.6896 30.2274 22.6896H21.4003C20.9722 22.6896 20.6252 23.0365 20.6252 23.4646V31.3271C20.6278 31.7536 20.974 32.098 21.4004 32.098Z" fill="#2496ED"/>
<path d="M33.7496 32.098H42.5767C43.0024 32.098 43.3474 31.7529 43.3474 31.3273V23.4646C43.3498 23.0389 43.0066 22.692 42.5809 22.6896C42.5795 22.6896 42.5779 22.6896 42.5765 22.6896H33.7495C33.3237 22.6896 32.9788 23.0347 32.9788 23.4603V23.4646V31.3271C32.9789 31.7529 33.324 32.098 33.7496 32.098Z" fill="#2496ED"/>
<path d="M45.9525 32.098H54.7796C55.206 32.098 55.5523 31.7537 55.5546 31.3273V23.4646C55.5546 23.0365 55.2077 22.6896 54.7796 22.6896H45.9525C45.5268 22.6896 45.1818 23.0347 45.1818 23.4603V23.4646V31.3271C45.1818 31.7529 45.5269 32.098 45.9525 32.098Z" fill="#2496ED"/>
<path d="M21.4004 20.7864H30.2275C30.6538 20.7841 30.9982 20.4377 30.9982 20.0114V12.1489C30.9982 11.7231 30.6531 11.3782 30.2275 11.3782H21.4004C20.9741 11.3782 20.6277 11.7225 20.6254 12.1489V20.0114C20.6277 20.4385 20.9733 20.7841 21.4004 20.7864Z" fill="#2496ED"/>
<path d="M33.7496 20.7864H42.5767C43.0029 20.7841 43.3474 20.4377 43.3474 20.0114V12.1489C43.3474 11.7231 43.0022 11.3782 42.5767 11.3782H33.7496C33.3239 11.3782 32.9789 11.7233 32.9789 12.1489V20.0114C32.9789 20.4377 33.3233 20.7841 33.7496 20.7864Z" fill="#2496ED"/>
<path d="M45.9525 20.7864H54.7796C55.2067 20.7841 55.5523 20.4385 55.5546 20.0114V12.1489C55.5523 11.7225 55.206 11.3782 54.7796 11.3782H45.9525C45.5268 11.3782 45.1818 11.7233 45.1818 12.1489V20.0114C45.1818 20.4377 45.5262 20.7841 45.9525 20.7864Z" fill="#2496ED"/>
<path d="M45.9525 9.47067H54.7796C55.206 9.47067 55.5523 9.12626 55.5546 8.69997V0.83296C55.5523 0.406533 55.206 0.0622559 54.7796 0.0622559H45.9525C45.5268 0.0622559 45.1818 0.407233 45.1818 0.83296V8.69983C45.1818 9.12556 45.5269 9.47067 45.9525 9.47067Z" fill="#2496ED"/>
<path d="M58.2631 32.098H67.0901C67.5166 32.098 67.8628 31.7537 67.8652 31.3273V23.4646C67.8652 23.0365 67.5182 22.6896 67.0901 22.6896H58.2631C57.8375 22.6896 57.4924 23.0347 57.4924 23.4603V23.4646V31.3271C57.4924 31.7529 57.8375 32.098 58.2631 32.098Z" fill="#2496ED"/>
</svg>
