<svg width="100" height="100" viewBox="0 0 100 100" fill="none" xmlns="http://www.w3.org/2000/svg">
<path d="M100 52.2589C100 43.8903 94.8015 36.5361 86.9824 33.7044C87.3206 31.9292 87.4897 30.154 87.4897 28.3367C87.4897 12.7407 74.8101 0.0610809 59.2565 0.0610809C50.1271 0.0610809 41.6738 4.41443 36.3484 11.7686C33.7279 9.73987 30.5159 8.64099 27.1769 8.64099C18.8928 8.64099 12.1726 15.3612 12.1726 23.6452C12.1726 25.4627 12.5107 27.2379 13.1025 28.8861C5.32562 31.6757 0.000177383 39.1566 0.000177383 47.4828C0.000177383 55.8937 5.2411 63.2479 13.0602 66.0798C12.7221 67.8127 12.553 69.63 12.553 71.4473C12.553 87.0012 25.1905 99.6385 40.7441 99.6385C49.8735 99.6385 58.3265 95.243 63.6096 87.8886C66.2301 89.9597 69.4423 91.1008 72.7813 91.1008C81.0652 91.1008 87.7856 84.3807 87.7856 76.0966C87.7856 74.2793 87.4474 72.5041 86.8556 70.8556C94.6324 68.0663 100 60.5853 100 52.2589Z" fill="white"/>
<path d="M39.306 42.9617L61.1995 52.9364L83.2622 33.5788C83.6002 31.9727 83.727 30.4089 83.727 28.7181C83.727 15.1087 72.6535 4.03517 59.0439 4.03517C50.8868 4.03517 43.3212 8.05039 38.7143 14.7706L35.0373 33.8323L39.306 42.9617Z" fill="#FED10A"/>
<path d="M16.6533 66.1223C16.3152 67.7284 16.1884 69.3766 16.1884 71.0671C16.1884 84.719 27.3043 95.7925 40.9559 95.7925C49.1554 95.7925 56.8054 91.735 61.4126 84.9726L65.0472 65.9955L60.1867 56.697L38.2086 46.68L16.6533 66.1223Z" fill="#24BBB1"/>
<path d="M16.525 28.2522L31.5293 31.8024L34.826 14.7695C32.7972 13.2056 30.2614 12.3603 27.6409 12.3603C21.132 12.3603 15.8065 17.6435 15.8065 24.1946C15.8065 25.5893 16.0601 26.9843 16.525 28.2522Z" fill="#EF5098"/>
<path d="M15.2172 31.844C8.53926 34.0417 3.8478 40.4661 3.8478 47.5244C3.8478 54.4136 8.1166 60.5422 14.4987 62.9936L35.547 43.9742L31.7007 35.7325L15.2172 31.844Z" fill="#1BA9F5"/>
<path d="M65.2163 84.9714C67.2874 86.5352 69.7811 87.4228 72.3593 87.4228C78.8682 87.4228 84.1936 82.1395 84.1936 75.5885C84.1936 74.1515 83.9401 72.7565 83.4751 71.4886L68.5132 67.9805L65.2163 84.9714Z" fill="#93C83E"/>
<path d="M68.2576 64.0507L84.7411 67.8968C91.4615 65.6989 96.1105 59.2747 96.1105 52.1741C96.1105 45.3272 91.8418 39.1563 85.4596 36.7472L63.9042 55.6398L68.2576 64.0507Z" fill="#0077CC"/>
</svg>
