<svg width="100" height="88" viewBox="0 0 100 88" fill="none" xmlns="http://www.w3.org/2000/svg">
<path d="M30.455 31.5342L49.4277 20.5802C49.661 20.4455 49.9257 20.3745 50.1952 20.3745C50.4647 20.3745 50.7294 20.4455 50.9628 20.5802L69.9355 31.5342C70.1688 31.6689 70.3625 31.8627 70.4973 32.096C70.632 32.3294 70.703 32.594 70.7031 32.8634V54.7713C70.7031 55.3193 70.4101 55.8259 69.9355 56.1006L50.9628 67.0545C50.7294 67.1892 50.4647 67.2602 50.1952 67.2602C49.9257 67.2602 49.661 67.1892 49.4277 67.0545L30.455 56.1006C30.2216 55.9658 30.0279 55.772 29.8931 55.5387C29.7584 55.3054 29.6875 55.0407 29.6874 54.7713V32.8631C29.6878 32.3146 29.9803 31.8084 30.455 31.5338" fill="#8080F2"/>
<path d="M99.3816 42.0221L76.6886 2.54273C75.8644 1.11538 74.3418 0.0622559 72.6933 0.0622559H27.3069C25.6584 0.0622559 24.135 1.11538 23.3108 2.54273L0.618165 41.935C-0.206055 43.3627 -0.206055 45.1647 0.618165 46.5924L23.3108 85.7484C24.135 87.1757 25.6584 87.9054 27.3069 87.9054H72.6929C74.3414 87.9054 75.8644 87.1976 76.6882 85.7699L99.3812 46.5502C100.206 45.1233 100.206 43.4495 99.3812 42.0221H99.3816ZM80.5906 61.0065C80.5906 61.5866 80.2414 62.1237 79.7382 62.4143L50.8323 79.0913C50.5834 79.2339 50.3016 79.309 50.0147 79.309C49.7279 79.309 49.446 79.2339 49.1972 79.0913L20.269 62.4143C19.7663 62.1237 19.4143 61.587 19.4143 61.0061V27.6514C19.4143 27.0705 19.7612 26.5342 20.2643 26.2436L49.1687 9.56618C49.4174 9.42335 49.6992 9.34819 49.986 9.34819C50.2729 9.34819 50.5547 9.42335 50.8034 9.56618L79.7332 26.2436C80.2367 26.5342 80.5906 27.0705 80.5906 27.6514V61.0061V61.0065Z" fill="#4B32C3"/>
</svg>
