<svg width="100" height="101" viewBox="0 0 100 101" fill="none" xmlns="http://www.w3.org/2000/svg">
<path d="M31.0153 61.3778V39.4993H32.2021V42.9408C32.3422 42.7882 32.4716 42.6261 32.5894 42.4556C33.5806 40.3993 35.6711 39.1015 37.9534 39.1271C40.6591 39.0464 42.8579 40.048 44.15 42.4556C44.9723 43.9514 45.4247 45.6221 45.4696 47.3283C45.5146 49.0346 45.1506 50.7268 44.4083 52.2637C43.2044 54.9618 40.231 56.3033 37.0477 55.8106C36.057 55.7264 35.1032 55.3954 34.2734 54.8478C33.4435 54.3002 32.7641 53.5534 32.297 52.6757V61.3768L31.0153 61.3778ZM32.2021 47.2386L32.4679 49.8076C32.9369 52.7317 34.6657 54.4596 37.38 54.7843C38.6546 54.9939 39.9625 54.7549 41.0807 54.1081C42.1989 53.4614 43.0581 52.4468 43.512 51.2374C44.5677 48.7216 44.4899 45.8734 43.3032 43.4164C42.8187 42.3323 41.9946 41.4353 40.9553 40.861C39.916 40.2867 38.718 40.0663 37.5423 40.2331C36.4388 40.3134 35.3877 40.7354 34.5349 41.4404C33.6822 42.1455 33.0703 43.0986 32.784 44.1674C32.5313 45.1788 32.337 46.2039 32.2021 47.2377V47.2386ZM69.7007 50.2121C69.5207 51.7525 68.7874 53.1752 67.6371 54.2154C66.4868 55.2557 64.9979 55.8428 63.4471 55.8675C58.4705 56.1182 56.135 52.8134 55.7638 48.9997C55.5057 46.9287 55.8419 44.827 56.7331 42.9398C57.3534 41.6452 58.3698 40.5818 59.635 39.9034C60.9001 39.2251 62.3484 38.9672 63.7699 39.167C65.1214 39.2819 66.4024 39.8188 67.4319 40.7019C68.4613 41.585 69.1869 42.7694 69.5061 44.0876C69.7589 45.2884 69.945 46.5023 70.0634 47.7238H56.9932C56.7512 51.1814 58.6091 53.9612 61.2427 54.6315C64.5228 55.4384 67.3263 54.0172 68.344 50.8985C68.57 50.0982 68.982 49.9852 69.7093 50.2121H69.7007ZM56.9838 46.6168H68.6744C68.6013 42.9332 66.3076 40.2559 63.1965 40.2255C59.6838 40.1686 57.1366 42.7386 56.9838 46.6168ZM72.1169 50.2928H73.2628C73.3049 51.137 73.579 51.9532 74.0551 52.6517C74.5311 53.3502 75.1906 53.9038 75.9609 54.2517C76.9282 54.687 77.9812 54.8986 79.0416 54.8706C80.102 54.8427 81.1424 54.576 82.0854 54.0903C82.5994 53.8588 83.0301 53.4752 83.319 52.9911C83.608 52.507 83.7414 51.9459 83.7012 51.3836C83.7308 50.8413 83.5828 50.3041 83.2795 49.8535C82.9763 49.403 82.5344 49.0635 82.0208 48.8867C80.7601 48.4178 79.4195 48.1595 78.135 47.7475C76.7984 47.3669 75.4914 46.8891 74.2245 46.3177C72.1549 45.3076 72.0267 41.3733 74.3698 40.1278C75.5695 39.4508 76.9197 39.085 78.2971 39.0637C79.6745 39.0425 81.0353 39.3665 82.2553 40.0062C83.7686 40.8417 84.6051 42.5287 84.3563 44.2405H83.3737C83.3737 44.193 83.2845 44.1512 83.2845 44.1028C83.1629 40.9699 80.5294 39.9901 77.7021 40.2654C76.8477 40.3604 76.0378 40.6186 75.2783 41.0002C74.8218 41.2087 74.4413 41.554 74.1896 41.9882C73.9378 42.4225 73.8273 42.9242 73.8732 43.424C73.8742 43.9242 74.0301 44.4118 74.3194 44.8198C74.6088 45.2278 75.0174 45.5362 75.4891 45.7025C76.7233 46.1554 78.0334 46.4459 79.3104 46.801L82.3958 47.6079C83.0971 47.8381 83.7121 48.2758 84.1592 48.863C84.6064 49.4502 84.8649 50.1593 84.9003 50.8966C85.1472 52.5533 84.3022 54.1814 82.8079 54.9362C80.1097 56.4628 75.6657 56.0593 73.6862 54.1292C72.6732 53.1105 72.1084 51.7273 72.1197 50.2918L72.1169 50.2928ZM99.4401 44.2414H98.3654C98.3654 44.0962 98.3084 43.9566 98.2923 43.8455C98.2751 43.04 97.9815 42.2648 97.4607 41.6499C96.9399 41.0351 96.2236 40.618 95.4318 40.4686C93.9382 40.0402 92.3449 40.117 90.8995 40.6869C90.3279 40.8505 89.8246 41.1947 89.4649 41.668C89.1052 42.1414 88.9084 42.7184 88.9039 43.3129C88.8834 43.8967 89.0652 44.4696 89.4184 44.9347C89.7716 45.3999 90.2747 45.7288 90.8425 45.8658L95.7546 47.1266C96.2858 47.254 96.8089 47.4131 97.3211 47.6032C98.8876 48.1728 99.9509 49.6273 99.9983 51.2896C100.022 52.1033 99.7986 52.9051 99.3581 53.5896C98.9175 54.2742 98.2803 54.8094 97.5299 55.1251C96.3898 55.643 95.1541 55.917 93.902 55.9296C92.6499 55.9422 91.4089 55.6931 90.2586 55.1982C89.3127 54.7903 88.5144 54.1024 87.9712 53.2271C87.428 52.3517 87.1661 51.331 87.2206 50.3023H88.2706C88.6656 52.2058 89.9729 53.7913 91.7662 54.5413C93.5596 55.2913 95.6074 55.1071 97.2385 54.0514C97.7278 53.7969 98.134 53.4075 98.409 52.9293C98.6839 52.4511 98.816 51.9042 98.7898 51.3532C98.8141 50.8105 98.6608 50.2747 98.3531 49.827C98.0454 49.3793 97.6001 49.0442 97.0847 48.8725C95.8239 48.4035 94.4834 48.1538 93.1989 47.7332C91.8547 47.3586 90.5398 46.8861 89.2646 46.3196C87.2443 45.3256 87.0829 41.4237 89.3861 40.179C90.6007 39.4736 91.9772 39.0947 93.3817 39.079C94.7862 39.0634 96.1708 39.4116 97.4008 40.0898C98.1043 40.5097 98.6706 41.125 99.0307 41.861C99.3907 42.5969 99.529 43.4217 99.4287 44.2348L99.4401 44.2414ZM29.0625 55.4726C28.6394 55.6326 28.1725 55.6321 27.7497 55.4714C27.327 55.3107 26.9777 55.0007 26.7678 54.6001L22.5905 48.8231L21.9848 48.0162L17.1373 54.6087C16.9397 54.9921 16.6093 55.2904 16.2078 55.448C15.8063 55.6056 15.3612 55.6116 14.9556 55.465L21.2006 47.0867L15.3904 39.5164C16.2525 39.205 17.2132 39.5429 17.6927 40.3233L22.0218 46.1715L26.3767 40.3461C26.5757 39.9693 26.9063 39.6788 27.3056 39.5298C27.7049 39.3808 28.145 39.3838 28.5422 39.5382L26.2874 42.5297L23.2333 46.5048C23.1485 46.5804 23.0807 46.6732 23.0342 46.7769C22.9878 46.8806 22.9638 46.993 22.9638 47.1067C22.9638 47.2203 22.9878 47.3327 23.0342 47.4364C23.0807 47.5401 23.1485 47.6329 23.2333 47.7086L29.0501 55.4726H29.0625ZM55.5787 39.4357V40.5749C54.7615 40.5213 53.9422 40.6397 53.1736 40.9223C52.405 41.2049 51.7042 41.6456 51.1165 42.2158C50.5287 42.786 50.067 43.4731 49.7613 44.2328C49.4555 44.9925 49.3124 45.8079 49.3412 46.6263V55.5134H48.1858V39.5069H49.3251V42.787C50.7226 40.3945 52.8796 39.5069 55.5863 39.4423L55.5787 39.4357ZM0.00189874 46.9823L0.510767 44.4693C1.90826 39.5002 7.60454 37.4325 11.5236 40.5104C13.8182 42.3123 14.3907 44.8652 14.2787 47.7418H1.35097C1.14211 52.8798 4.84944 55.9824 9.5916 54.3989C11.1543 53.8292 12.3306 52.5305 12.7179 50.9165C12.9685 50.1096 13.3825 49.9709 14.1401 50.2045C14.0137 51.1882 13.666 52.1304 13.123 52.9603C12.58 53.7902 11.856 54.4863 11.0052 54.996C9.59972 55.7647 7.98716 56.0692 6.39813 55.8661C4.80909 55.6631 3.32496 54.9627 2.15794 53.8653C1.0035 52.5675 0.30665 50.927 0.170889 49.1943C0.170889 48.9095 0.0759505 48.6437 0.00949379 48.3874C0.0031646 47.9083 0 47.4399 0 46.9823H0.00189874ZM1.36711 46.6348H13.0578C12.9847 42.9104 10.634 40.2683 7.49916 40.2436C4.00924 40.1961 1.51236 42.7803 1.35856 46.6187L1.36711 46.6348Z" fill="white"/>
</svg>
