<svg width="100" height="101" viewBox="0 0 100 101" fill="none" xmlns="http://www.w3.org/2000/svg">
<g id="figma">
<g id="figma_2">
<path id="Vector" d="M33.3334 100.083C42.5334 100.083 50.0001 92.6164 50.0001 83.4164V66.7498H33.3334C24.1334 66.7498 16.6667 74.2164 16.6667 83.4164C16.6667 92.6164 24.1334 100.083 33.3334 100.083Z" fill="#0ACF83"/>
<path id="Vector_2" d="M16.6667 50.0829C16.6667 40.8829 24.1334 33.4163 33.3334 33.4163H50.0001V66.7495H33.3334C24.1334 66.7495 16.6667 59.2829 16.6667 50.0829Z" fill="#A259FF"/>
<path id="Vector_3" d="M16.6667 16.7497C16.6667 7.54967 24.1334 0.0830078 33.3334 0.0830078H50.0001V33.4163H33.3334C24.1334 33.4163 16.6667 25.9497 16.6667 16.7497Z" fill="#F24E1E"/>
<path id="Vector_4" d="M50 0.0830078H66.6667C75.8667 0.0830078 83.3334 7.54967 83.3334 16.7497C83.3334 25.9497 75.8667 33.4163 66.6667 33.4163H50V0.0830078Z" fill="#FF7262"/>
<path id="Vector_5" d="M83.3334 50.0829C83.3334 59.2829 75.8667 66.7495 66.6667 66.7495C57.4667 66.7495 50 59.2829 50 50.0829C50 40.8829 57.4667 33.4163 66.6667 33.4163C75.8667 33.4163 83.3334 40.8829 83.3334 50.0829Z" fill="#1ABCFE"/>
</g>
</g>
</svg>
