<svg width="100" height="23" viewBox="0 0 100 23" fill="none" xmlns="http://www.w3.org/2000/svg">
<path d="M31.0153 22.3778V0.499267H32.2021V3.94077C32.3422 3.78817 32.4716 3.62608 32.5894 3.45564C33.5806 1.39928 35.6711 0.101476 37.9534 0.12711C40.6591 0.0464117 42.8579 1.04801 44.15 3.45564C44.9723 4.95136 45.4247 6.62209 45.4696 8.32832C45.5146 10.0346 45.1506 11.7268 44.4083 13.2637C43.2044 15.9618 40.231 17.3033 37.0477 16.8106C36.057 16.7264 35.1032 16.3954 34.2734 15.8478C33.4435 15.3002 32.7641 14.5534 32.297 13.6757V22.3768L31.0153 22.3778ZM32.2021 8.23862L32.4679 10.8076C32.9369 13.7317 34.6657 15.4596 37.38 15.7843C38.6546 15.9939 39.9625 15.7549 41.0807 15.1081C42.1989 14.4614 43.0581 13.4468 43.512 12.2374C44.5677 9.72155 44.4899 6.87341 43.3032 4.41641C42.8187 3.3323 41.9946 2.43532 40.9553 1.86103C39.916 1.28673 38.718 1.06633 37.5423 1.23314C36.4388 1.31342 35.3877 1.73539 34.5349 2.44043C33.6822 3.14548 33.0703 4.09859 32.784 5.16737C32.5313 6.17879 32.337 7.20392 32.2021 8.23767V8.23862ZM69.7007 11.2121C69.5207 12.7525 68.7874 14.1752 67.6371 15.2154C66.4868 16.2557 64.9979 16.8428 63.4471 16.8675C58.4705 17.1182 56.135 13.8134 55.7638 9.99972C55.5057 7.92871 55.8419 5.82699 56.7331 3.93982C57.3534 2.64524 58.3698 1.58175 59.635 0.903426C60.9001 0.225101 62.3484 -0.0328351 63.7699 0.166983C65.1214 0.281852 66.4024 0.818819 67.4319 1.70189C68.4613 2.58496 69.1869 3.76942 69.5061 5.08763C69.7589 6.28844 69.945 7.50235 70.0634 8.72376H56.9932C56.7512 12.1814 58.6091 14.9612 61.2427 15.6315C64.5228 16.4384 67.3263 15.0172 68.344 11.8985C68.57 11.0982 68.982 10.9852 69.7093 11.2121H69.7007ZM56.9838 7.61678H68.6744C68.6013 3.93318 66.3076 1.25592 63.1965 1.22554C59.6838 1.16858 57.1366 3.73855 56.9838 7.61678ZM72.1169 11.2928H73.2628C73.3049 12.137 73.579 12.9532 74.0551 13.6517C74.5311 14.3502 75.1906 14.9038 75.9609 15.2517C76.9282 15.687 77.9812 15.8986 79.0416 15.8706C80.102 15.8427 81.1424 15.576 82.0854 15.0903C82.5994 14.8588 83.0301 14.4752 83.319 13.9911C83.608 13.507 83.7414 12.9459 83.7012 12.3836C83.7308 11.8413 83.5828 11.3041 83.2795 10.8535C82.9763 10.403 82.5344 10.0635 82.0208 9.88675C80.7601 9.41775 79.4195 9.15952 78.135 8.74749C76.7984 8.36695 75.4914 7.88908 74.2245 7.31772C72.1549 6.30758 72.0267 2.37335 74.3698 1.12776C75.5695 0.450763 76.9197 0.0849651 78.2971 0.0637385C79.6745 0.042512 81.0353 0.366532 82.2553 1.00624C83.7686 1.84169 84.6051 3.52874 84.3563 5.24048H83.3737C83.3737 5.19301 83.2845 5.15123 83.2845 5.10282C83.1629 1.96986 80.5294 0.990097 77.7021 1.26542C76.8477 1.36036 76.0378 1.61859 75.2783 2.00024C74.8218 2.20874 74.4413 2.554 74.1896 2.98823C73.9378 3.42246 73.8273 3.9242 73.8732 4.42401C73.8742 4.9242 74.0301 5.41181 74.3194 5.81982C74.6088 6.22782 75.0174 6.53619 75.4891 6.70252C76.7233 7.15538 78.0334 7.44589 79.3104 7.80096L82.3958 8.60793C83.0971 8.83812 83.7121 9.27577 84.1592 9.86298C84.6064 10.4502 84.8649 11.1593 84.9003 11.8966C85.1472 13.5533 84.3022 15.1814 82.8079 15.9362C80.1097 17.4628 75.6657 17.0593 73.6862 15.1292C72.6732 14.1105 72.1084 12.7273 72.1197 11.2918L72.1169 11.2928ZM99.4401 5.24143H98.3654C98.3654 5.09617 98.3084 4.95661 98.2923 4.84553C98.2751 4.03996 97.9815 3.26477 97.4607 2.64994C96.9399 2.03511 96.2236 1.61801 95.4318 1.46858C93.9382 1.0402 92.3449 1.11696 90.8995 1.68694C90.3279 1.85052 89.8246 2.19471 89.4649 2.66804C89.1052 3.14138 88.9084 3.71844 88.9039 4.31293C88.8834 4.89666 89.0652 5.46955 89.4184 5.93472C89.7716 6.39989 90.2747 6.72879 90.8425 6.86582L95.7546 8.1266C96.2858 8.254 96.8089 8.41315 97.3211 8.60318C98.8876 9.17281 99.9509 10.6273 99.9983 12.2896C100.022 13.1033 99.7986 13.9051 99.3581 14.5896C98.9175 15.2742 98.2803 15.8094 97.5299 16.1251C96.3898 16.643 95.1541 16.917 93.902 16.9296C92.6499 16.9422 91.4089 16.6931 90.2586 16.1982C89.3127 15.7903 88.5144 15.1024 87.9712 14.2271C87.428 13.3517 87.1661 12.331 87.2206 11.3023H88.2706C88.6656 13.2058 89.9729 14.7913 91.7662 15.5413C93.5596 16.2913 95.6074 16.1071 97.2385 15.0514C97.7278 14.7969 98.134 14.4075 98.409 13.9293C98.6839 13.4511 98.816 12.9042 98.7898 12.3532C98.8141 11.8105 98.6608 11.2747 98.3531 10.827C98.0454 10.3793 97.6001 10.0442 97.0847 9.87251C95.8239 9.40351 94.4834 9.15383 93.1989 8.73325C91.8547 8.35856 90.5398 7.88609 89.2646 7.31962C87.2443 6.32562 87.0829 2.42366 89.3861 1.17902C90.6007 0.473617 91.9772 0.0946546 93.3817 0.079016C94.7862 0.0633775 96.1708 0.411596 97.4008 1.08978C98.1043 1.50965 98.6706 2.12502 99.0307 2.86096C99.3907 3.5969 99.529 4.42165 99.4287 5.23478L99.4401 5.24143ZM29.0625 16.4726C28.6394 16.6326 28.1725 16.6321 27.7497 16.4714C27.327 16.3107 26.9777 16.0007 26.7678 15.6001L22.5905 9.82314L21.9848 9.01617L17.1373 15.6087C16.9397 15.9921 16.6093 16.2904 16.2078 16.448C15.8063 16.6056 15.3612 16.6116 14.9556 16.465L21.2006 8.08672L15.3904 0.516356C16.2525 0.204959 17.2132 0.542939 17.6927 1.32333L22.0218 7.17152L26.3767 1.34611C26.5757 0.969291 26.9063 0.678769 27.3056 0.529804C27.7049 0.38084 28.145 0.383825 28.5422 0.538192L26.2874 3.52969L23.2333 7.50475C23.1485 7.58045 23.0807 7.6732 23.0342 7.77692C22.9878 7.88065 22.9638 7.99301 22.9638 8.10666C22.9638 8.22031 22.9878 8.33267 23.0342 8.4364C23.0807 8.54012 23.1485 8.63287 23.2333 8.70857L29.0501 16.4726H29.0625ZM55.5787 0.435659V1.57492C54.7615 1.52132 53.9422 1.63966 53.1736 1.92229C52.405 2.20492 51.7042 2.64557 51.1165 3.21579C50.5287 3.78602 50.067 4.47315 49.7613 5.23283C49.4555 5.99251 49.3124 6.80787 49.3412 7.62627V16.5134H48.1858V0.506862H49.3251V3.78697C50.7226 1.39453 52.8796 0.506862 55.5863 0.442304L55.5787 0.435659ZM0.00189874 7.98229L0.510767 5.46928C1.90826 0.500216 7.60454 -1.56754 11.5236 1.51036C13.8182 3.31228 14.3907 5.86517 14.2787 8.74179H1.35097C1.14211 13.8798 4.84944 16.9824 9.5916 15.3989C11.1543 14.8292 12.3306 13.5305 12.7179 11.9165C12.9685 11.1096 13.3825 10.9709 14.1401 11.2045C14.0137 12.1882 13.666 13.1304 13.123 13.9603C12.58 14.7902 11.856 15.4863 11.0052 15.996C9.59972 16.7647 7.98716 17.0692 6.39813 16.8661C4.80909 16.6631 3.32496 15.9627 2.15794 14.8653C1.0035 13.5675 0.30665 11.927 0.170889 10.1943C0.170889 9.90953 0.0759505 9.64371 0.00949379 9.38737C0.0031646 8.90825 0 8.43989 0 7.98229H0.00189874ZM1.36711 7.63482H13.0578C12.9847 3.91039 10.634 1.26827 7.49916 1.24358C4.00924 1.19611 1.51236 3.78033 1.35856 7.61868L1.36711 7.63482Z" fill="white"/>
</svg>
