<svg width="67" height="98" viewBox="0 0 67 98" fill="none" xmlns="http://www.w3.org/2000/svg">
<path d="M63.8222 63.9044C64.8722 64.9544 64.1278 66.7488 62.6444 66.7488H35C34.0778 66.7488 33.3333 67.4932 33.3333 68.4155V96.0599C33.3333 97.5432 31.5389 98.2877 30.4889 97.2377L0.65 67.3988C0.233333 66.9821 0 66.4155 0 65.8266V35.0821C0 34.1599 0.744444 33.4155 1.66667 33.4155H33.3333L63.8222 63.9044Z" fill="white"/>
<path d="M33.3334 33.4155L2.84447 2.9266C1.79447 1.8766 2.53892 0.0821533 4.02225 0.0821533H65C65.9222 0.0821533 66.6667 0.826598 66.6667 1.74882V31.7488C66.6667 32.671 65.9222 33.4155 65 33.4155H33.3334Z" fill="white"/>
</svg>
