<svg width="100" height="81" viewBox="0 0 100 81" fill="none" xmlns="http://www.w3.org/2000/svg">
<g clip-path="url(#clip0_790_4413)">
<path d="M63.4531 22.2442H66.5046L75.1981 13.5508L75.6256 9.86211C59.4501 -4.41463 34.7571 -2.87629 20.4804 13.2993C16.5109 17.7927 13.6312 23.1371 12.0635 28.9215C13.0318 28.5233 14.1049 28.4604 15.1151 28.7371L32.4978 25.87C32.4978 25.87 33.3822 24.4071 33.8391 24.4993C41.5727 16.0071 54.5878 15.0178 63.516 22.2442H63.4531Z" fill="#EA4335"/>
<path d="M87.5801 28.9215C85.5807 21.5652 81.4813 14.9508 75.7765 9.89145L63.5788 22.0891C68.7303 26.2975 71.6645 32.6395 71.5387 39.2916V41.4587C77.5369 41.4587 82.395 46.321 82.395 52.3151C82.395 58.3133 77.5327 63.1714 71.5387 63.1714H49.8219L47.6548 65.3678V78.3913L49.8219 80.5583H71.5387C83.9879 80.6548 95.0328 72.5858 98.7298 60.6983C102.418 48.8067 97.8915 35.8964 87.5801 28.9215Z" fill="#4285F4"/>
<path d="M28.0756 80.4368H49.7925V63.054H28.0756C26.5289 63.054 24.999 62.7229 23.5906 62.0774L20.5391 63.0205L11.7869 71.7139L11.024 74.7655C15.9325 78.4709 21.9223 80.4619 28.0756 80.4368Z" fill="#34A853"/>
<path d="M28.0756 24.0425C16.0121 24.1137 5.32759 31.8389 1.47966 43.2695C-2.36827 54.7001 1.46708 67.3169 11.0282 74.6691L23.6241 62.0732C18.1582 59.6043 15.7312 53.1743 18.2001 47.7084C20.669 42.2425 27.099 39.8156 32.5649 42.2845C34.9709 43.3743 36.899 45.3024 37.9889 47.7084L50.5848 35.1126C45.2237 28.1083 36.8949 24.0131 28.0756 24.0425Z" fill="#FBBC05"/>
</g>
<defs>
<clipPath id="clip0_790_4413">
<rect width="100" height="80.4753" fill="white" transform="translate(0 0.0830078)"/>
</clipPath>
</defs>
</svg>
