<svg width="100" height="101" viewBox="0 0 100 101" fill="none" xmlns="http://www.w3.org/2000/svg">
<path d="M98.1141 45.6274L54.4531 1.96885C51.9402 -0.545605 47.8621 -0.545605 45.3461 1.96885L36.2797 11.0353L47.7809 22.5364C50.4535 21.6333 53.5184 22.2392 55.6488 24.3696C57.7894 26.5138 58.391 29.6048 57.466 32.286L68.55 43.3704C71.2316 42.4466 74.3258 43.0442 76.4676 45.1895C79.4609 48.1817 79.4609 53.0313 76.4676 56.0255C73.4734 59.02 68.6238 59.02 65.6281 56.0255C63.3766 53.7716 62.8203 50.4649 63.9602 47.6911L53.6234 37.3544L53.6223 64.5564C54.3716 64.9268 55.056 65.4163 55.6488 66.0056C58.6422 68.9978 58.6422 73.8478 55.6488 76.8442C52.6547 79.8372 47.8027 79.8372 44.8129 76.8442C41.8195 73.8478 41.8195 68.9981 44.8129 66.006C45.5302 65.2883 46.3827 64.7199 47.3211 64.3337V36.8782C46.3814 36.4946 45.5284 35.9259 44.8129 35.206C42.5449 32.9411 41.9996 29.6134 43.1617 26.8286L31.8242 15.4899L1.88672 45.4255C-0.628906 47.9423 -0.628906 52.0208 1.88672 54.5356L45.5484 98.195C48.0621 100.71 52.1395 100.71 54.6562 98.195L98.1137 54.7384C100.629 52.2228 100.629 48.1419 98.1141 45.6274Z" fill="#DE4C36"/>
</svg>
