<svg width="100" height="98" viewBox="0 0 100 98" fill="none" xmlns="http://www.w3.org/2000/svg">
<path d="M50.0002 0.0830078C22.3894 0.0830078 0 22.4685 0 50.0832C0 72.175 14.3266 90.917 34.1933 97.5286C36.692 97.9913 37.6096 96.4439 37.6096 95.1232C37.6096 93.9311 37.563 89.992 37.5418 85.8141C23.6313 88.8387 20.6961 79.9147 20.6961 79.9147C18.4217 74.1353 15.1446 72.5989 15.1446 72.5989C10.6083 69.4955 15.4865 69.559 15.4865 69.559C20.5075 69.9119 23.1513 74.7117 23.1513 74.7117C27.6108 82.3558 34.8482 80.1457 37.7014 78.8685C38.15 75.6364 39.4461 73.431 40.8758 72.1824C29.7703 70.9178 18.0954 66.6305 18.0954 47.4719C18.0954 42.0133 20.0487 37.5527 23.2474 34.0512C22.7282 32.7917 21.0169 27.7063 23.7317 20.8191C23.7317 20.8191 27.9304 19.4753 37.4853 25.9444C41.4734 24.8362 45.7509 24.281 50.0002 24.2622C54.2495 24.281 58.5301 24.8362 62.526 25.9444C72.0696 19.4753 76.2624 20.8191 76.2624 20.8191C78.9839 27.7063 77.2718 32.7917 76.7526 34.0512C79.9584 37.5527 81.8983 42.0129 81.8983 47.4719C81.8983 66.6759 70.2014 70.9048 59.0677 72.1424C60.861 73.6941 62.459 76.7372 62.459 81.4017C62.459 88.0917 62.4009 93.4762 62.4009 95.1232C62.4009 96.4537 63.3009 98.0129 65.8357 97.5219C85.6915 90.9029 100 72.1675 100 50.0832C100 22.4685 77.6137 0.0830078 50.0002 0.0830078Z" fill="white"/>
<path d="M18.7266 71.3095C18.6168 71.5578 18.2255 71.6323 17.8698 71.4621C17.5071 71.299 17.3032 70.9601 17.4208 70.7107C17.5286 70.4551 17.92 70.3837 18.282 70.5554C18.6455 70.7182 18.8525 71.0601 18.7266 71.3095ZM21.1862 73.504C20.9477 73.7251 20.4815 73.6224 20.165 73.273C19.838 72.9244 19.7768 72.4585 20.0188 72.2338C20.2646 72.013 20.7168 72.1162 21.0446 72.4652C21.3717 72.8177 21.4352 73.2808 21.1858 73.5044L21.1862 73.504ZM22.8736 76.3117C22.5669 76.5247 22.0657 76.325 21.7563 75.8804C21.4501 75.4361 21.4501 74.9027 21.763 74.689C22.0736 74.4753 22.5669 74.6675 22.8806 75.1086C23.1865 75.5608 23.1865 76.0941 22.8732 76.3121L22.8736 76.3117ZM25.7268 79.5638C25.4527 79.8657 24.8692 79.7849 24.4417 79.3724C24.0049 78.9693 23.8829 78.3971 24.1578 78.0948C24.4351 77.7921 25.0221 77.8772 25.4527 78.2862C25.8868 78.6885 26.0193 79.2649 25.7272 79.5638H25.7268ZM29.4145 80.6618C29.2941 81.0531 28.7318 81.2312 28.1655 81.0649C27.6001 80.8935 27.2299 80.4347 27.344 80.039C27.4616 79.6449 28.0263 79.4595 28.5969 79.6375C29.1616 79.8081 29.5326 80.2633 29.4149 80.6618H29.4145ZM33.612 81.1272C33.6261 81.5398 33.1458 81.8817 32.5513 81.8892C31.9533 81.9021 31.4697 81.5684 31.4635 81.1629C31.4635 80.7465 31.9329 80.4077 32.5305 80.3978C33.125 80.3861 33.612 80.7174 33.612 81.1272ZM37.735 80.9692C37.8064 81.3715 37.3931 81.7849 36.8029 81.8947C36.2225 82.0005 35.6853 81.7523 35.6112 81.3535C35.539 80.941 35.9602 80.528 36.5394 80.421C37.1307 80.3182 37.6597 80.5602 37.735 80.9692Z" fill="white"/>
</svg>
