<svg width="100" height="93" viewBox="0 0 100 93" fill="none" xmlns="http://www.w3.org/2000/svg">
<path d="M50.0001 92.2005L68.413 35.5317H31.5868L49.9997 92.2005H50.0001Z" fill="#E24329"/>
<path d="M50.0001 92.2001L31.5868 35.5312H5.78195L50.0001 92.2001Z" fill="#FC6D26"/>
<path d="M5.78194 35.5312L0.186614 52.7527C-0.0621712 53.5183 -0.0622055 54.343 0.186516 55.1087C0.435238 55.8743 0.919947 56.5415 1.57118 57.0147L50 92.2004L5.78155 35.5316L5.78194 35.5312Z" fill="#FCA326"/>
<path d="M5.78195 35.5315H31.5868L20.4974 1.40009C19.9266 -0.356216 17.4421 -0.355826 16.8718 1.40009L5.78195 35.5315Z" fill="#E24329"/>
<path d="M50.0001 92.2001L68.413 35.5312H94.2182L49.9997 92.2001H50.0001Z" fill="#FC6D26"/>
<path d="M94.2181 35.5312L99.8135 52.7527C100.062 53.5184 100.062 54.3431 99.8134 55.1087C99.5646 55.8743 99.0798 56.5415 98.4285 57.0147L50.0001 92.2004L94.2181 35.5316V35.5312Z" fill="#FCA326"/>
<path d="M94.2182 35.5315H68.413L79.5028 1.40009C80.0735 -0.356216 82.5581 -0.355826 83.1284 1.40009L94.2182 35.5315Z" fill="#E24329"/>
</svg>
