<svg width="89" height="100" viewBox="0 0 89 100" fill="none" xmlns="http://www.w3.org/2000/svg">
<path fill-rule="evenodd" clip-rule="evenodd" d="M52.9725 11.5274L73.5073 23.3838C74.1001 22.7565 74.7805 22.2181 75.5272 21.7854C79.7858 19.337 85.2179 20.7907 87.6916 25.0496C90.14 29.3086 88.6863 34.7403 84.4274 37.214C83.6862 37.6409 82.8875 37.9589 82.0557 38.1584V61.88C82.8784 62.0798 83.6684 62.3956 84.402 62.8181C88.6863 65.2918 90.14 70.7239 87.6663 74.9828C85.2179 79.2414 79.7605 80.6951 75.5015 78.2471C74.6764 77.7737 73.9332 77.1703 73.3004 76.4601L52.8906 88.2436C53.1895 89.1487 53.3413 90.0958 53.3402 91.0489C53.3402 95.9453 49.3621 99.9494 44.4401 99.9494C39.518 99.9494 35.5399 95.9706 35.5399 91.0489C35.5399 90.174 35.6656 89.329 35.9 88.5308L15.3708 76.6778C14.7844 77.2926 14.1137 77.821 13.3786 78.2471C9.09431 80.6951 3.66222 79.2414 1.21386 74.9828C-1.23416 70.7239 0.219512 65.2918 4.47811 62.8181C5.21175 62.3956 6.00176 62.0796 6.8244 61.8796V38.1584C5.99268 37.9589 5.19396 37.6409 4.45277 37.214C0.19382 34.766 -1.25985 29.3086 1.18851 25.0496C3.63688 20.7907 9.09397 19.337 13.3529 21.7854C14.0956 22.2158 14.7726 22.7508 15.3631 23.3737L35.9038 11.5142C35.6616 10.6923 35.5391 9.83992 35.5399 8.98316C35.5399 4.06178 39.518 0.0830078 44.4401 0.0830078C49.3621 0.0830078 53.3402 4.06143 53.3402 8.98316C53.3402 9.86779 53.2118 10.7215 52.9725 11.5274ZM50.8332 15.1805L71.4169 27.0647C71.0891 28.2104 70.9951 29.4104 71.1405 30.5932C71.2858 31.776 71.6675 32.9175 72.263 33.9498C73.516 36.1294 75.5571 37.5744 77.8225 38.1375V61.8886C77.7069 61.9168 77.5919 61.9477 77.4777 61.9803L50.594 15.4183C50.6752 15.3405 50.7551 15.261 50.8332 15.1805ZM38.2917 15.4235L11.4083 61.9848C11.2921 61.9512 11.1752 61.9199 11.0577 61.8911V38.1375C13.3231 37.5744 15.3642 36.1294 16.6172 33.9498C17.2138 32.9155 17.5959 31.7716 17.7406 30.5864C17.8854 29.4012 17.7899 28.199 17.4598 27.0515L38.0376 15.1707C38.1206 15.2565 38.2053 15.3412 38.2917 15.4235ZM46.927 17.5327L73.8041 64.0836C73.1885 64.671 72.6608 65.3442 72.2373 66.0823C71.8149 66.8159 71.499 67.606 71.2992 68.4286H17.5817C17.3816 67.6059 17.0655 66.8159 16.6429 66.0823C16.2179 65.3493 15.6912 64.6802 15.0784 64.095L41.9608 17.5347C42.7667 17.7668 43.6014 17.8841 44.4401 17.8833C45.3035 17.8833 46.1378 17.7611 46.927 17.5327ZM51.022 85.053L71.4721 73.2458C71.4108 73.0531 71.356 72.8583 71.3078 72.6619H17.5702C17.5417 72.7775 17.5108 72.892 17.4778 73.0063L38.0279 84.8714C38.8577 84.0085 39.8536 83.3224 40.9556 82.8545C42.0576 82.3866 43.2429 82.1465 44.4401 82.1488C45.6791 82.1466 46.9049 82.4039 48.0385 82.9041C49.1721 83.4043 50.1884 84.1363 51.022 85.053Z" fill="#E535AB"/>
</svg>
