<svg width="69" height="101" viewBox="0 0 69 101" fill="none" xmlns="http://www.w3.org/2000/svg">
<path d="M46.7129 10.4655V29.2857L67.8618 83.6043C67.8618 83.6043 74.3184 96.8703 55.8519 100.103H13.7244C13.7244 100.103 -3.48741 98.3069 0.638872 84.6785L22.8641 29.2864V10.4655H46.7129Z" fill="#009688"/>
<path d="M47.1593 8.27719H21.7891C19.7343 8.27719 18.063 6.44925 18.063 4.19077C18.063 1.93085 19.7336 0.102905 21.7891 0.102905H47.1593C49.2235 0.102905 50.892 1.93085 50.892 4.19077C50.892 6.44925 49.2228 8.27719 47.1593 8.27719Z" fill="#004D40"/>
<path d="M40.4667 41.1948C43.1891 41.1948 45.4091 43.8548 45.4091 47.149C45.4091 50.4287 43.1876 53.0952 40.4667 53.0952C37.7379 53.0952 35.5243 50.4287 35.5243 47.149C35.5243 43.8533 37.7379 41.1948 40.4667 41.1948Z" fill="white"/>
<path d="M25.2942 56.6407C27.5951 56.6407 29.4604 54.3925 29.4604 51.6193C29.4604 48.846 27.5951 46.5979 25.2942 46.5979C22.9933 46.5979 21.1281 48.846 21.1281 51.6193C21.1281 54.3925 22.9933 56.6407 25.2942 56.6407Z" fill="white"/>
<path d="M48.5938 28.0383V19.087C48.5938 19.087 59.9449 16.5843 65.6179 29.7872C65.6179 29.7872 56.7768 36.2285 48.5938 28.0383Z" fill="#004D40"/>
<path d="M20.7919 28.0383V19.087C20.7919 19.087 9.43941 16.5843 3.7693 29.7872C3.7693 29.7872 12.6017 36.2285 20.7919 28.0383Z" fill="#004D40"/>
<path d="M55.4184 65.0812C36.9599 59.3553 21.4413 62.4292 13.8562 64.7529L6.20743 83.1635C2.7639 94.1544 17.1425 95.5989 17.1425 95.5989H52.3279C67.7509 92.9932 62.3605 82.301 62.3605 82.301L55.4184 65.0812Z" fill="white"/>
<path d="M28.8167 71.9217C28.8167 73.907 26.1488 75.5218 22.8625 75.5218C19.5763 75.5218 16.9163 73.9062 16.9163 71.9217C16.9163 69.9285 19.5763 68.3195 22.8625 68.3195C26.1502 68.3209 28.8167 69.9285 28.8167 71.9217Z" fill="#004D40"/>
<path d="M49.9913 71.9217C49.9913 73.907 47.3233 75.5218 44.0451 75.5218C40.7494 75.5218 38.0908 73.9062 38.0908 71.9217C38.0908 69.9285 40.7494 68.3195 44.0451 68.3195C47.3248 68.3209 49.9913 69.9285 49.9913 71.9217Z" fill="#004D40"/>
</svg>
