<svg width="74" height="101" viewBox="0 0 74 101" fill="none" xmlns="http://www.w3.org/2000/svg">
<path d="M23.7526 77.4395C23.7526 77.4395 19.9313 79.6617 26.4722 80.4136C34.3966 81.3175 38.4463 81.1881 47.179 79.5352C47.179 79.5352 49.475 80.9747 52.681 82.2217C33.1052 90.6116 8.37655 81.7356 23.7526 77.4395ZM21.3605 66.4911C21.3605 66.4911 17.0745 69.6638 23.6203 70.3407C32.0852 71.214 38.77 71.2855 50.3375 69.0581C50.3375 69.0581 51.9375 70.6801 54.4533 71.5672C30.7846 78.4882 4.42207 72.113 21.3605 66.4911Z" fill="#5382A1"/>
<path d="M41.5266 47.9192C46.3503 53.4725 40.2594 58.4699 40.2594 58.4699C40.2594 58.4699 52.507 52.1473 46.8822 44.2296C41.6289 36.8465 37.6 33.1775 59.4098 20.5288C59.4098 20.5288 25.1757 29.0788 41.5266 47.9189" fill="#E76F00"/>
<path d="M67.4175 85.5377C67.4175 85.5377 70.2454 87.8676 64.303 89.6703C53.0036 93.0934 17.2732 94.1271 7.34731 89.8066C3.77937 88.2547 10.4705 86.1006 12.5752 85.6483C14.7701 85.1723 16.0247 85.2612 16.0247 85.2612C12.0566 82.4657 -9.62323 90.7499 5.0125 93.1221C44.9258 99.595 77.7704 90.2076 67.4175 85.5377ZM25.5901 55.1474C25.5901 55.1474 7.41564 59.4644 19.1543 61.0316C24.1105 61.6952 33.9909 61.5453 43.1944 60.7739C50.7159 60.1399 58.2685 58.7906 58.2685 58.7906C58.2685 58.7906 55.6163 59.9265 53.6976 61.2366C35.2414 66.0907 -0.412529 63.8326 9.85179 58.8673C18.5324 54.6714 25.5904 55.1474 25.5904 55.1474H25.5901ZM58.1935 73.3714C76.9554 63.6221 68.2806 54.2533 62.2258 55.5157C60.7417 55.8243 60.0801 56.0918 60.0801 56.0918C60.0801 56.0918 60.6311 55.229 61.6833 54.8555C73.6613 50.6442 82.8735 67.2758 57.8165 73.8627C57.8165 73.863 58.1069 73.6036 58.1935 73.3714Z" fill="#5382A1"/>
<path d="M46.8822 0.104049C46.8822 0.104049 57.2727 10.4984 37.0272 26.481C20.7927 39.3022 33.3252 46.6124 37.0206 54.9646C27.5441 46.4146 20.5894 38.8879 25.2553 31.8829C32.1031 21.5994 51.0743 16.6139 46.8822 0.10376" fill="#E76F00"/>
<path d="M27.4338 99.7894C45.4426 100.942 73.097 99.1498 73.752 90.6285C73.752 90.6285 72.4931 93.8592 58.8687 96.4244C43.4978 99.3169 24.5401 98.9793 13.296 97.1254C13.2963 97.1254 15.5978 99.0305 27.4341 99.7894" fill="#5382A1"/>
</svg>
