<svg width="100" height="101" viewBox="0 0 100 101" fill="none" xmlns="http://www.w3.org/2000/svg">
<g id="js">
<g id="js_2">
<path id="Vector" d="M100 0.124512H0V100.125H100V0.124512Z" fill="#F7DF1E"/>
<path id="Vector_2" d="M67.1745 78.2499C69.1888 81.5388 71.8094 83.9563 76.4444 83.9563C80.338 83.9563 82.8253 82.0103 82.8253 79.3214C82.8253 76.0991 80.2698 74.9579 75.9841 73.0833L73.6348 72.0753C66.8539 69.1864 62.3491 65.5674 62.3491 57.9166C62.3491 50.869 67.719 45.5039 76.111 45.5039C82.0856 45.5039 86.3809 47.5833 89.4761 53.0277L82.1586 57.7261C80.5475 54.8372 78.8094 53.6991 76.111 53.6991C73.3587 53.6991 71.6142 55.4452 71.6142 57.7261C71.6142 60.5452 73.3602 61.6864 77.392 63.4325L79.7412 64.4388C87.7253 67.8626 92.2333 71.3531 92.2333 79.2007C92.2333 87.661 85.5872 92.296 76.6618 92.296C67.9348 92.296 62.2967 88.1372 59.538 82.6864L67.1745 78.2499ZM33.9793 79.0642C35.4555 81.6833 36.7983 83.8976 40.0269 83.8976C43.1142 83.8976 45.0618 82.6896 45.0618 77.9928V46.0404H54.4586V78.1198C54.4586 87.8499 48.7539 92.2785 40.4269 92.2785C32.9031 92.2785 28.546 88.3849 26.3301 83.6952L33.9793 79.0642Z" fill="black"/>
</g>
</g>
</svg>
