<svg width="91" height="101" viewBox="0 0 91 101" fill="none" xmlns="http://www.w3.org/2000/svg">
<path d="M84.8774 49.3603C84.8774 44.2199 80.71 40.0524 75.5696 40.0524C75.2386 40.0524 74.9127 40.0701 74.591 40.1041L87.3754 2.39783H33.046L45.8127 40.0712C45.6243 40.0593 45.4356 40.0532 45.2469 40.0528C40.1064 40.0528 35.939 44.2195 35.939 49.3606C35.939 53.5157 38.6623 57.0337 42.4205 58.2306C40.4356 61.6689 37.9377 64.7659 35.1017 67.4417C31.2454 71.0795 26.832 73.8382 22.0587 75.5378C16.3754 72.6183 13.6918 66.1255 16.1132 60.4327C16.3868 59.7896 16.666 59.138 16.9328 58.4892C21.0499 57.5283 24.1183 53.8374 24.1183 49.4272C24.1183 44.2865 19.9508 40.1194 14.8101 40.1194C9.66929 40.1194 5.50218 44.2865 5.50218 49.4272C5.50218 52.5796 7.07039 55.3642 9.46804 57.0479C7.16428 62.2932 3.77773 67.7829 2.72258 74.1454C1.45802 81.7703 2.71832 89.8643 9.31321 94.4353C24.6721 105.08 41.3441 87.8362 58.9224 83.5011C65.293 81.9304 72.2861 82.1834 77.8988 78.9329C82.1138 76.4917 84.8927 72.4457 85.681 67.9038C86.4605 63.4167 85.3246 58.9491 82.7126 55.3266C84.1139 53.6546 84.8805 51.5419 84.8774 49.3603Z" fill="#99425B"/>
<path d="M83.4415 67.5147C82.757 71.4582 80.3214 74.9025 76.7598 76.9657C73.4395 78.8886 69.4609 79.4626 65.2481 80.0699C62.9914 80.3951 60.6579 80.7321 58.3782 81.294C52.3506 82.7804 46.5122 85.6805 40.8665 88.4849C29.5674 94.0972 19.8095 98.9436 10.6087 92.5666C3.86887 87.8957 4.17996 79.2532 4.96512 74.5174C5.69289 70.1295 7.6604 66.0886 9.56272 62.1808C9.88682 61.5167 10.2083 60.8513 10.5272 60.1846C11.4861 60.568 12.4923 60.8204 13.5187 60.935C11.582 67.3266 14.6277 74.2761 21.0199 77.5599L21.895 78.0095L22.8212 77.6797C27.8748 75.8797 32.5316 72.9921 36.6619 69.0949C39.3316 66.5761 41.6273 63.7894 43.514 60.8117C44.0876 60.8983 44.6669 60.9417 45.2469 60.9418C51.1141 60.9418 55.9724 56.5557 56.7243 50.8909C59.1259 50.803 61.6766 50.8023 64.0919 50.8902C64.8431 56.5557 69.7022 60.9421 75.5693 60.9421C78.0226 60.9421 80.298 60.1733 82.1727 58.8673C83.4741 61.5314 83.9599 64.5289 83.4415 67.5147ZM14.8105 42.3926C18.6895 42.3926 21.8451 45.5485 21.8451 49.4276C21.8451 50.8207 21.4362 52.12 20.7343 53.2141C19.5651 55.0378 17.5774 56.2878 15.2938 56.4437C15.134 56.4544 14.9728 56.4622 14.8105 56.4622C13.946 56.4622 13.1179 56.3045 12.3523 56.0182C10.8102 55.4383 9.51889 54.3385 8.70103 52.9084C8.09373 51.8489 7.77464 50.6488 7.77556 49.4276C7.77556 45.5485 10.9314 42.3926 14.8105 42.3926ZM38.2127 49.3606C38.2127 45.8362 40.818 42.9099 44.2031 42.404C44.544 42.3526 44.8926 42.326 45.2473 42.326C47.5025 42.326 49.5104 43.3943 50.798 45.0496C51.1205 45.4624 51.396 45.9098 51.6193 46.3836C52.0566 47.3151 52.2828 48.3316 52.2819 49.3606C52.2819 49.9229 52.2139 50.4696 52.0888 50.994C51.4032 53.864 48.9559 56.0579 45.957 56.3598C45.7239 56.3831 45.4872 56.3952 45.2473 56.3952C43.8942 56.3963 42.5698 56.0048 41.4349 55.2681C39.4982 54.0135 38.2127 51.8348 38.2127 49.3606ZM67.5731 40.9952C66.0423 42.4564 64.9406 44.3087 64.3874 46.3514C61.7359 46.2537 59.0817 46.2537 56.4302 46.3514C55.835 44.1433 54.6012 42.1953 52.9413 40.7157L60.2207 25.9967L67.5731 40.9952ZM36.2168 4.6718H84.2043L72.8701 38.0997C72.3825 38.2165 71.903 38.3651 71.4348 38.5444L60.2384 15.7041L49.0101 38.408C48.5207 38.24 48.0204 38.1052 47.5128 38.0044L36.2168 4.6718ZM82.6039 49.361C82.6039 50.0661 82.4987 50.747 82.3048 51.3901C81.845 52.9041 80.8901 54.2199 79.5933 55.1264C78.4146 55.9536 77.0093 56.3968 75.5693 56.3955C72.3213 56.3955 69.5814 54.1821 68.7756 51.1846C68.6157 50.5899 68.5346 49.9768 68.5347 49.361C68.5347 48.3993 68.7289 47.4824 69.0797 46.6469C69.2607 46.2194 69.4835 45.8109 69.745 45.4273C71.011 43.5587 73.1472 42.3264 75.5693 42.3264C75.7915 42.3264 76.0104 42.3377 76.2276 42.3583C79.7991 42.691 82.6042 45.7037 82.6042 49.361H82.6039ZM87.1508 49.361C87.1508 43.7068 83.0769 38.9891 77.7111 37.9814L90.5466 0.124512H29.8753L42.7306 38.0579C37.5512 39.2105 33.6661 43.839 33.6661 49.3606C33.6661 53.5068 35.8572 57.1485 39.141 59.195C37.5615 61.5484 35.6886 63.7628 33.5421 65.7881C30.1378 68.9993 26.3456 71.4348 22.2572 73.0374C18.1389 70.4506 16.3982 65.572 18.2059 61.3223L18.3476 60.9893L18.6134 60.3642C23.1366 58.7865 26.3917 54.4815 26.3917 49.4276C26.3917 43.0414 21.1963 37.846 14.8105 37.846C8.42466 37.846 3.22862 43.0414 3.22862 49.4276C3.22862 52.6508 4.55376 55.5696 6.68603 57.6714C6.28835 58.514 5.88465 59.3538 5.47498 60.1906C3.52518 64.1947 1.31567 68.7332 0.479836 73.7733C-1.17978 83.7828 1.49743 91.7843 8.01862 96.3036C11.9756 99.046 15.9943 100.125 20.0381 100.125C27.6523 100.125 35.3551 96.299 42.889 92.5567C48.3146 89.8621 53.9252 87.0754 59.4671 85.7085C61.5292 85.2 63.6508 84.8939 65.8972 84.57C70.352 83.9273 74.9581 83.263 79.0384 80.9C83.7682 78.1605 87.0056 73.565 87.9211 68.2928C88.707 63.7664 87.7613 59.2329 85.4547 55.3879C86.5661 53.5741 87.1532 51.4878 87.1508 49.3606V49.361Z" fill="white"/>
</svg>
