<svg width="106" height="103" viewBox="0 0 106 103" fill="none" xmlns="http://www.w3.org/2000/svg">
<path d="M94.2519 24.6223C93.6801 22.7926 92.3079 21.306 90.5926 20.3912L55.7145 3.69543C54.7996 3.23801 53.7704 3.12366 52.8556 3.12366C51.9408 3.12366 50.9116 3.12366 49.9967 3.35237L15.1186 20.1625C13.4033 20.9629 12.1454 22.4496 11.688 24.3936L3.11142 62.0162C2.76836 63.9602 3.22578 65.9042 4.36932 67.5052L28.4981 97.3517C29.8704 98.7239 31.8144 99.6388 33.7584 99.7531H72.1815C74.2399 99.9818 76.1839 99.067 77.4418 97.3517L101.571 67.5052C102.714 65.9042 103.172 63.9602 102.943 62.0162L94.2519 24.6223Z" fill="white" stroke="white" stroke-width="5" stroke-miterlimit="10"/>
<path d="M94.2519 24.6223C93.6801 22.7926 92.3079 21.306 90.5926 20.3912L55.7145 3.69543C54.7996 3.23801 53.7704 3.12366 52.8556 3.12366C51.9408 3.12366 50.9116 3.12366 49.9967 3.35237L15.1186 20.1625C13.4033 20.9629 12.1454 22.4496 11.688 24.3936L3.11142 62.0162C2.76836 63.9602 3.22578 65.9042 4.36932 67.5052L28.4981 97.3517C29.8704 98.7239 31.8144 99.6388 33.7584 99.7531H72.1815C74.2399 99.9818 76.1839 99.067 77.4418 97.3517L101.571 67.5052C102.714 65.9042 103.172 63.9602 102.943 62.0162L94.2519 24.6223Z" fill="#326DE6"/>
<path d="M88.8772 60.5296C88.7629 60.5296 88.6485 60.5296 88.6485 60.4153C88.6485 60.3009 88.4198 60.3009 88.1911 60.3009C87.7337 60.1865 87.2763 60.1865 86.8188 60.1865C86.5901 60.1865 86.3614 60.1865 86.1327 60.0722H86.0184C84.7605 59.9578 83.3882 59.7291 82.1303 59.3861C81.7872 59.2717 81.4442 58.9286 81.3298 58.5856L80.415 58.3569C80.8724 55.0406 80.6437 51.61 79.9576 48.2937C79.1571 44.9774 77.7848 41.7755 75.9552 38.9166L76.6413 38.2305V38.1161C76.6413 37.7731 76.7556 37.3157 76.9844 37.087C78.0135 36.1721 79.0427 35.486 80.1863 34.7999C80.415 34.6855 80.6437 34.5712 80.8724 34.4568C81.3298 34.2281 81.6729 33.9994 82.1303 33.7707C82.2447 33.6563 82.359 33.6563 82.4734 33.542C82.5877 33.4276 82.4734 33.4276 82.4734 33.3133C83.5026 32.5128 83.7313 31.1405 82.9308 30.1113C82.5877 29.6539 81.9016 29.3109 81.3298 29.3109C80.7581 29.3109 80.1863 29.5396 79.7289 29.8826L79.6145 29.997C79.5002 30.1113 79.3858 30.2257 79.2714 30.2257C78.9284 30.5688 78.5853 30.9118 78.3566 31.2549C78.2423 31.4836 78.0136 31.5979 77.8992 31.7123C77.0987 32.6271 76.0695 33.542 75.0403 34.2281C74.8116 34.3425 74.5829 34.4568 74.3542 34.4568C74.2399 34.4568 74.0112 34.4568 73.8968 34.3424H73.7824L72.8676 34.9142C71.9528 33.9994 70.9236 33.0846 70.0087 32.1697C65.7776 28.8534 60.5173 26.7951 55.1427 26.2233L55.0283 25.3085V25.4228C54.6853 25.1941 54.5709 24.851 54.4565 24.508C54.4565 23.2501 54.4565 21.9922 54.6853 20.6199V20.5056C54.6853 20.2769 54.7996 20.0481 54.7996 19.8194C54.914 19.362 54.914 18.9046 55.0283 18.4472V17.7611C55.1427 16.6175 54.2278 15.474 53.0843 15.3596C52.3982 15.2453 51.712 15.5883 51.1403 16.1601C50.6828 16.6175 50.4541 17.1893 50.4541 17.7611V18.3328C50.4541 18.7903 50.5685 19.2477 50.6828 19.7051C50.7972 19.9338 50.7972 20.1625 50.7972 20.3912V20.5056C51.0259 21.7635 51.0259 23.0214 51.0259 24.3936C50.9116 24.7367 50.7972 25.0797 50.4541 25.3085V25.5372L50.3398 26.452C49.0819 26.5663 47.824 26.7951 46.4517 27.0238C41.0771 28.1673 36.1598 31.0262 32.3861 35.0286L31.7 34.5712H31.5857C31.4713 34.5712 31.357 34.6855 31.1282 34.6855C30.8995 34.6855 30.6708 34.5712 30.4421 34.4568C29.4129 33.6563 28.3837 32.7415 27.5833 31.8267C27.4689 31.5979 27.2402 31.4836 27.1258 31.3692C26.7828 31.0262 26.5541 30.6831 26.211 30.34C26.0966 30.2257 25.9823 30.2257 25.8679 30.1113C25.7536 29.997 25.7536 29.997 25.7536 29.997C25.2962 29.6539 24.7244 29.4252 24.1526 29.4252C23.4665 29.4252 22.8947 29.6539 22.5517 30.2257C21.8655 31.2549 22.0942 32.6271 23.0091 33.4276C23.1234 33.4276 23.1234 33.542 23.1234 33.542C23.1234 33.542 23.3521 33.7707 23.4665 33.7707C23.8096 33.9994 24.267 34.2281 24.7244 34.4568C24.9531 34.5712 25.1818 34.6855 25.4105 34.7999C26.5541 35.486 27.6976 36.1721 28.6124 37.087C28.8412 37.3157 29.0699 37.7731 28.9555 38.1161V38.0018L29.6416 38.6879C29.5273 38.9166 29.4129 39.031 29.2986 39.2597C25.7536 44.8631 24.267 51.4956 25.2962 58.0138L24.3813 58.2425C24.3813 58.3569 24.267 58.3569 24.267 58.3569C24.1526 58.6999 23.8096 58.9286 23.4665 59.1574C22.2086 59.5004 20.9507 59.7291 19.5784 59.8435C19.3497 59.8435 19.121 59.8435 18.8923 59.9578C18.4349 59.9578 17.9775 60.0722 17.5201 60.0722C17.4057 60.0722 17.2914 60.1865 17.0627 60.1865C16.9483 60.1865 16.9483 60.1865 16.8339 60.3009C15.576 60.5296 14.7756 61.6732 15.0043 62.931C15.233 63.9602 16.2622 64.6464 17.2914 64.532C17.5201 64.532 17.6344 64.532 17.8631 64.4177C17.9775 64.4177 17.9775 64.4177 17.9775 64.3033C17.9775 64.1889 18.3206 64.3033 18.4349 64.3033C18.8923 64.1889 19.3497 63.9602 19.6928 63.8459C19.9215 63.7315 20.1502 63.6172 20.3789 63.6172H20.4933C21.7512 63.1598 22.8947 62.8167 24.267 62.588H24.3813C24.7244 62.588 25.0675 62.7023 25.2962 62.931C25.4105 62.931 25.4105 63.0454 25.4105 63.0454L26.4397 62.931C28.155 68.1914 31.357 72.8799 35.8168 76.3105C36.846 77.111 37.7608 77.7971 38.9043 78.3689L38.3326 79.1694C38.3326 79.2837 38.4469 79.2837 38.4469 79.2837C38.6756 79.6268 38.6756 80.0842 38.5613 80.4273C38.1039 81.5708 37.4177 82.7144 36.7316 83.7436V83.8579C36.6173 84.0866 36.5029 84.201 36.2742 84.4297C36.0455 84.6584 35.8168 85.1158 35.4737 85.5732C35.3594 85.6876 35.3594 85.8019 35.245 85.9163C35.245 85.9163 35.245 86.0306 35.1306 86.0306C34.5589 87.1742 35.0163 88.5464 36.0455 89.1182C36.2742 89.2326 36.6173 89.3469 36.846 89.3469C37.7608 89.3469 38.5613 88.7751 39.0187 87.9747C39.0187 87.9747 39.0187 87.8603 39.1331 87.8603C39.1331 87.746 39.2474 87.6316 39.3618 87.5173C39.4761 87.0598 39.7048 86.7168 39.8192 86.2593L40.0479 85.5732C40.391 84.3153 40.9627 83.1718 41.5345 82.0282C41.7632 81.6852 42.1063 81.4565 42.4493 81.3421C42.5637 81.3421 42.5637 81.3421 42.5637 81.2278L43.0211 80.3129C46.223 81.5708 49.5393 82.1426 52.9699 82.1426C55.0283 82.1426 57.0867 81.9139 59.1451 81.3421C60.403 81.1134 61.6609 80.656 62.8044 80.3129L63.2618 81.1134C63.3762 81.1134 63.3762 81.1134 63.3762 81.2278C63.7192 81.3421 64.0623 81.5708 64.291 81.9139C64.8628 83.0574 65.4346 84.201 65.7776 85.4589V85.5732L66.0063 86.2593C66.1207 86.7168 66.2351 87.1742 66.4638 87.5173C66.5781 87.6316 66.5781 87.746 66.6925 87.8603C66.6925 87.8603 66.6925 87.9747 66.8068 87.9747C67.2642 88.7751 68.0647 89.3469 68.9796 89.3469C69.3226 89.3469 69.5513 89.2326 69.8944 89.1182C70.3518 88.8895 70.8092 88.4321 70.9236 87.8603C71.0379 87.2885 71.0379 86.7168 70.8092 86.145C70.8092 86.0306 70.6949 86.0306 70.6949 86.0306C70.6949 85.9163 70.5805 85.8019 70.4662 85.6876C70.2375 85.2302 70.0087 84.8871 69.6657 84.544C69.5513 84.3153 69.437 84.201 69.2083 83.9723V83.7436C68.4078 82.7144 67.836 81.5708 67.3786 80.4273C67.2642 80.0842 67.2642 79.6268 67.493 79.2837C67.493 79.1694 67.6073 79.1694 67.6073 79.1694L67.2642 78.2545C73.0963 74.7096 77.5561 69.2205 79.6145 62.7023L80.5294 62.8167C80.6437 62.8167 80.6437 62.7023 80.6437 62.7023C80.8724 62.4736 81.2155 62.3593 81.5585 62.3593H81.6729C82.9308 62.588 84.1887 62.9311 85.3322 63.3885H85.4466C85.6753 63.5028 85.904 63.6172 86.1327 63.6172C86.5901 63.8459 86.9332 64.0746 87.3906 64.189C87.505 64.189 87.6193 64.3033 87.848 64.3033C87.9624 64.3033 87.9624 64.3033 88.0767 64.4177C88.3055 64.532 88.4198 64.532 88.6485 64.532C89.6777 64.532 90.5925 63.8459 90.9356 62.931C90.8212 61.6732 89.9064 60.7583 88.8772 60.5296ZM55.8288 56.9846L52.7412 58.4712L49.6537 56.9846L48.8532 53.6683L51.0259 50.9238H54.4565L56.6293 53.6683L55.8288 56.9846ZM74.4686 49.5516C75.0403 51.953 75.1547 54.3545 74.926 56.7559L64.0623 53.6683C63.0331 53.4396 62.4614 52.4104 62.6901 51.3813C62.8044 51.0382 62.9188 50.8095 63.1475 50.5808L71.7241 42.8047C72.982 44.8631 73.8968 47.1501 74.4686 49.5516ZM68.2934 38.5736L58.9164 45.2061C58.1159 45.6635 56.9723 45.5492 56.4006 44.7487C56.1719 44.52 56.0575 44.2913 56.0575 43.9482L55.3714 32.3984C60.403 32.9702 64.8628 35.1429 68.2934 38.5736ZM47.5953 32.7415L49.8824 32.2841L49.3106 43.7195C49.3106 44.7487 48.3958 45.5492 47.3666 45.5492C47.0235 45.5492 46.7948 45.4348 46.4517 45.3205L36.9603 38.5736C39.9335 35.7147 43.5929 33.6563 47.5953 32.7415ZM33.644 42.8047L42.1063 50.3521C42.9067 51.0382 43.0211 52.1817 42.335 52.9822C42.1063 53.3253 41.8776 53.4396 41.4201 53.554L30.3278 56.7559C29.9847 51.953 31.1282 47.0358 33.644 42.8047ZM31.7 62.1306L43.0211 60.1865C43.9359 60.1865 44.8508 60.7583 44.9651 61.6732C45.0795 62.0162 45.0795 62.4736 44.8508 62.8167L40.5053 73.3373C36.5029 70.7072 33.301 66.7047 31.7 62.1306ZM57.6585 76.3105C56.0575 76.6536 54.4565 76.8823 52.7412 76.8823C50.3398 76.8823 47.824 76.4249 45.5369 75.7387L51.1403 65.5612C51.712 64.8751 52.6269 64.6464 53.4274 65.1038C53.7704 65.3325 53.9991 65.5612 54.3422 65.9043L59.8312 75.8531C59.1451 75.9675 58.4589 76.0818 57.6585 76.3105ZM71.6097 66.3617C69.8944 69.1062 67.4929 71.5076 64.7484 73.2229L60.2886 62.4736C60.0599 61.5588 60.5173 60.644 61.3178 60.3009C61.6609 60.1865 62.0039 60.0722 62.347 60.0722L73.7824 62.0162C73.2107 63.6172 72.5245 65.1038 71.6097 66.3617Z" fill="white"/>
</svg>
