<svg width="100" height="100" viewBox="0 0 100 100" fill="none" xmlns="http://www.w3.org/2000/svg">
<path d="M92.1104 77.2116C86.6696 77.0739 82.4527 77.6262 78.916 79.1449C77.8957 79.5587 76.2632 79.5591 76.1272 80.871C76.6713 81.4234 76.7394 82.321 77.2155 83.0801C78.0325 84.4606 79.4598 86.3248 80.7522 87.2919C82.1802 88.3962 83.609 89.5005 85.1047 90.4672C87.7575 92.1243 90.7504 93.0905 93.3348 94.7476C94.8316 95.7135 96.3269 96.9571 97.8233 97.9924C98.5716 98.544 99.0473 99.4424 100 99.7872V99.5805C99.5235 98.9586 99.3874 98.0614 98.9117 97.371C98.2323 96.6805 97.5513 96.0591 96.8711 95.3687C94.8989 92.6767 92.4505 90.3291 89.7981 88.3962C87.6218 86.8772 82.8604 84.8062 81.9766 82.2515C81.9766 82.2515 81.9081 82.1829 81.8405 82.1138C83.3366 81.9757 85.1047 81.4234 86.5335 81.0091C88.8458 80.3873 90.9541 80.5258 93.3348 79.9044C94.4227 79.6282 95.511 79.2829 96.599 78.9377V78.3167C95.3754 77.0739 94.4911 75.4172 93.1987 74.2434C89.7301 71.205 85.921 68.2368 81.9766 65.7515C79.8679 64.3706 77.1471 63.473 74.9028 62.2996C74.0874 61.885 72.7266 61.6782 72.2508 60.9878C71.026 59.4692 70.3458 57.4672 69.462 55.672C67.4902 51.8745 65.5852 47.6635 63.8847 43.6596C62.6611 40.9668 61.9129 38.274 60.4164 35.7892C53.4111 24.0526 45.7936 16.9416 34.0957 9.9684C31.5789 8.51883 28.5864 7.89742 25.3898 7.13831C23.6901 7.06887 21.9892 6.93117 20.2891 6.86173C19.2008 6.37841 18.1124 5.06694 17.1602 4.44552C13.2842 1.95987 3.28555 -3.42452 0.429089 3.68641C-1.40746 8.1736 3.1499 12.5917 4.71359 14.8707C5.87072 16.4583 7.36639 18.2531 8.18263 20.0483C8.65877 21.2213 8.79443 22.4649 9.27057 23.7073C10.3593 26.7442 11.3788 30.1278 12.8076 32.9587C13.5559 34.4083 14.3717 35.9269 15.324 37.2388C15.8682 37.9979 16.8201 38.3435 17.0245 39.5859C16.0726 40.9668 16.0042 43.0382 15.4596 44.764C13.0113 52.5654 13.964 62.2306 17.4322 67.9606C18.5202 69.686 21.1049 73.4843 24.5736 72.0339C27.6345 70.7915 26.9543 66.8563 27.8378 63.4044C28.0426 62.575 27.9066 62.0235 28.3143 61.4711V61.6096C29.2666 63.5421 30.2185 65.4067 31.1028 67.3396C33.2114 70.722 36.8837 74.2434 39.9442 76.5909C41.5771 77.833 42.8691 79.9734 44.9097 80.7329V80.5254H44.7733C44.3652 79.904 43.753 79.6282 43.2092 79.1445C41.9852 77.9024 40.6245 76.3834 39.6726 75.0025C36.8165 71.1359 34.2993 66.8559 32.0551 62.4373C30.9671 60.2977 30.0144 57.9501 29.1306 55.8101C28.7221 54.9808 28.7221 53.7387 28.0422 53.3249C27.0219 54.8435 25.5259 56.1553 24.7777 58.0192C23.486 60.9878 23.3496 64.6468 22.8735 68.4435C22.6014 68.5134 22.737 68.4435 22.601 68.5824C20.4251 68.0293 19.6769 65.7515 18.8603 63.8183C16.8197 58.9168 16.4796 51.0463 18.2485 45.3854C18.7246 43.9354 20.7652 39.3792 19.949 37.9983C19.5409 36.6864 18.1801 35.9269 17.4322 34.8916C16.5484 33.5797 15.5957 31.9234 14.9839 30.473C13.3514 26.6069 12.5352 22.3264 10.767 18.4603C9.95077 16.6651 8.52312 14.8016 7.36639 13.1445C6.07439 11.2807 4.64596 9.9684 3.62566 7.75933C3.28595 7.00022 2.80941 5.75739 3.35357 4.92884C3.48962 4.37648 3.76131 4.16973 4.30586 4.03164C5.19013 3.27174 7.70688 4.23838 8.59036 4.65266C11.1071 5.68755 13.2154 6.65499 15.324 8.10456C16.2759 8.79502 17.2962 10.1069 18.5202 10.4521H19.9486C22.1252 10.935 24.5732 10.5902 26.6138 11.2112C30.2189 12.3846 33.4831 14.1108 36.408 15.975C45.3179 21.705 52.6625 29.8516 57.628 39.5859C58.4442 41.1732 58.7839 42.6239 59.5322 44.2802C60.961 47.6635 62.7291 51.1154 64.1568 54.4292C65.5852 57.6736 66.9452 60.9878 68.9858 63.6806C70.0061 65.1297 74.0866 65.8896 75.9231 66.6491C77.2835 67.2701 79.3922 67.8229 80.6161 68.582C82.9284 70.0312 85.2407 71.6891 87.4174 73.2763C88.5057 74.1049 91.906 75.831 92.1104 77.2116Z" fill="#00546B"/>
<path d="M22.7367 17.217C21.5807 17.217 20.7649 17.3559 19.9486 17.5627V17.7008H20.0846C20.6292 18.8055 21.5807 19.565 22.2605 20.5312C22.8051 21.6356 23.2808 22.7407 23.8254 23.8454C23.893 23.776 23.961 23.7074 23.961 23.7074C24.9137 23.0165 25.3894 21.9122 25.3894 20.2551C24.9813 19.7721 24.9133 19.2888 24.5732 18.8055C24.1655 18.1146 23.2808 17.7698 22.7367 17.217Z" fill="#00546B"/>
</svg>
