<svg width="100" height="21" viewBox="0 0 100 21" fill="none" xmlns="http://www.w3.org/2000/svg">
<g clip-path="url(#clip0_790_6555)">
<path d="M66.4769 0.153687H83.8952V3.36864H76.9856V20.2821H73.5305V3.36864H66.4769V0.153687Z" fill="white"/>
<path d="M37.8304 0.153687V3.36864H23.8685V8.54052H35.0967V11.7555H23.8685V17.0671H37.8304V20.2821H20.4137V3.36864H20.4122V0.153687H37.8304Z" fill="white"/>
<path d="M46.5279 0.162048H42.0066L58.201 20.2905H62.7355L54.6373 10.2332L62.7226 0.177405L58.201 0.184392L52.3736 7.42183L46.5279 0.162048Z" fill="white"/>
<path d="M51.1675 14.5399L48.9033 11.7247L41.9937 20.3058H46.5279L51.1675 14.5399Z" fill="white"/>
<path fill-rule="evenodd" clip-rule="evenodd" d="M20.5348 20.2821L4.31855 0.145264H0V20.2737H3.45485V4.4477L16.1946 20.2821H20.5348Z" fill="white"/>
<path d="M84.6718 20.1591C84.4188 20.1591 84.2035 20.0715 84.0233 19.8962C83.8431 19.7209 83.754 19.5086 83.7563 19.2572C83.754 19.0127 83.8431 18.8028 84.0233 18.6275C84.2035 18.4522 84.4188 18.3645 84.6718 18.3645C84.9152 18.3645 85.1282 18.4522 85.3084 18.6275C85.4911 18.8028 85.5822 19.0127 85.5848 19.2572C85.5822 19.4233 85.5401 19.5755 85.4558 19.7116C85.3693 19.85 85.2594 19.9585 85.1211 20.0369C84.9853 20.1176 84.8355 20.1591 84.6718 20.1591Z" fill="white"/>
<path d="M90.5685 11.6796H92.0995V17.5779C92.0972 18.12 91.98 18.5837 91.7508 18.9735C91.519 19.3633 91.1982 19.6609 90.7863 19.8708C90.3767 20.0784 89.8967 20.1845 89.3513 20.1845C88.8526 20.1845 88.4056 20.0946 88.0076 19.9192C87.6097 19.7439 87.2937 19.481 87.0619 19.135C86.8277 18.7889 86.713 18.3576 86.713 17.8409H88.2465C88.2487 18.067 88.3003 18.263 88.3985 18.4268C88.4967 18.5906 88.6325 18.7151 88.8058 18.8028C88.9812 18.8904 89.1827 18.9343 89.4097 18.9343C89.6556 18.9343 89.8663 18.8835 90.0371 18.7797C90.2079 18.6782 90.3391 18.526 90.4305 18.323C90.5193 18.1223 90.5663 17.8732 90.5685 17.5779V11.6796Z" fill="white"/>
<path d="M98.3987 13.9863C98.3614 13.6288 98.1975 13.3497 97.9119 13.1513C97.6239 12.9506 97.2518 12.8514 96.7952 12.8514C96.4746 12.8514 96.1985 12.8999 95.969 12.9945C95.7396 13.0913 95.5617 13.2205 95.4398 13.3843C95.3183 13.5481 95.2574 13.7349 95.2525 13.9448C95.2525 14.1201 95.2947 14.2724 95.3766 14.3993C95.4586 14.5284 95.5685 14.6368 95.7114 14.7245C95.8518 14.8145 96.0086 14.8883 96.1797 14.9482C96.3528 15.0082 96.5261 15.059 96.6992 15.1005L97.4975 15.2966C97.8183 15.3704 98.1297 15.4696 98.4269 15.5964C98.7241 15.721 98.9934 15.8802 99.2297 16.0716C99.4662 16.2631 99.6535 16.4937 99.7916 16.7636C99.9297 17.0335 100 17.3495 100 17.714C100 18.2053 99.8736 18.6367 99.6183 19.0104C99.3632 19.3817 98.9957 19.6724 98.5134 19.8823C98.0335 20.0899 97.453 20.196 96.7695 20.196C96.1094 20.196 95.5335 20.0946 95.049 19.8916C94.5622 19.6909 94.1827 19.3956 93.9089 19.0081C93.635 18.6205 93.4876 18.1477 93.4665 17.5917H94.9835C95.0046 17.8824 95.0982 18.1246 95.2574 18.3207C95.4188 18.5144 95.6294 18.6575 95.8871 18.7543C96.147 18.8489 96.4371 18.8974 96.7579 18.8974C97.0926 18.8974 97.3876 18.8466 97.6426 18.7474C97.8954 18.6482 98.0944 18.5098 98.2373 18.3299C98.3825 18.1523 98.4551 17.9424 98.4574 17.7025C98.4551 17.4833 98.3893 17.3011 98.2629 17.1581C98.1343 17.0151 97.9563 16.8951 97.7292 16.7982C97.5 16.7014 97.233 16.6137 96.9287 16.5376L95.9596 16.2931C95.2596 16.1154 94.7048 15.8456 94.2997 15.4834C93.8926 15.1213 93.6911 14.6415 93.6911 14.0394C93.6911 13.5458 93.8269 13.1121 94.101 12.7407C94.3723 12.3694 94.7447 12.081 95.2152 11.8757C95.6881 11.6681 96.2218 11.5666 96.8162 11.5666C97.4203 11.5666 97.9492 11.6681 98.4058 11.8757C98.8622 12.081 99.2206 12.367 99.4802 12.7315C99.7401 13.096 99.8759 13.5135 99.883 13.9863H98.3987Z" fill="white"/>
</g>
<defs>
<clipPath id="clip0_790_6555">
<rect width="100" height="20.3046" fill="white" transform="translate(0 0.145264)"/>
</clipPath>
</defs>
</svg>
