<svg width="91" height="101" viewBox="0 0 91 101" fill="none" xmlns="http://www.w3.org/2000/svg">
<path d="M41.2785 1.21212C43.758 -0.207149 46.9876 -0.21356 49.465 1.21212C61.9286 8.2547 74.3961 15.2862 86.8576 22.3331C89.2014 23.6534 90.7692 26.2618 90.7454 28.9625V71.3334C90.7628 74.146 89.0401 76.8167 86.5673 78.1071C74.1447 85.1108 61.7285 92.1232 49.308 99.1269C46.7772 100.574 43.4827 100.462 41.031 98.8968C37.3067 96.7378 33.576 94.5895 29.8513 92.4327C29.0902 91.9789 28.2322 91.6178 27.6948 90.8798C28.1699 90.2395 29.0193 90.1597 29.7096 89.8801C31.2642 89.3858 32.692 88.5922 34.1202 87.8222C34.4813 87.5751 34.9222 87.6698 35.2684 87.891C38.4531 89.717 41.6097 91.596 44.8051 93.4046C45.4868 93.7981 46.177 93.2757 46.7597 92.9509C58.9501 86.0611 71.1555 79.1973 83.3438 72.3054C83.7954 72.0881 84.0451 71.6087 84.0084 71.114C84.0169 57.1368 84.0105 43.157 84.0126 29.1798C84.0643 28.6185 83.7395 28.1024 83.232 27.8727C70.8524 20.901 58.4793 13.9186 46.1019 6.94513C45.8874 6.7977 45.6334 6.71859 45.3732 6.71821C45.1129 6.71783 44.8587 6.79619 44.6438 6.94299C32.2664 13.9186 19.8954 20.9074 7.51799 27.8788C7.01226 28.1088 6.67284 28.6164 6.73303 29.1798C6.73517 43.157 6.73303 57.1368 6.73303 71.1161C6.71157 71.3575 6.76458 71.5997 6.88493 71.81C7.00528 72.0203 7.18719 72.1887 7.40616 72.2925C10.7091 74.1655 14.0164 76.0254 17.3215 77.892C19.1834 78.8942 21.4696 79.4897 23.521 78.7218C25.3314 78.0725 26.6003 76.2252 26.5658 74.303C26.5829 60.4073 26.5573 46.5095 26.5786 32.616C26.5334 31.9991 27.1185 31.4894 27.7183 31.5475C29.3053 31.5368 30.8945 31.5261 32.4815 31.5518C33.144 31.5368 33.5998 32.201 33.5179 32.8225C33.5115 46.8062 33.535 60.7902 33.5072 74.7738C33.5115 78.5006 31.9804 82.5558 28.5332 84.3793C24.2864 86.5793 19.0374 86.1127 14.8419 84.0032C11.2099 82.1904 7.7438 80.051 4.17621 78.1089C1.69702 76.8256 -0.017145 74.1442 0.000306541 71.3338V28.9625C-0.0256927 26.2059 1.60442 23.5501 4.02128 22.249C16.4418 15.2396 28.8601 8.22479 41.2785 1.21212Z" fill="#8CC84B"/>
<path d="M52.1141 30.5627C57.5312 30.214 63.3304 30.3561 68.2051 33.0248C71.9793 35.0698 74.0717 39.3618 74.1383 43.5548C74.0329 44.1204 73.4416 44.4324 72.9017 44.3935C71.33 44.3914 69.7579 44.4149 68.1862 44.3829C67.5195 44.4085 67.132 43.7938 67.0483 43.2043C66.5967 41.1981 65.5026 39.2111 63.6143 38.2435C60.7156 36.7922 57.3545 36.8652 54.1937 36.8954C51.8862 37.018 49.4048 37.2178 47.4499 38.5747C45.9491 39.6026 45.4932 41.6775 46.0289 43.3486C46.5339 44.5485 47.919 44.9356 49.0522 45.2925C55.5805 46.9999 62.4985 46.83 68.9021 49.077C71.5533 49.993 74.1468 51.7737 75.0543 54.5496C76.2414 58.27 75.721 62.7169 73.0741 65.7036C70.9276 68.1614 67.8012 69.4992 64.6831 70.2257C60.535 71.1506 56.2302 71.1741 52.0176 70.7635C48.0564 70.3119 43.9343 69.2712 40.8764 66.5723C38.2615 64.3018 36.9843 60.7641 37.1111 57.3497C37.1414 56.7731 37.7155 56.371 38.2679 56.4183C39.8507 56.4055 41.4334 56.4013 43.0162 56.4205C43.6483 56.3753 44.117 56.9216 44.1494 57.5174C44.4415 59.4289 45.1598 61.4351 46.8266 62.5684C50.0434 64.6437 54.0797 64.5016 57.7631 64.5597C60.8146 64.4243 64.2401 64.3834 66.7303 62.3665C68.0441 61.2161 68.4334 59.2914 68.0783 57.6357C67.6937 56.2378 66.2313 55.5864 64.9755 55.1604C58.5309 53.1218 51.5357 53.8615 45.1534 51.5561C42.5624 50.6405 40.0569 48.9092 39.0614 46.2473C37.6724 42.4799 38.3089 37.82 41.2333 34.9341C44.0846 32.0635 48.2007 30.958 52.1141 30.5623V30.5627Z" fill="#8CC84B"/>
</svg>
