<svg width="99" height="101" viewBox="0 0 99 101" fill="none" xmlns="http://www.w3.org/2000/svg">
<path d="M92.0601 41.1027C93.3101 37.6652 93.6226 34.2277 93.3101 30.7902C92.9976 27.3527 91.7476 23.9152 90.1851 20.7902C87.3726 16.1027 83.3101 12.3527 78.6226 10.1652C73.6226 7.97766 68.3101 7.35266 62.9976 8.60266C60.4976 6.10266 57.6851 3.91516 54.5601 2.35266C51.4351 0.790161 47.6851 0.165161 44.2476 0.165161C38.9351 0.165161 33.6226 1.72766 29.2476 4.85266C24.8726 7.97766 21.7476 12.3527 20.1851 17.3527C16.4351 18.2902 13.3101 19.8527 10.1851 21.7277C7.37257 23.9152 5.18507 26.7277 3.31007 29.5402C0.497572 34.2277 -0.439928 39.5402 0.185072 44.8527C0.810072 50.1652 2.99757 55.1652 6.43507 59.2277C5.18507 62.6652 4.87257 66.1027 5.18507 69.5402C5.49757 72.9777 6.74757 76.4152 8.31007 79.5402C11.1226 84.2277 15.1851 87.9777 19.8726 90.1652C24.8726 92.3527 30.1851 92.9777 35.4976 91.7277C37.9976 94.2277 40.8101 96.4152 43.9351 97.9777C47.0601 99.5402 50.8101 100.165 54.2476 100.165C59.5601 100.165 64.8726 98.6027 69.2476 95.4777C73.6226 92.3527 76.7476 87.9777 78.3101 82.9777C81.7476 82.3527 85.1851 80.7902 87.9976 78.6027C90.8101 76.4152 93.3101 73.9152 94.8726 70.7902C97.6851 66.1027 98.6226 60.7902 97.9976 55.4777C97.3726 50.1652 95.4976 45.1652 92.0601 41.1027ZM54.5601 93.6027C49.5601 93.6027 45.8101 92.0402 42.3726 89.2277C42.3726 89.2277 42.6851 88.9152 42.9976 88.9152L62.9976 77.3527C63.6226 77.0402 63.9351 76.7277 64.2476 76.1027C64.5601 75.4777 64.5601 75.1652 64.5601 74.5402V46.4152L72.9976 51.4152V74.5402C73.3101 85.4777 64.5601 93.6027 54.5601 93.6027ZM14.2476 76.4152C12.0601 72.6652 11.1226 68.2902 12.0601 63.9152C12.0601 63.9152 12.3726 64.2277 12.6851 64.2277L32.6851 75.7902C33.3101 76.1027 33.6226 76.1027 34.2476 76.1027C34.8726 76.1027 35.4976 76.1027 35.8101 75.7902L60.1851 61.7277V71.4152L39.8726 83.2902C35.4976 85.7902 30.4976 86.4152 25.8101 85.1652C20.8101 83.9152 16.7476 80.7902 14.2476 76.4152ZM8.93507 32.9777C11.1226 29.2277 14.5601 26.4152 18.6226 24.8527V25.4777V48.6027C18.6226 49.2277 18.6226 49.8527 18.9351 50.1652C19.2476 50.7902 19.5601 51.1027 20.1851 51.4152L44.5601 65.4777L36.1226 70.4777L16.1226 58.9152C11.7476 56.4152 8.62257 52.3527 7.37257 47.6652C6.12257 42.9777 6.43507 37.3527 8.93507 32.9777ZM77.9976 48.9152L53.6226 34.8527L62.0601 29.8527L82.0601 41.4152C85.1851 43.2902 87.6851 45.7902 89.2476 48.9152C90.8101 52.0402 91.7476 55.4777 91.4351 59.2277C91.1226 62.6652 89.8726 66.1027 87.6851 68.9152C85.4976 71.7277 82.6851 73.9152 79.2476 75.1652V51.4152C79.2476 50.7902 79.2476 50.1652 78.9351 49.8527C78.9351 49.8527 78.6226 49.2277 77.9976 48.9152ZM86.4351 36.4152C86.4351 36.4152 86.1226 36.1027 85.8101 36.1027L65.8101 24.5402C65.1851 24.2277 64.8726 24.2277 64.2476 24.2277C63.6226 24.2277 62.9976 24.2277 62.6851 24.5402L38.3101 38.6027V28.9152L58.6226 17.0402C61.7476 15.1652 65.1851 14.5402 68.9351 14.5402C72.3726 14.5402 75.8101 15.7902 78.9351 17.9777C81.7476 20.1652 84.2476 22.9777 85.4976 26.1027C86.7476 29.2277 87.0601 32.9777 86.4351 36.4152ZM33.9351 53.9152L25.4976 48.9152V25.4777C25.4976 22.0402 26.4351 18.2902 28.3101 15.4777C30.1851 12.3527 32.9976 10.1652 36.1226 8.60266C39.2476 7.04016 42.9976 6.41516 46.4351 7.04016C49.8726 7.35266 53.3101 8.91516 56.1226 11.1027C56.1226 11.1027 55.8101 11.4152 55.4976 11.4152L35.4976 22.9777C34.8726 23.2902 34.5601 23.6027 34.2476 24.2277C33.9351 24.8527 33.9351 25.1652 33.9351 25.7902V53.9152ZM38.3101 43.9152L49.2476 37.6652L60.1851 43.9152V56.4152L49.2476 62.6652L38.3101 56.4152V43.9152Z" fill="white"/>
</svg>
