<svg width="87" height="65" viewBox="0 0 87 65" fill="none" xmlns="http://www.w3.org/2000/svg">
<path d="M28.4449 36.6908C25.2234 37.6051 23.1099 39.2081 21.7176 40.8098C23.0511 39.6428 24.8374 38.5718 27.2469 37.8888C29.7114 37.1903 31.8139 37.1953 33.5511 37.5306V36.1721C32.0691 36.0366 30.3701 36.1446 28.4449 36.6908ZM21.5704 25.2708L9.60627 28.4228C9.60627 28.4228 9.82432 28.7308 10.2281 29.1418L20.3721 26.4688C20.3721 26.4688 20.2284 28.3211 18.9801 29.9781C21.3414 28.1916 21.5704 25.2708 21.5704 25.2708ZM31.5851 53.3886C14.7484 57.9233 5.84069 38.4113 3.14379 28.2838C1.89779 23.6091 1.35387 20.0686 1.20889 17.7838C1.19332 17.5466 1.20052 17.3466 1.21729 17.1633C0.343891 17.2161 -0.0742588 17.6701 0.0108162 18.9821C0.155791 21.2656 0.699716 24.8058 1.94572 29.4821C4.64142 39.6081 13.5504 59.1201 30.3871 54.5853C34.0519 53.5981 36.8051 51.7998 38.8719 49.5043C36.9669 51.2248 34.5826 52.5798 31.5851 53.3886ZM34.7491 13.3293V14.5276H41.3531C41.2176 14.1033 41.0811 13.7211 40.9456 13.3293H34.7491Z" fill="#2D4552"/>
<path d="M42.8291 23.1979C45.7991 24.0414 47.3699 26.1236 48.2001 27.9664L51.5116 28.9069C51.5116 28.9069 51.0599 22.4576 45.2264 20.8006C39.7691 19.2501 36.4109 23.8329 36.0024 24.4259C37.5899 23.2949 39.9081 22.3689 42.8291 23.1979ZM69.1894 27.9961C63.7271 26.4386 60.3701 31.0309 59.9676 31.6156C61.5564 30.4859 63.8734 29.5596 66.7931 30.3924C69.7584 31.2371 71.3279 33.3169 72.1606 35.1609L75.4769 36.1049C75.4769 36.1049 75.0179 29.6544 69.1894 27.9961ZM65.8994 45.0006L38.3519 37.2994C38.3519 37.2994 38.6501 38.8114 39.7944 40.7691L62.9881 47.2531C64.8976 46.1484 65.8994 45.0006 65.8994 45.0006ZM46.8006 61.5774C24.9884 55.7294 27.6254 27.9376 31.1549 14.7681C32.6081 9.34088 34.1021 5.30695 35.3411 2.60288C34.6019 2.4507 33.9896 2.8401 33.3846 4.07053C32.0691 6.73863 30.3869 11.0829 28.7589 17.1644C25.2304 30.3336 22.5934 58.1244 44.4046 63.9724C54.6854 66.7266 62.6944 62.5406 68.6646 55.9666C62.9976 61.0994 55.7624 63.9771 46.8006 61.5774Z" fill="#2D4552"/>
<path d="M34.7491 46.8759V41.2676L19.167 45.6861C19.167 45.6861 20.3184 38.9961 28.4449 36.6909C30.9094 35.9924 33.0121 35.9971 34.7491 36.3326V13.3294H42.5511C41.7016 10.7044 40.8799 8.68339 40.1896 7.27914C39.0479 4.95489 37.8774 6.49564 35.2201 8.71814C33.3486 10.2816 28.6186 13.6171 21.5009 15.5351C14.383 17.4544 8.62864 16.9454 6.22769 16.5296C2.82391 15.9424 1.04356 15.1949 1.21011 17.7839C1.35506 20.0674 1.89901 23.6079 3.14501 28.2839C5.84069 38.4101 14.7496 57.9221 31.5864 53.3874C35.9844 52.2024 39.0886 49.8601 41.2404 46.8746H34.7491V46.8759ZM9.60509 28.4229L21.5704 25.2709C21.5704 25.2709 21.2216 29.8739 16.7361 31.0564C12.2492 32.2376 9.60509 28.4229 9.60509 28.4229Z" fill="#E2574C"/>
<path d="M79.7804 13.5954C76.6701 14.1406 69.2084 14.8199 59.9869 12.3481C50.7629 9.87788 44.6429 5.55748 42.2181 3.52673C38.7809 0.647731 37.2689 -1.35307 35.7809 1.67331C34.4654 4.34263 32.7831 8.68688 31.1549 14.7684C27.6266 27.9376 24.9896 55.7284 46.8006 61.5764C68.6071 67.4194 80.2164 42.0319 83.7449 28.8614C85.3731 22.7811 86.0871 18.1769 86.2836 15.2081C86.5076 11.8451 84.1976 12.8214 79.7804 13.5954ZM35.9581 24.4909C35.9581 24.4909 39.3954 19.1449 45.2251 20.8019C51.0586 22.4589 51.5104 28.9081 51.5104 28.9081L35.9581 24.4909ZM50.1889 48.4801C39.9346 45.4764 38.3531 37.2994 38.3531 37.2994L65.8994 45.0009C65.8994 44.9996 60.3391 51.4464 50.1889 48.4801ZM59.9281 31.6756C59.9281 31.6756 63.3606 26.3334 69.1894 27.9951C75.0179 29.6546 75.4769 36.1039 75.4769 36.1039L59.9281 31.6756Z" fill="#2EAD33"/>
<path d="M29.3039 42.8119L19.167 45.6849C19.167 45.6849 20.2681 39.4119 27.7356 36.9259L21.9956 15.3844L21.4996 15.5351C14.3818 17.4546 8.62741 16.9454 6.22646 16.5296C2.82271 15.9426 1.04236 15.1949 1.20889 17.7841C1.35386 20.0676 1.89779 23.6079 3.14379 28.2841C5.83949 38.4101 14.7484 57.9221 31.5851 53.3874L32.0811 53.2316L29.3039 42.8119ZM9.60506 28.4231L21.5704 25.2709C21.5704 25.2709 21.2216 29.8739 16.736 31.0564C12.2492 32.2376 9.60506 28.4231 9.60506 28.4231Z" fill="#D65348"/>
<path d="M50.6514 48.5926L50.1876 48.4799C39.9334 45.4764 38.3519 37.2994 38.3519 37.2994L52.5564 41.2699L60.0766 12.3721L59.9856 12.3481C50.7616 9.87788 44.6419 5.55748 42.2169 3.52673C38.7796 0.647731 37.2676 -1.35307 35.7796 1.67331C34.4654 4.34263 32.7831 8.68688 31.1549 14.7684C27.6266 27.9376 24.9896 55.7284 46.8006 61.5761L47.2476 61.6769L50.6514 48.5926ZM35.9581 24.4909C35.9581 24.4909 39.3954 19.1449 45.2251 20.8019C51.0586 22.4589 51.5104 28.9081 51.5104 28.9081L35.9581 24.4909Z" fill="#1D8D22"/>
<path d="M29.8203 42.6646L27.1018 43.4361C27.7441 47.0566 28.8761 50.5311 30.6528 53.6006C30.9621 53.5324 31.2688 53.4736 31.5838 53.3874C32.4093 53.1646 33.1748 52.8889 33.9118 52.5881C31.9266 49.6421 30.6133 46.2491 29.8203 42.6646ZM28.7588 17.1646C27.3618 22.3786 26.1121 29.8834 26.4561 37.4109C27.0718 37.1436 27.7223 36.8946 28.4448 36.6896L28.9481 36.5771C28.3346 28.5366 29.6608 20.3431 31.1548 14.7684C31.5336 13.3581 31.9133 12.0464 32.2918 10.8231C31.6821 11.2111 31.0256 11.6089 30.2778 12.0186C29.7736 13.5751 29.2643 15.2764 28.7588 17.1646Z" fill="#C04B41"/>
</svg>
