<svg width="100" height="101" viewBox="0 0 100 101" fill="none" xmlns="http://www.w3.org/2000/svg">
<g id="postman">
<g id="postman_2">
<path id="Vector" d="M89.5728 19.6054C83.5282 11.7781 75.2981 5.91915 65.9235 2.76951C56.5488 -0.380126 46.4507 -0.678943 36.9062 1.91085C27.3617 4.50065 18.7996 9.86273 12.3027 17.3189C5.80588 24.7751 1.66609 33.9905 0.406949 43.7997C-0.852194 53.6088 0.825867 63.571 5.2289 72.4264C9.63194 81.2817 16.5622 88.6325 25.1431 93.5489C33.7241 98.4654 43.5703 100.727 53.4365 100.047C63.3027 99.3671 72.7457 95.7767 80.5713 89.7299C102.415 72.8488 106.446 41.4568 89.5712 19.6054H89.5728Z" fill="#FF6C37"/>
<path id="Vector_2" d="M66.8634 32.0242L45.7808 53.2741L39.8231 47.1491C60.5728 26.3993 62.6556 28.2742 66.8649 32.0242H66.8634Z" fill="white"/>
<path id="Vector_3" d="M45.781 53.8551C45.5942 53.8505 45.4159 53.7764 45.281 53.6473L39.281 47.6474C39.1459 47.5075 39.0704 47.3207 39.0704 47.1263C39.0704 46.9319 39.1459 46.745 39.281 46.6052C59.7387 26.1476 62.5308 27.1054 67.3636 31.4803C67.4445 31.5451 67.5092 31.6278 67.5526 31.7219C67.596 31.816 67.6169 31.9189 67.6136 32.0225C67.6448 32.2256 67.5667 32.4334 67.4058 32.5647L46.3232 53.6489C46.1753 53.7844 45.9815 53.8587 45.781 53.8567V53.8551ZM40.8638 47.1474L45.781 52.0645L65.7808 32.0647C65.0903 31.1993 64.1049 30.6188 63.0133 30.4344C61.9216 30.2499 60.8002 30.4743 59.8637 31.0647C56.2387 32.6897 50.4059 37.6475 40.8638 47.1474Z" fill="#FF6C37"/>
<path id="Vector_4" d="M51.823 59.1488L46.073 53.2739L67.1557 32.4398C72.8229 37.9819 64.4057 47.2318 51.823 59.1472V59.1488Z" fill="white"/>
<path id="Vector_5" d="M51.8231 59.8988C51.6387 59.8842 51.4636 59.8114 51.3231 59.691L45.4482 53.9411C45.3601 53.7274 45.3601 53.4876 45.4482 53.2739C45.3857 53.0986 45.3857 52.907 45.4482 52.7317L66.5308 31.6492C66.6774 31.5114 66.871 31.4347 67.0722 31.4347C67.2734 31.4347 67.467 31.5114 67.6136 31.6492C68.2964 32.2776 68.8358 33.0456 69.1952 33.9011C69.5546 34.7566 69.7255 35.6794 69.6964 36.6069C69.6964 42.2318 63.2793 49.3146 52.3637 59.6488C52.2179 59.7931 52.026 59.8816 51.8216 59.8988H51.8231ZM47.156 53.2739L51.8637 57.9801C60.1965 50.1052 68.1558 41.9803 68.1964 36.4803C68.2417 35.3144 67.8563 34.1725 67.1136 33.2726L47.156 53.2739Z" fill="#FF6C37"/>
<path id="Vector_6" d="M39.9888 47.274L44.1559 51.4411C44.1825 51.4646 44.2038 51.4934 44.2184 51.5258C44.233 51.5581 44.2406 51.5931 44.2406 51.6286C44.2406 51.6641 44.233 51.6991 44.2184 51.7315C44.2038 51.7638 44.1825 51.7927 44.1559 51.8161L35.3638 53.6911C35.1864 53.7294 35.0012 53.7086 34.8366 53.632C34.672 53.5554 34.537 53.4271 34.4521 53.2666C34.3671 53.1061 34.337 52.9223 34.3662 52.7431C34.3954 52.5639 34.4824 52.3991 34.6139 52.2739L39.7388 47.1912C39.7388 47.1912 39.906 47.1912 39.9888 47.274Z" fill="white"/>
<path id="Vector_7" d="M35.156 54.5239C34.8782 54.5204 34.6059 54.4458 34.3652 54.3071C34.1245 54.1684 33.9234 53.9703 33.781 53.7318C33.6208 53.4296 33.5627 53.0836 33.6153 52.7457C33.668 52.4077 33.8286 52.0959 34.0732 51.8568L39.1559 46.7318C39.3392 46.568 39.5765 46.4774 39.8223 46.4774C40.0682 46.4774 40.3054 46.568 40.4887 46.7318L44.6559 50.899C44.9027 51.1333 44.9996 51.488 44.9059 51.8162C44.8121 52.1443 44.5371 52.4052 44.1981 52.4833L35.406 54.3583L35.156 54.5239ZM39.8231 48.1912L35.1154 52.899L42.9074 51.2318L39.8231 48.1912Z" fill="#FF6C37"/>
<path id="Vector_8" d="M78.073 20.3149C75.0573 17.4056 70.3198 17.2837 67.1573 20.029C63.9948 22.7743 63.4541 27.4867 65.9166 30.8773C68.3792 34.2679 73.0214 35.2179 76.6152 33.0648L70.9479 27.3977L78.073 20.3149Z" fill="white"/>
<path id="Vector_9" d="M72.448 34.9804C70.7154 34.9582 69.0277 34.4266 67.5951 33.4519C66.1626 32.4773 65.0485 31.1026 64.3917 29.4992C63.7354 27.897 63.5633 26.1375 63.8965 24.4385C64.2298 22.7395 65.0538 21.1754 66.2667 19.9399C67.9349 18.3023 70.1791 17.3849 72.5167 17.3849C74.8543 17.3849 77.0986 18.3023 78.7667 19.9399C78.9261 20.0742 79.0167 20.2727 79.0167 20.482C79.0163 20.585 78.9938 20.6868 78.9507 20.7803C78.9076 20.8739 78.8448 20.957 78.7667 21.0242L72.0167 27.3992L77.1417 32.4413C77.2248 32.5206 77.2871 32.619 77.3233 32.728C77.3596 32.8369 77.3686 32.9531 77.3495 33.0663C77.3372 33.1756 77.301 33.2808 77.2435 33.3744C77.186 33.4681 77.1086 33.548 77.0167 33.6085C75.6399 34.4691 74.0571 34.944 72.4339 34.9835L72.448 34.9804ZM72.448 18.8133C69.4792 18.8289 66.823 20.6148 65.7089 23.3445C64.5949 26.0742 65.2011 29.2163 67.2824 31.3132C68.3176 32.3544 69.6431 33.0587 71.0853 33.3339C72.5276 33.6091 74.0193 33.4423 75.3652 32.8554L70.448 27.9382C70.3698 27.8757 70.3067 27.7964 70.2633 27.7062C70.22 27.616 70.1975 27.5172 70.1975 27.4171C70.1975 27.3171 70.22 27.2183 70.2633 27.128C70.3067 27.0378 70.3698 26.9586 70.448 26.8961L76.948 20.3539C75.6559 19.3637 74.0759 18.8222 72.448 18.8117V18.8133Z" fill="#FF6C37"/>
<path id="Vector_10" d="M78.1977 20.4398L71.0729 27.5225L76.7399 33.1897C77.3103 32.8622 77.8414 32.4706 78.3227 32.0225C79.808 30.4526 80.6252 28.367 80.6019 26.2059C80.5786 24.0448 79.7165 21.9773 78.1977 20.4398Z" fill="white"/>
<path id="Vector_11" d="M76.6135 33.8148C76.5199 33.8199 76.4263 33.8038 76.3398 33.7679C76.2532 33.7319 76.1759 33.6769 76.1135 33.607L70.4463 27.9399C70.3682 27.8774 70.3051 27.7981 70.2617 27.7079C70.2183 27.6177 70.1958 27.5189 70.1958 27.4188C70.1958 27.3187 70.2183 27.2199 70.2617 27.1297C70.3051 27.0395 70.3682 26.9602 70.4463 26.8977L77.5291 19.9399C77.5975 19.8368 77.6904 19.7522 77.7994 19.6936C77.9085 19.6351 78.0303 19.6045 78.1541 19.6045C78.2778 19.6045 78.3997 19.6351 78.5087 19.6936C78.6178 19.7522 78.7107 19.8368 78.7791 19.9399C79.6106 20.7546 80.2711 21.727 80.7221 22.8002C81.173 23.8734 81.4053 25.0258 81.4053 26.1899C81.4053 27.354 81.173 28.5063 80.7221 29.5795C80.2711 30.6527 79.6106 31.6251 78.7791 32.4398C78.2886 32.9601 77.7274 33.4087 77.1119 33.7726C76.9569 33.8507 76.7778 33.8659 76.6119 33.8148H76.6135ZM72.0307 27.3992L76.7385 32.107C77.0623 31.88 77.3689 31.6294 77.6556 31.357C79.0396 29.9769 79.8191 28.1038 79.8228 26.1492C79.826 24.4001 79.1885 22.7104 78.0306 21.3993L72.0307 27.3992Z" fill="#FF6C37"/>
<path id="Vector_12" d="M67.7386 32.8992C67.1742 32.3692 66.4292 32.0742 65.655 32.0742C64.8808 32.0742 64.1358 32.3692 63.5714 32.8992L44.6981 51.7303L47.8231 54.8975L67.7808 37.3976C68.0851 37.1059 68.3265 36.755 68.4902 36.3664C68.6538 35.9779 68.7362 35.56 68.7322 35.1385C68.7283 34.7169 68.6381 34.3006 68.4672 33.9153C68.2963 33.5299 68.0483 33.1836 67.7386 32.8976V32.8992Z" fill="white"/>
<path id="Vector_13" d="M47.6559 55.649C47.4692 55.6444 47.2909 55.5703 47.1559 55.4411L43.9888 52.274C43.8537 52.1342 43.7782 51.9473 43.7782 51.7529C43.7782 51.5585 43.8537 51.3716 43.9888 51.2318L62.8636 32.4398C63.4073 31.8968 64.1015 31.5297 64.8564 31.386C65.6112 31.2423 66.3918 31.3287 67.0969 31.6341C67.802 31.9394 68.3991 32.4495 68.8108 33.0983C69.2225 33.7471 69.4298 34.5046 69.4057 35.2726C69.3841 35.7939 69.2587 36.3056 69.0368 36.7778C68.8149 37.25 68.501 37.6732 68.1136 38.0226L48.1559 55.5224C48.0108 55.6251 47.8324 55.6697 47.6559 55.6474V55.649ZM45.4482 51.7302L47.5309 53.8552L67.1136 36.8132C67.598 36.3913 67.887 35.7882 67.9058 35.146C67.9245 34.5038 67.6714 33.8757 67.198 33.4382C66.7608 33.0028 66.1689 32.7584 65.5519 32.7584C64.9349 32.7584 64.343 33.0028 63.9058 33.4382L45.4482 51.7302Z" fill="#FF6C37"/>
<path id="Vector_14" d="M30.0733 73.1895C30.02 73.2619 29.9913 73.3495 29.9913 73.4395C29.9913 73.5294 30.02 73.617 30.0733 73.6895L30.9061 77.3144C30.9395 77.5278 30.9079 77.7462 30.8153 77.9413C30.7228 78.1363 30.5737 78.2991 30.3874 78.4082C30.2017 78.5168 29.9864 78.5636 29.7725 78.542C29.5585 78.5204 29.3569 78.4314 29.1968 78.2879L23.489 72.7879L41.281 54.8552H47.4481L51.6152 59.0224C45.1149 64.7058 37.8669 69.4724 30.0733 73.1895Z" fill="white"/>
<path id="Vector_15" d="M29.6983 79.3143C29.2264 79.305 28.7608 79.1112 28.4483 78.7721L22.9905 73.3144C22.9124 73.2519 22.8492 73.1726 22.8059 73.0824C22.7625 72.9922 22.74 72.8934 22.74 72.7933C22.74 72.6932 22.7625 72.5944 22.8059 72.5042C22.8492 72.414 22.9124 72.3347 22.9905 72.2722L40.906 54.3145C41.0063 54.2079 41.1374 54.1353 41.281 54.1067H47.4887C47.6505 54.0495 47.827 54.0495 47.9887 54.1067L52.1559 58.2739C52.2351 58.3469 52.2954 58.4382 52.3316 58.5397C52.3678 58.6412 52.3788 58.75 52.3637 58.8567C52.3666 58.9602 52.3456 59.063 52.3022 59.1571C52.2589 59.2511 52.1943 59.3339 52.1137 59.3989L51.7809 59.6911C45.2543 65.1321 38.0738 69.737 30.4061 73.3988L31.1983 76.7737C31.2595 77.0341 31.2618 77.3048 31.2051 77.5662C31.1484 77.8276 31.034 78.073 30.8704 78.2845C30.7068 78.4961 30.498 78.6684 30.2592 78.789C30.0205 78.9096 29.7579 78.9754 29.4905 78.9815L29.6983 79.3143ZM24.6155 72.7722L29.5311 77.73C29.5769 77.7708 29.6361 77.7934 29.6975 77.7934C29.7589 77.7934 29.8181 77.7708 29.8639 77.73C29.8945 77.6874 29.911 77.6363 29.911 77.5839C29.911 77.5314 29.8945 77.4803 29.8639 77.4378L29.0311 73.8128C28.9655 73.5527 28.9918 73.2778 29.1058 73.0349C29.2197 72.792 29.4141 72.5959 29.6561 72.48C37.1176 68.8671 44.113 64.3618 50.4887 59.0629L47.0716 55.6458H41.4888L24.6155 72.7722Z" fill="#FF6C37"/>
<path id="Vector_16" d="M19.1984 77.0643L23.3655 72.8972L29.7827 79.3143L19.5749 78.6065C19.3997 78.5928 19.2332 78.524 19.0994 78.4101C18.9655 78.2961 18.871 78.1428 18.8295 77.972C18.7879 77.8012 18.8013 77.6216 18.8678 77.4589C18.9344 77.2962 19.0506 77.1587 19.2 77.0659L19.1984 77.0643Z" fill="white"/>
<path id="Vector_17" d="M29.906 79.9394L19.739 79.2316C19.1359 79.1753 18.6171 78.7628 18.4046 78.2113C18.1921 77.6597 18.3218 77.005 18.739 76.5644L22.9061 72.3972C23.046 72.2622 23.2328 72.1866 23.4272 72.1866C23.6216 72.1866 23.8085 72.2622 23.9483 72.3972L30.3232 78.7722C30.4115 78.8931 30.459 79.0389 30.459 79.1886C30.459 79.3383 30.4115 79.4841 30.3232 79.605C30.2268 79.7609 30.0794 79.8785 29.906 79.9378V79.9394ZM19.739 77.6066L28.0717 78.1488L23.4889 73.8566L19.739 77.6066Z" fill="#FF6C37"/>
<path id="Vector_18" d="M48.0308 55.3583L39.6138 56.6505L44.4887 51.8177L48.0308 55.3583Z" fill="white"/>
<path id="Vector_19" d="M39.6138 57.4396C39.4739 57.4432 39.336 57.4056 39.2174 57.3314C39.0987 57.2573 39.0046 57.1498 38.9466 57.0224C38.8579 56.9017 38.8101 56.7558 38.8101 56.606C38.8101 56.4562 38.8579 56.3103 38.9466 56.1896L43.7793 51.3146C43.9259 51.1768 44.1196 51.1001 44.3207 51.1001C44.5219 51.1001 44.7155 51.1768 44.8621 51.3146L48.4058 54.8552C48.4766 54.9675 48.5141 55.0975 48.5141 55.2302C48.5141 55.3629 48.4766 55.4929 48.4058 55.6052C48.371 55.742 48.2976 55.8659 48.1942 55.9621C48.0909 56.0583 47.962 56.1226 47.823 56.1474L39.4904 57.4396H39.6138ZM44.4887 52.8974L41.7809 55.6052L46.448 54.8974L44.4887 52.8974Z" fill="#FF6C37"/>
<path id="Vector_20" d="M48.0309 55.3553L42.156 56.1053C41.9988 56.141 41.8342 56.1251 41.6868 56.0599C41.5393 55.9947 41.4168 55.8838 41.3374 55.7435C41.2579 55.6032 41.2258 55.441 41.2458 55.281C41.2657 55.1211 41.3367 54.9718 41.4482 54.8553L44.4903 51.8131L48.0309 55.3553Z" fill="white"/>
<path id="Vector_21" d="M41.9888 56.899C41.7165 56.8964 41.4497 56.8217 41.2156 56.6826C40.9815 56.5434 40.7884 56.3448 40.656 56.1068C40.4969 55.8216 40.4352 55.4922 40.4803 55.1688C40.5254 54.8453 40.6749 54.5454 40.906 54.3146L43.9482 51.2725C44.0948 51.1347 44.2884 51.058 44.4896 51.058C44.6907 51.058 44.8844 51.1347 45.031 51.2725L48.5731 54.8146C48.6785 54.9144 48.7526 55.0426 48.7865 55.1837C48.8204 55.3248 48.8127 55.4727 48.7642 55.6095C48.7158 55.7463 48.6287 55.8661 48.5135 55.9543C48.3983 56.0426 48.26 56.0956 48.1153 56.1068L42.2826 56.8568L41.9888 56.899ZM41.9888 55.3568L46.406 54.8146L44.4482 52.8568L41.9482 55.3568H41.9888ZM78.2385 25.232C78.16 25.1005 78.036 25.0024 77.8899 24.9563C77.7439 24.9103 77.5861 24.9194 77.4463 24.982C77.3773 25.0169 77.3161 25.0654 77.2662 25.1244C77.2162 25.1835 77.1787 25.2519 77.1557 25.3257C77.1093 25.4747 77.1239 25.636 77.1963 25.7742C77.4885 26.3882 77.4072 27.1148 76.9885 27.6492C76.9365 27.7006 76.8957 27.7624 76.8688 27.8304C76.8419 27.8985 76.8295 27.9714 76.8322 28.0445C76.8338 28.191 76.8894 28.3318 76.9885 28.4398C77.0954 28.482 77.2144 28.482 77.3213 28.4398C77.4183 28.4642 77.5202 28.4615 77.6158 28.432C77.7114 28.4025 77.7971 28.3474 77.8635 28.2726C78.2066 27.8525 78.4239 27.344 78.4902 26.8057C78.5566 26.2674 78.4693 25.7213 78.2385 25.2304V25.232Z" fill="#FF6C37"/>
</g>
</g>
</svg>
