<svg width="97" height="101" viewBox="0 0 97 101" fill="none" xmlns="http://www.w3.org/2000/svg">
<path d="M96.4716 60.0682C95.8902 58.3025 94.3673 57.0727 92.3978 56.7776C91.4691 56.6386 90.4055 56.6979 89.1469 56.958C86.9532 57.4119 85.3257 57.5847 84.138 57.6181C88.6212 50.0279 92.2667 41.3723 94.3654 33.2245C97.759 20.0497 95.9455 14.0478 93.8264 11.333C88.2183 4.14725 80.0361 0.286992 70.1652 0.168875C64.8994 0.10431 60.2768 1.14685 57.8653 1.89657C55.62 1.4993 53.2059 1.2775 50.6728 1.23648C45.9244 1.16053 41.729 2.19851 38.1442 4.33183C36.1595 3.65883 32.9742 2.7101 29.2958 2.1047C20.6444 0.680462 13.6716 1.79023 8.57139 5.40324C2.3955 9.77774 -0.467472 17.3782 0.0620198 27.9936C0.230185 31.3639 2.1103 41.6184 5.0706 51.3435C6.77195 56.9333 8.58616 61.5752 10.4629 65.1415C13.1243 70.1985 15.9722 73.1765 19.1692 74.246C20.961 74.8446 24.2168 75.2639 27.6411 72.404C28.0751 72.9312 28.6542 73.4549 29.4227 73.9414C30.3987 74.5586 31.5922 75.063 32.7841 75.3619C37.0795 76.4386 41.1029 76.1693 44.5356 74.66C44.5568 75.2722 44.573 75.8571 44.5867 76.3622C44.6094 77.1815 44.6321 77.9847 44.6621 78.736C44.8654 83.8154 45.2101 87.7649 46.2312 90.5283C46.2873 90.6802 46.3626 90.9119 46.4422 91.1576C46.9516 92.7216 47.8034 95.3399 49.9706 97.3905C52.2147 99.5147 54.9292 100.166 57.4153 100.166C58.6622 100.166 59.8518 100.002 60.8953 99.7779C64.6146 98.9784 68.8388 97.7608 71.8945 93.3977C74.7836 89.2731 76.188 83.0607 76.4422 73.2722C76.4751 72.9953 76.5054 72.731 76.5346 72.4792L76.5952 71.9619L77.2758 72.0219L77.4512 72.0337C81.2394 72.2069 85.8715 71.4013 88.7163 70.0762C90.9642 69.0303 98.1676 65.2167 96.4716 60.0682Z" fill="black"/>
<path d="M89.9943 61.0694C78.7303 63.3995 77.9558 59.5753 77.9558 59.5753C89.8485 41.8794 94.8204 19.417 90.5303 13.9195C78.8254 -1.07684 58.5641 6.0155 58.2259 6.19932L58.1172 6.21907C55.8917 5.75572 53.4014 5.47999 50.6021 5.43403C45.5056 5.35048 41.6393 6.77396 38.7055 9.00489C38.7055 9.00489 2.56141 -5.92647 4.24268 27.7836C4.60022 34.9549 14.4932 82.0464 26.2927 67.8226C30.6056 62.6213 34.773 58.2236 34.773 58.2236C36.8424 59.6023 39.3202 60.3057 41.9177 60.0531L42.1196 59.8814C42.0567 60.5271 42.0855 61.1587 42.2002 61.9065C39.1604 65.3121 40.0539 65.9099 33.9772 67.1644C27.8282 68.4352 31.4403 70.6973 33.7988 71.289C36.658 72.0057 43.2725 73.0213 47.7417 66.7474L47.5637 67.4633C48.7545 68.42 49.5908 73.6855 49.4507 78.4592C49.3105 83.2325 49.217 86.5098 50.1551 89.0696C51.0941 91.6294 52.0292 97.3891 60.0178 95.6728C66.6925 94.2383 70.1516 90.5212 70.633 84.3206C70.9743 79.9127 71.7473 80.5644 71.7958 76.6233L72.4158 74.7577C73.1305 68.7824 72.5294 66.8545 76.6415 67.7512L77.6414 67.8393C80.6676 67.9772 84.6293 67.3509 86.9545 66.2673C91.9608 63.9377 94.9302 60.0474 89.9936 61.0694H89.9943Z" fill="#336791"/>
<path d="M40.8212 30.9906C39.8062 30.8489 38.8869 30.98 38.4218 31.3332C38.1605 31.5318 38.0794 31.762 38.0575 31.9203C37.9991 32.34 38.2923 32.8041 38.4726 33.0434C38.9824 33.7209 39.727 34.1866 40.4641 34.2891C40.5709 34.3043 40.6773 34.3111 40.783 34.3111C42.012 34.3111 43.1297 33.3514 43.2282 32.6431C43.3513 31.7559 42.0669 31.1645 40.8212 30.991V30.9906ZM74.4482 31.0187C74.3512 30.3233 73.1172 30.125 71.9461 30.2884C70.7766 30.4517 69.6426 30.9811 69.7373 31.678C69.813 32.22 70.789 33.1452 71.9442 33.1452C72.042 33.1452 72.1404 33.1387 72.2397 33.1247C73.0108 33.0176 73.5766 32.5265 73.8456 32.2435C74.2546 31.8121 74.4917 31.3313 74.4482 31.0187Z" fill="white"/>
<path d="M93.7425 60.8047C93.313 59.5024 91.9306 59.0835 89.6339 59.559C82.8145 60.9703 80.3723 59.9927 79.5705 59.4006C84.8711 51.3033 89.2316 41.5151 91.584 32.3829C92.6983 28.057 93.3138 24.0395 93.3642 20.7649C93.4198 17.1709 92.8093 14.5297 91.5503 12.9164C86.4743 6.41233 79.0243 2.9235 70.0063 2.82779C63.8065 2.75791 58.5684 4.34888 57.5529 4.79629C55.4145 4.26305 53.0833 3.93566 50.5453 3.89389C45.8912 3.81831 41.8681 4.93567 38.5374 7.21332C37.0906 6.67325 33.3515 5.38611 28.7789 4.64741C20.8736 3.37128 14.5917 4.33825 10.1088 7.52286C4.75968 11.3231 2.29022 18.1162 2.76858 27.7129C2.92955 30.9416 4.76422 40.8741 7.65939 50.3861C11.4704 62.9057 15.6131 69.9932 19.9718 71.4512C20.482 71.6217 21.0702 71.741 21.719 71.741C23.309 71.741 25.2584 71.0224 27.2866 68.5773C29.7604 65.6014 32.3195 62.6978 34.9605 59.87C36.6739 60.7922 38.5563 61.3072 40.4815 61.3588C40.4853 61.4093 40.4902 61.4599 40.4948 61.51C40.1634 61.9063 39.8389 62.3083 39.5214 62.7158C38.1874 64.4139 37.9098 64.7675 33.6159 65.654C32.3944 65.9069 29.1504 66.5772 29.1027 68.8576C29.0512 71.349 32.9376 72.3954 33.3803 72.5063C34.9234 72.8937 36.41 73.0847 37.8276 73.0847C41.2754 73.0847 44.3096 71.9483 46.7343 69.7497C46.6597 78.6317 47.029 87.3837 48.0925 90.0503C48.9636 92.2334 51.0915 97.5684 57.8128 97.568C58.799 97.568 59.8845 97.4529 61.0787 97.1962C68.0936 95.6884 71.1399 92.5794 72.3181 85.7251C72.9488 82.062 74.0309 73.3149 74.5399 68.6228C75.614 68.959 76.9968 69.1128 78.4918 69.1124C81.6097 69.1124 85.2074 68.4481 87.4636 67.398C89.9982 66.2176 94.572 63.3212 93.7425 60.8047ZM77.0374 29.0992C77.0143 30.4843 76.8241 31.7418 76.6227 33.0544C76.4056 34.4661 76.1814 35.9257 76.125 37.6974C76.0693 39.4217 76.284 41.2143 76.4916 42.9481C76.9113 46.4499 77.3419 50.0549 75.675 53.6121C75.3981 53.1201 75.1515 52.6116 74.9365 52.0895C74.7293 51.5859 74.2793 50.7769 73.6563 49.6573C71.2327 45.2987 65.5571 35.092 68.4625 30.9271C69.3279 29.6875 71.5243 28.4129 77.0374 29.0992ZM70.3547 5.6326C78.435 5.81149 84.8268 8.84265 89.3521 14.6414C92.8229 19.0892 89.001 39.3275 77.9365 56.7872C77.8253 56.6453 77.7134 56.5039 77.601 56.363L77.4608 56.1875C80.32 51.4526 79.761 46.7677 79.2633 42.6143C79.0588 40.9097 78.8656 39.2998 78.9148 37.7874C78.9656 36.1847 79.1769 34.8098 79.3815 33.4805C79.6326 31.8425 79.8882 30.1474 79.8178 28.1493C79.8704 27.9396 79.8916 27.692 79.864 27.3981C79.6841 25.482 77.5025 19.7474 73.056 14.5571C70.6236 11.7181 67.0766 8.54109 62.2335 6.39827C64.3167 5.9653 67.1653 5.56158 70.3547 5.6326ZM25.1402 66.7877C22.9056 69.4819 21.3626 68.9654 20.8551 68.796C17.5486 67.6901 13.7118 60.682 10.3292 49.5691C7.40222 39.9534 5.69178 30.2841 5.55619 27.5728C5.12896 18.9977 7.20186 13.0216 11.7177 9.81C19.067 4.58398 31.1499 7.71199 36.0051 9.29841C35.9354 9.36753 35.8627 9.4321 35.7937 9.50236C27.8263 17.5708 28.0153 31.3559 28.035 32.1987C28.0343 32.5238 28.0615 32.9841 28.0987 33.6173C28.2358 35.9359 28.491 40.2512 27.8093 45.138C27.176 49.6793 28.5721 54.1241 31.6388 57.333C31.9536 57.6617 32.2844 57.9745 32.63 58.2703C31.265 59.7363 28.2983 62.9783 25.1402 66.7877ZM33.6542 55.3964C31.1824 52.81 30.0598 49.2125 30.5738 45.5254C31.2934 40.3632 31.0279 35.8672 30.8851 33.4517C30.8651 33.1136 30.8472 32.8174 30.837 32.5838C32.0009 31.5489 37.3947 28.651 41.2413 29.5348C42.9964 29.9378 44.066 31.1364 44.5107 33.198C46.812 43.8714 44.8152 48.32 43.2108 51.895C42.8801 52.6315 42.5677 53.3276 42.301 54.0477L42.0942 54.6045C41.5708 56.012 41.0837 57.3208 40.7819 58.5635C38.1541 58.5559 35.5979 57.4302 33.6542 55.396V55.3964ZM34.0575 69.7907C33.2902 69.5985 32.6001 69.2647 32.1952 68.9878C32.5334 68.8283 33.1353 68.6111 34.1791 68.3953C39.2305 67.3528 40.0107 66.6168 41.7144 64.4477C42.1048 63.9502 42.5476 63.3866 43.1608 62.6999L43.1616 62.6991C44.0747 61.6737 44.4925 61.8476 45.25 62.1629C45.8639 62.4173 46.462 63.1891 46.7044 64.0383C46.8192 64.4394 46.9479 65.2005 46.5264 65.793C42.9676 70.7896 37.7818 70.7254 34.0575 69.7907ZM60.4939 94.4594C54.3142 95.7871 52.1262 92.6253 50.6843 89.0108C49.7537 86.6773 49.2962 76.1546 49.6208 64.5339C49.6249 64.3794 49.603 64.2301 49.5605 64.0896C49.5226 63.8121 49.4649 63.5377 49.3878 63.2684C48.9053 61.5776 47.7293 60.1632 46.3184 59.5768C45.7579 59.344 44.7292 58.9167 43.493 59.2339C43.7566 58.1446 44.2137 56.9144 44.7095 55.5825L44.9174 55.0223C45.1515 54.3907 45.4454 53.7363 45.756 53.0435C47.435 49.3033 49.7344 44.1802 47.2388 32.6066C46.3041 28.2716 43.1824 26.1546 38.4503 26.6464C35.6134 26.9408 33.0179 28.0885 31.7233 28.7467C31.4449 28.888 31.1904 29.0247 30.9525 29.1577C31.3139 24.79 32.6789 16.6274 37.7852 11.4629C41.0004 8.21181 45.2822 6.60602 50.4991 6.69262C60.7784 6.86125 67.3702 12.1511 71.0902 16.5594C74.296 20.3577 76.0318 24.1842 76.7245 26.248C71.5148 25.7167 67.9716 26.7478 66.1756 29.3229C62.268 34.9241 68.3132 45.7955 71.2186 51.0203C71.7515 51.9778 72.2113 52.8054 72.356 53.1571C73.3021 55.4564 74.527 56.9915 75.4212 58.1119C75.6955 58.4553 75.9613 58.7884 76.1636 59.0793C74.5857 59.5354 71.7515 60.5894 72.0098 65.8575C71.8015 68.5009 70.3202 80.877 69.5677 85.2496C68.5742 91.0264 66.4543 93.1779 60.4939 94.4597V94.4594ZM86.2884 64.8594C84.6749 65.6103 81.9748 66.1735 79.4099 66.2947C76.5768 66.4276 75.1345 65.9764 74.7952 65.6988C74.6361 62.4158 75.8545 62.0728 77.1442 61.7098C77.3468 61.6528 77.5445 61.597 77.7354 61.5301C77.854 61.627 77.9839 61.7231 78.1263 61.8172C80.4033 63.3243 84.4647 63.4868 90.1986 62.3L90.2615 62.2874C89.488 63.0125 88.1647 63.9855 86.2884 64.8594Z" fill="white"/>
</svg>
