<svg width="100" height="98" viewBox="0 0 100 98" fill="none" xmlns="http://www.w3.org/2000/svg">
<path d="M17.7083 0.166016H82.2917C92.0833 0.166016 100 8.08268 100 17.8743V79.9577C100 89.7493 92.0833 97.666 82.2917 97.666H17.7083C7.91667 97.666 0 89.7493 0 79.9577V17.8743C0 8.08268 7.91667 0.166016 17.7083 0.166016Z" fill="#001E36"/>
<path d="M22.5 68.541V25.666C22.5 25.3744 22.625 25.2077 22.9167 25.2077C23.625 25.2077 24.2917 25.2077 25.25 25.166C26.25 25.1244 27.2917 25.1244 28.4167 25.0827C29.5417 25.041 30.75 25.041 32.0417 24.9994C33.3333 24.9577 34.5833 24.9577 35.8333 24.9577C39.25 24.9577 42.0833 25.3744 44.4167 26.2494C46.5 26.9577 48.4167 28.1244 50 29.666C51.3333 30.9994 52.375 32.6244 53.0417 34.416C53.6667 36.166 54 37.9577 54 39.8327C54 43.416 53.1667 46.3744 51.5 48.7077C49.8333 51.041 47.5 52.791 44.7917 53.791C41.9583 54.8327 38.8333 55.2077 35.4167 55.2077C34.4167 55.2077 33.75 55.2077 33.3333 55.166C32.9167 55.1244 32.3333 55.1244 31.5417 55.1244V68.4994C31.5833 68.791 31.375 69.041 31.0833 69.0827C31.0417 69.0827 31 69.0827 30.9167 69.0827H23C22.6667 69.0827 22.5 68.916 22.5 68.541ZM31.5833 33.2494V47.2494C32.1667 47.291 32.7083 47.3327 33.2083 47.3327H35.4167C37.0417 47.3327 38.6667 47.0827 40.2083 46.5827C41.5417 46.2077 42.7083 45.416 43.625 44.3744C44.5 43.3327 44.9167 41.916 44.9167 40.0827C44.9583 38.791 44.625 37.4994 43.9583 36.3744C43.25 35.291 42.25 34.4577 41.0417 33.9994C39.5 33.3744 37.8333 33.1244 36.125 33.166C35.0417 33.166 34.0833 33.166 33.2917 33.2077C32.4583 33.166 31.875 33.2077 31.5833 33.2494Z" fill="#31A8FF"/>
<path d="M80 44.7077C78.75 44.041 77.4166 43.5827 76 43.291C74.4583 42.9577 72.9166 42.7493 71.3333 42.7493C70.5 42.7077 69.625 42.8327 68.8333 43.041C68.2916 43.166 67.8333 43.4577 67.5416 43.8743C67.3333 44.2077 67.2083 44.6243 67.2083 44.9993C67.2083 45.3743 67.375 45.7493 67.625 46.0827C68 46.541 68.5 46.916 69.0416 47.2077C70 47.7077 71 48.166 72 48.5827C74.25 49.3327 76.4166 50.3743 78.4166 51.6243C79.7916 52.4993 80.9166 53.666 81.7083 55.0827C82.375 56.416 82.7083 57.8743 82.6666 59.3743C82.7083 61.3327 82.125 63.291 81.0416 64.916C79.875 66.5827 78.25 67.8743 76.375 68.6243C74.3333 69.4993 71.8333 69.9577 68.8333 69.9577C66.9166 69.9577 65.0416 69.791 63.1666 69.416C61.7083 69.166 60.25 68.7077 58.9166 68.0827C58.625 67.916 58.4166 67.6243 58.4583 67.291V60.041C58.4583 59.916 58.5 59.7493 58.625 59.666C58.75 59.5827 58.875 59.6243 59 59.7077C60.625 60.666 62.3333 61.3327 64.1666 61.7493C65.75 62.166 67.4166 62.3743 69.0833 62.3743C70.6666 62.3743 71.7916 62.166 72.5416 61.791C73.2083 61.4993 73.6666 60.791 73.6666 60.041C73.6666 59.4577 73.3333 58.916 72.6666 58.3743C72 57.8327 70.625 57.2077 68.5833 56.416C66.4583 55.666 64.5 54.666 62.6666 53.416C61.375 52.4993 60.2916 51.291 59.5 49.8743C58.8333 48.541 58.5 47.0827 58.5416 45.6243C58.5416 43.8327 59.0416 42.1243 59.9583 40.5827C61 38.916 62.5416 37.5827 64.3333 36.7493C66.2916 35.7493 68.75 35.291 71.7083 35.291C73.4166 35.291 75.1666 35.416 76.875 35.666C78.125 35.8327 79.3333 36.166 80.4583 36.6243C80.625 36.666 80.7916 36.8327 80.875 36.9993C80.9166 37.166 80.9583 37.3327 80.9583 37.4993V44.291C80.9583 44.4577 80.875 44.6243 80.75 44.7077C80.375 44.791 80.1666 44.791 80 44.7077Z" fill="#31A8FF"/>
</svg>
