<svg width="101" height="101" viewBox="0 0 101 101" fill="none" xmlns="http://www.w3.org/2000/svg">
<g id="reactjs">
<g id="reactjs_2">
<path id="Vector" d="M50.3067 59.0031C55.1757 59.0031 59.1229 55.0559 59.1229 50.1868C59.1229 45.3178 55.1757 41.3706 50.3067 41.3706C45.4376 41.3706 41.4904 45.3178 41.4904 50.1868C41.4904 55.0559 45.4376 59.0031 50.3067 59.0031Z" fill="#61DAFB"/>
<path id="Vector_2" d="M50.3066 68.2493C76.4333 68.2493 97.6132 60.1625 97.6132 50.1868C97.6132 40.2111 76.4333 32.1243 50.3066 32.1243C24.1799 32.1243 3 40.2111 3 50.1868C3 60.1625 24.1799 68.2493 50.3066 68.2493Z" stroke="#61DAFB" stroke-width="5"/>
<path id="Vector_3" d="M34.664 59.218C47.7274 81.8444 65.3207 96.1433 73.9599 91.1555C82.5991 86.1677 79.0126 63.7819 65.9492 41.1555C52.8858 18.5291 35.2925 4.2302 26.6533 9.21803C18.0141 14.2059 21.6006 36.5916 34.664 59.218Z" stroke="#61DAFB" stroke-width="5"/>
<path id="Vector_4" d="M34.664 41.1555C21.6007 63.7819 18.0141 86.1676 26.6533 91.1555C35.2925 96.1433 52.8859 81.8444 65.9492 59.218C79.0126 36.5916 82.5991 14.2058 73.9599 9.218C65.3208 4.23017 47.7274 18.5291 34.664 41.1555Z" stroke="#61DAFB" stroke-width="5"/>
</g>
</g>
</svg>
