<svg width="100" height="90" viewBox="0 0 100 90" fill="none" xmlns="http://www.w3.org/2000/svg">
<path fill-rule="evenodd" clip-rule="evenodd" d="M61.711 55.8448L59.7928 59.1756C59.215 60.179 58.1453 60.7973 56.9874 60.7973H42.2932C41.1353 60.7973 40.0656 60.179 39.4877 59.1756L37.5694 55.8448H61.711ZM67.0809 46.5205L63.6987 52.3932H35.5817L32.1996 46.5205H67.0809ZM63.823 37.4026L67.0863 43.0691H32.1942L35.4576 37.4026H63.823ZM56.9874 28.783C58.1453 28.783 59.215 29.4013 59.7928 30.4047L61.8352 33.9509H37.4453L39.4877 30.4047C40.0656 29.4013 41.1353 28.783 42.2932 28.783H56.9874Z" fill="#00435B"/>
<path d="M20.9074 27.2375C19.2796 19.3445 18.9303 13.2907 19.9824 8.89478C20.6082 6.28034 21.7523 4.14751 23.4919 2.60872C25.3285 0.98415 27.6505 0.186973 30.2596 0.186973C34.5638 0.186973 39.0886 2.14974 43.9241 5.87847C45.8964 7.39935 47.9434 9.23253 50.0693 11.379C50.2385 11.1612 50.4298 10.9557 50.6429 10.7658C56.6531 5.40984 61.7133 2.08209 66.0413 0.799009C68.6147 0.0360895 71.0308 -0.0365947 73.231 0.703845C75.5535 1.48543 77.404 3.10107 78.7096 5.36407C80.8644 9.09884 81.4326 14.0064 80.6293 20.0659C80.3018 22.5358 79.742 25.2263 78.9511 28.1414C79.2495 28.1774 79.5486 28.2436 79.8448 28.3417C87.4705 30.8688 92.8703 33.5863 96.1395 36.692C98.0846 38.5398 99.3547 40.597 99.8139 42.8741C100.299 45.2776 99.826 47.6884 98.5219 49.9497C96.3712 53.6791 92.4167 56.6204 86.7829 58.9501C84.5208 59.8856 81.9614 60.7328 79.1017 61.4948C79.2322 61.7894 79.3334 62.1023 79.4011 62.4305C81.0289 70.3235 81.3782 76.3773 80.326 80.7732C79.7003 83.3876 78.5562 85.5205 76.8166 87.0593C74.98 88.6838 72.6579 89.481 70.0489 89.481C65.7447 89.481 61.2199 87.5182 56.3844 83.7895C54.3911 82.2524 52.3215 80.3964 50.1713 78.2203C49.95 78.5664 49.6784 78.888 49.3571 79.1743C43.3469 84.5303 38.2867 87.8581 33.9587 89.1412C31.3853 89.9041 28.9692 89.9768 26.769 89.2363C24.4465 88.4547 22.596 86.8391 21.2904 84.5761C19.1356 80.8413 18.5674 75.9338 19.3707 69.8743C19.71 67.3151 20.2987 64.5191 21.1356 61.4818C20.8085 61.4486 20.48 61.3794 20.1552 61.2718C12.5295 58.7447 7.12969 56.0272 3.86052 52.9215C1.91544 51.0737 0.645278 49.0166 0.186124 46.7394C-0.298514 44.3359 0.174045 41.9251 1.47813 39.6638C3.62884 35.9345 7.58335 32.9931 13.2171 30.6634C15.5466 29.7001 18.1914 28.8303 21.1547 28.0509C21.0491 27.7924 20.9658 27.5207 20.9074 27.2375Z" fill="#002B3B"/>
<path fill-rule="evenodd" clip-rule="evenodd" d="M40.4917 24.723C44.4446 24.4084 48.519 24.2694 52.7148 24.3062C53.5094 24.3132 54.1592 23.6746 54.1662 22.88C54.1691 22.5453 54.0553 22.2201 53.8443 21.9603C44.2944 10.2019 36.4307 4.32263 30.2534 4.32263C23.876 4.32263 22.0566 11.3525 24.7953 25.4122C24.9454 26.1829 25.6856 26.6909 26.4587 26.5539C31.3344 25.6898 36.0121 25.0795 40.4917 24.723Z" fill="#FF4154"/>
<path fill-rule="evenodd" clip-rule="evenodd" d="M62.6818 26.6583C64.9646 29.9478 67.1556 33.4314 69.2547 37.1091C69.6487 37.7993 70.5275 38.0394 71.2176 37.6455C71.507 37.4803 71.7301 37.2198 71.8488 36.9084C77.2509 22.7391 78.3862 12.9673 75.2548 7.59311C72.0234 2.04732 64.9825 3.96491 54.1322 13.3459C53.5356 13.8617 53.4654 14.7615 53.9747 15.3636C57.1985 19.1744 60.1009 22.9393 62.6818 26.6583Z" fill="#FF4154"/>
<path fill-rule="evenodd" clip-rule="evenodd" d="M72.2631 46.4536C70.5546 50.0444 68.6342 53.6533 66.5019 57.2803C66.0992 57.9654 66.3281 58.8472 67.0131 59.2499C67.3031 59.4204 67.6438 59.4839 67.9757 59.4293C82.8629 56.9816 91.8526 53.0748 94.9449 47.709C98.1386 42.1672 93.0027 37.0879 79.5372 32.471C78.7954 32.2166 77.9866 32.6031 77.7184 33.3401C76.0193 38.01 74.2008 42.3811 72.2631 46.4536Z" fill="#FF4154"/>
<path fill-rule="evenodd" clip-rule="evenodd" d="M60.0479 65.0374C56.095 65.352 52.0206 65.4909 47.8248 65.4542C47.0302 65.4472 46.3803 66.0858 46.3734 66.8804C46.3705 67.2151 46.4843 67.5403 46.6953 67.8001C56.2452 79.5585 64.1088 85.4377 70.2861 85.4377C76.6636 85.4377 78.483 78.4079 75.7443 64.3481C75.5942 63.5775 74.854 63.0695 74.0809 63.2065C69.2051 64.0706 64.5275 64.6809 60.0479 65.0374Z" fill="#FF4154"/>
<path fill-rule="evenodd" clip-rule="evenodd" d="M37.3182 63.2819C35.0353 59.9924 32.8444 56.5088 30.7452 52.8311C30.3513 52.1409 29.4725 51.9008 28.7824 52.2947C28.493 52.4599 28.2699 52.7204 28.1512 53.0318C22.7491 67.2011 21.6138 76.9729 24.7452 82.3471C27.9766 87.8929 35.0175 85.9753 45.8678 76.5943C46.4644 76.0785 46.5346 75.1787 46.0253 74.5766C42.8015 70.7658 39.8991 67.0009 37.3182 63.2819Z" fill="#FF4154"/>
<path fill-rule="evenodd" clip-rule="evenodd" d="M27.7369 42.9471C29.4454 39.3563 31.3658 35.7473 33.4981 32.1203C33.9008 31.4353 33.6719 30.5535 32.9869 30.1507C32.6969 29.9802 32.3562 29.9168 32.0243 29.9713C17.1371 32.4191 8.14738 36.3258 5.05508 41.6917C1.86137 47.2334 6.99727 52.3128 20.4628 56.9297C21.2046 57.184 22.0134 56.7975 22.2816 56.0606C23.9807 51.3907 25.7992 47.0195 27.7369 42.9471Z" fill="#FF4154"/>
<path fill-rule="evenodd" clip-rule="evenodd" d="M43.4744 28.9629H55.8088C57.6126 28.9629 59.2787 29.9277 60.1766 31.4922L66.3698 42.2835C67.2607 43.8359 67.2607 45.7445 66.3698 47.2969L60.1766 58.0883C59.2787 59.6528 57.6126 60.6176 55.8088 60.6176H43.4744C41.6706 60.6176 40.0045 59.6528 39.1066 58.0883L32.9134 47.2969C32.0225 45.7445 32.0225 43.8359 32.9134 42.2835L39.1066 31.4922C40.0045 29.9277 41.6706 28.9629 43.4744 28.9629ZM53.9289 32.22C55.7337 32.22 57.4005 33.1858 58.298 34.7516L62.6167 42.2859C63.5058 43.8371 63.5058 45.7434 62.6167 47.2946L58.298 54.8289C57.4005 56.3947 55.7337 57.3605 53.9289 57.3605H45.3543C43.5495 57.3605 41.8827 56.3947 40.9852 54.8289L36.6665 47.2946C35.7774 45.7434 35.7774 43.8371 36.6665 42.2859L40.9852 34.7516C41.8827 33.1858 43.5495 32.22 45.3543 32.22H53.9289ZM51.9027 35.7824H47.3805C45.5776 35.7824 43.9122 36.7462 43.014 38.3095L40.7319 42.2814C39.8393 43.8349 39.8393 45.7456 40.7319 47.2991L43.014 51.271C43.9122 52.8342 45.5776 53.7981 47.3805 53.7981H51.9027C53.7056 53.7981 55.371 52.8342 56.2692 51.271L58.5514 47.2991C59.4439 45.7456 59.4439 43.8349 58.5514 42.2814L56.2692 38.3095C55.371 36.7462 53.7056 35.7824 51.9027 35.7824ZM49.9517 39.1921C51.7533 39.1921 53.4176 40.1545 54.3163 41.716L54.6399 42.2781C55.535 43.8332 55.535 45.7472 54.6399 47.3024L54.3163 47.8645C53.4176 49.4259 51.7533 50.3883 49.9517 50.3883H49.3315C47.5299 50.3883 45.8656 49.4259 44.9669 47.8645L44.6433 47.3024C43.7482 45.7472 43.7482 43.8332 44.6433 42.2781L44.9669 41.716C45.8656 40.1545 47.5299 39.1921 49.3315 39.1921H49.9517ZM49.6424 42.551C48.8406 42.551 48.1011 42.9777 47.7007 43.6706C47.3004 44.3634 47.3004 45.2171 47.7007 45.9098C48.1011 46.6027 48.8406 47.0295 49.6408 47.0295C50.4426 47.0295 51.1821 46.6027 51.5825 45.9098C51.9828 45.2171 51.9828 44.3634 51.5825 43.6706C51.1821 42.9777 50.4426 42.551 49.6424 42.551ZM31.4748 44.7902H35.5064H31.4748Z" fill="#FFD94C"/>
</svg>
