<svg width="100" height="55" viewBox="0 0 100 55" fill="none" xmlns="http://www.w3.org/2000/svg">
<path d="M30.6361 36.5259C25.6683 36.5259 21.619 32.4444 21.619 27.4409C21.619 22.4373 25.6683 18.3558 30.6361 18.3558C35.604 18.3558 39.6533 22.4373 39.6533 27.4409C39.6533 32.4409 35.6004 36.5259 30.6361 36.5259ZM8.98501 54.5638C4.02433 54.5531 -0.0142581 50.4537 3.7837e-05 45.4501C0.00287096 43.0503 0.956959 40.7495 2.65321 39.0519C4.34947 37.3543 6.64953 36.3984 9.04934 36.3937C14.0136 36.4044 18.0522 40.5038 18.0343 45.5109C18.0296 47.9098 17.0748 50.2091 15.3788 51.9058C13.6829 53.6024 11.3839 54.5581 8.98501 54.5638ZM91.0506 54.5638C88.6511 54.5685 86.3474 53.6223 84.644 51.9323C82.9405 50.2423 81.9762 47.9461 81.962 45.5466C81.937 40.5359 85.9577 36.4223 90.9148 36.3973C93.3131 36.3934 95.6153 37.3396 97.3179 39.0287C99.0204 40.7179 99.9847 43.0126 99.9998 45.4108C100.028 50.418 96.0041 54.5352 91.0506 54.5638Z" fill="white"/>
<path d="M74.1493 18.8847C71.6976 18.1199 69.0778 17.8018 66.5081 17.523C62.5339 17.0942 60.9506 15.5431 60.2787 11.5617C59.8999 9.33864 59.3709 7.05845 58.4095 5.03915C56.5761 1.19713 52.2801 -0.525527 47.9664 0.457316C44.3209 1.29005 41.2938 4.91764 41.1258 8.64172C40.9328 12.8876 43.3631 16.5152 47.5375 17.7661C49.521 18.3629 51.6297 18.6596 53.699 18.8133C57.4982 19.0884 58.7669 20.2214 59.7926 21.9512C60.4431 23.0448 61.0686 24.1206 61.0686 27.3729C61.0686 30.6288 60.436 31.7046 59.7926 32.7946C58.7669 34.5244 57.4982 35.6538 53.699 35.9362C51.6261 36.0863 49.5175 36.3865 47.5375 36.9833C43.3631 38.2378 40.9328 41.8582 41.1258 46.1113C41.2938 49.8318 44.3245 53.4594 47.9664 54.2921C52.2801 55.2785 56.5761 53.5523 58.4095 49.7103C59.3745 47.6945 59.8999 45.4108 60.2787 43.1878C60.9542 39.2063 62.5375 37.6588 66.5081 37.2264C69.0814 36.9476 71.6976 36.6259 74.1493 35.8611C77.8698 34.6996 80.1071 31.2292 80.1071 27.3729C80.1071 23.5202 77.8698 20.0534 74.1493 18.8847Z" fill="#F44250"/>
</svg>
