<svg width="100" height="96" viewBox="0 0 100 96" fill="none" xmlns="http://www.w3.org/2000/svg">
<path d="M69.2895 66.4887C72.9798 66.1067 75.7794 62.9254 75.652 59.1075C75.5251 55.2899 72.3434 52.2356 68.5258 52.2356H68.2715C64.3262 52.3629 61.2723 55.6715 61.3997 59.6165C61.527 61.5254 62.2903 63.1797 63.4356 64.325C59.109 72.8516 52.4918 79.0872 42.5661 84.3047C35.8215 87.868 28.8227 89.1407 21.8238 88.25C16.0973 87.4864 11.6434 84.9415 8.84336 80.7414C4.77148 74.5059 4.38984 67.761 7.82579 61.0164C10.2438 56.1805 14.0609 52.6172 16.4789 50.8356C15.9699 49.1813 15.2063 46.3817 14.8246 44.3457C-3.62735 57.7079 -1.71837 75.7786 3.88086 84.3047C8.08008 90.668 16.6063 94.6129 26.0231 94.6129C28.568 94.6129 31.1129 94.3582 33.6582 93.7223C49.9469 90.5407 62.2907 80.8688 69.2895 66.4887ZM91.6864 50.7086C82.0149 39.3825 67.7626 33.1469 51.4739 33.1469H49.4379C48.2926 30.8563 45.8747 29.329 43.2024 29.329H42.9477C39.0032 29.4563 35.9493 32.7649 36.0762 36.7102C36.2035 40.5278 39.3848 43.5821 43.2024 43.5821H43.4567C46.2563 43.4547 48.6743 41.6731 49.6922 39.2551H51.9829C61.6544 39.2551 70.8165 42.0547 79.0884 47.527C85.4509 51.7266 90.0321 57.1989 92.577 63.8161C94.7403 69.161 94.613 74.3786 92.3224 78.8329C88.7595 85.5774 82.7786 89.268 74.8887 89.268C69.7985 89.268 64.963 87.7407 62.4176 86.5954C61.018 87.868 58.4727 89.9039 56.6911 91.177C62.1633 93.7219 67.7626 95.1219 73.1071 95.1219C85.3235 95.1219 94.3587 88.377 97.7946 81.6325C101.485 74.2512 101.23 61.5254 91.6864 50.7086ZM27.041 68.6516C27.1684 72.4696 30.3496 75.5235 34.1672 75.5235H34.4219C38.3668 75.3965 41.4207 72.0875 41.2934 68.1426C41.1664 64.3247 37.9848 61.2707 34.1672 61.2707H33.9129C33.6582 61.2707 33.2762 61.2707 33.0223 61.3977C27.8047 52.7442 25.6414 43.3274 26.4051 33.1465C26.9137 25.511 29.459 18.8934 33.9129 13.4211C37.6032 8.71255 44.7293 6.42192 49.5653 6.29497C63.054 6.04028 68.7801 22.8383 69.1622 29.5832C70.8165 29.9649 73.6161 30.8559 75.5251 31.4922C73.9977 10.8766 61.2723 0.186768 49.0563 0.186768C37.6032 0.186768 27.041 8.45864 22.8414 20.6754C16.9879 36.9645 20.8055 52.6172 27.9317 64.9614C27.2957 65.852 26.9137 67.252 27.041 68.652V68.6516Z" fill="#764ABC"/>
</svg>
