<svg width="100" height="76" viewBox="0 0 100 76" fill="none" xmlns="http://www.w3.org/2000/svg">
<path d="M86.1078 43.3187C82.6191 43.3369 79.5871 44.1771 77.0482 45.4192C76.1167 43.5744 75.1851 41.9305 75.0207 40.725C74.8381 39.3185 74.6189 38.4601 74.8381 36.7796C75.0573 35.0992 76.0436 32.7065 76.0253 32.5238C76.0071 32.3412 75.8061 31.4827 73.797 31.4644C71.7878 31.4462 70.0526 31.848 69.8516 32.3777C69.6507 32.9074 69.2671 34.1129 69.0114 35.3549C68.6644 37.1815 64.993 43.7022 62.8925 47.1178C62.2167 45.7845 61.6322 44.6155 61.5043 43.684C61.3217 42.2775 61.1025 41.4191 61.3217 39.7386C61.5409 38.0582 62.5272 35.6655 62.5089 35.4828C62.4907 35.3001 62.2898 34.4417 60.2806 34.4234C58.2714 34.4051 56.5362 34.807 56.3352 35.3367C56.1343 35.8664 55.9151 37.1084 55.495 38.3139C55.0749 39.5195 50.1981 50.4056 48.9195 53.2185C48.2619 54.6615 47.6957 55.8122 47.2939 56.5976C47.2939 56.5976 47.2756 56.6524 47.2208 56.7437C46.8738 57.4195 46.6729 57.7848 46.6729 57.7848C46.6729 57.7848 46.6729 57.7848 46.6729 57.8031C46.3989 58.2963 46.1066 58.7529 45.9605 58.7529C45.8509 58.7529 45.65 57.4378 45.997 55.6478C46.7276 51.8669 48.4629 45.9854 48.4446 45.7845C48.4446 45.6749 48.7734 44.652 47.3121 44.1223C45.8874 43.5926 45.376 44.4694 45.2482 44.4694C45.1203 44.4694 45.029 44.7799 45.029 44.7799C45.029 44.7799 46.6181 38.1678 41.9969 38.1678C39.111 38.1678 35.1291 41.3277 33.1565 44.1771C31.9144 44.8529 29.2659 46.2959 26.4348 47.8485C25.3571 48.4512 24.243 49.054 23.2018 49.6202C23.1288 49.5471 23.0557 49.4558 22.9826 49.3828C17.3934 43.41 7.05523 39.1907 7.4936 31.1722C7.65799 28.2497 8.66258 20.5782 27.3481 11.2629C42.7275 3.68276 54.9653 5.78328 57.0841 10.441C60.1162 17.0896 50.5269 29.437 34.636 31.227C28.5719 31.9028 25.3937 29.5648 24.59 28.6881C23.7498 27.7748 23.6219 27.72 23.3114 27.9027C22.8 28.1766 23.1288 28.9986 23.3114 29.4735C23.7863 30.7155 25.7407 32.9074 29.0468 33.985C31.9692 34.9348 39.0745 35.4645 47.6774 32.1402C57.3033 28.4141 64.8286 18.0576 62.6185 9.38156C60.4084 0.577644 45.7961 -2.32655 31.9692 2.58684C23.7498 5.5093 14.8363 10.1122 8.42513 16.1032C0.808465 23.2267 -0.397049 29.4187 0.096116 32.0124C1.86786 41.2181 14.5623 47.2092 19.6401 51.6477C19.3844 51.7938 19.1469 51.9216 18.946 52.0312C16.4071 53.2916 6.72645 58.3511 4.31542 63.7028C1.57561 69.7669 4.75379 74.1141 6.85431 74.6986C13.3751 76.5069 20.0784 73.2556 23.6767 67.8856C27.275 62.5156 26.8366 55.5382 25.1745 52.3418C25.1562 52.3052 25.138 52.2687 25.1014 52.2322C25.759 51.8486 26.4348 51.4467 27.0924 51.0632C28.3892 50.296 29.6678 49.5837 30.7637 48.9992C30.1427 50.6979 29.686 52.7253 29.4669 55.6478C29.1929 59.0817 30.5993 63.5384 32.4441 65.2919C33.2661 66.0591 34.2341 66.0773 34.8551 66.0773C37.0105 66.0773 37.9785 64.2873 39.0562 62.1685C40.3713 59.5748 41.5585 56.5611 41.5585 56.5611C41.5585 56.5611 40.079 64.7074 44.0974 64.7074C45.5587 64.7074 47.0382 62.8078 47.6957 61.8398C47.6957 61.858 47.6957 61.858 47.6957 61.858C47.6957 61.858 47.7322 61.8032 47.8053 61.6754C47.9514 61.4379 48.0428 61.2918 48.0428 61.2918C48.0428 61.2918 48.0428 61.2735 48.0428 61.2553C48.6273 60.2324 49.9424 57.9127 51.8968 54.0587C54.4174 49.0905 56.8467 42.8803 56.8467 42.8803C56.8467 42.8803 57.0659 44.3963 57.8147 46.9169C58.2531 48.3964 59.1664 50.022 59.897 51.5929C59.3125 52.4148 58.9472 52.8714 58.9472 52.8714C58.9472 52.8714 58.9472 52.8714 58.9655 52.8897C58.4906 53.5107 57.9791 54.1866 57.4129 54.8441C55.422 57.2186 53.0475 59.9402 52.7187 60.7256C52.3351 61.6571 52.4265 62.3329 53.1571 62.8809C53.6868 63.2827 54.6366 63.3375 55.6046 63.2827C57.3946 63.1549 58.6549 62.7165 59.276 62.4425C60.244 62.0955 61.3765 61.5658 62.4359 60.7804C64.3903 59.3374 65.5775 57.2734 65.4679 54.5519C65.4131 53.0541 64.92 51.5563 64.3172 50.1499C64.4999 49.8942 64.6643 49.6385 64.8469 49.3828C67.9338 44.8712 70.3265 39.9213 70.3265 39.9213C70.3265 39.9213 70.5457 41.4373 71.2946 43.9579C71.6599 45.2365 72.4088 46.6247 73.0663 47.9763C70.1621 50.3326 68.3721 53.0724 67.7328 54.8624C66.5821 58.1867 67.4771 59.6844 69.1758 60.0315C69.943 60.1959 71.0389 59.8306 71.8426 59.4835C72.8654 59.1547 74.0709 58.5885 75.2216 57.7483C77.176 56.3053 79.0574 54.2962 78.9478 51.5746C78.893 50.3326 78.5642 49.1088 78.1076 47.9215C80.5734 46.8987 83.7516 46.3324 87.8065 46.8073C96.5008 47.8302 98.2178 53.255 97.889 55.5382C97.5602 57.8214 95.7337 59.0634 95.1309 59.447C94.5282 59.8306 94.3273 59.9584 94.382 60.2324C94.4551 60.6342 94.7474 60.616 95.2588 60.5429C95.9711 60.4151 99.8251 58.6981 99.9895 54.4971C100.264 49.127 95.1492 43.2639 86.1078 43.3187ZM19.0373 65.9312C16.1514 69.0728 12.133 70.2601 10.3978 69.2555C8.53473 68.1778 9.26534 63.5384 12.8088 60.2141C14.9641 58.1867 17.7405 56.3053 19.5853 55.1546C20.0054 54.8989 20.6264 54.5336 21.3753 54.077C21.5032 54.0039 21.5762 53.9674 21.5762 53.9674C21.7223 53.876 21.8685 53.7847 22.0146 53.6934C23.3114 58.4424 22.0694 62.6252 19.0373 65.9312ZM40.0425 51.6477C39.0379 54.0952 36.9374 60.3603 35.6588 60.0132C34.5629 59.721 33.8871 54.972 35.4396 50.2778C36.2251 47.9215 37.8872 45.1087 38.8553 44.0127C40.4261 42.2593 42.1613 41.6748 42.5814 42.3871C43.1111 43.3186 40.6635 50.1134 40.0425 51.6477ZM57.3764 59.9402C56.9563 60.1593 56.5544 60.3055 56.3718 60.1959C56.2439 60.1228 56.5544 59.8306 56.5544 59.8306C56.5544 59.8306 58.728 57.4926 59.5865 56.4332C60.0796 55.8122 60.6641 55.0816 61.2852 54.2596C61.2852 54.3327 61.2852 54.424 61.2852 54.4971C61.2852 57.2917 58.5819 59.173 57.3764 59.9402ZM70.7466 56.8898C70.4361 56.6706 70.4909 55.94 71.532 53.6569C71.9339 52.7619 72.8837 51.2641 74.5093 49.8211C74.692 50.4056 74.8198 50.9718 74.8016 51.5015C74.7833 55.0268 72.2627 56.3419 70.7466 56.8898Z" fill="#CD6799"/>
</svg>
