<svg width="100" height="101" viewBox="0 0 100 101" fill="none" xmlns="http://www.w3.org/2000/svg">
<path fill-rule="evenodd" clip-rule="evenodd" d="M36.5913 0.206421C31.0745 0.210498 26.6097 4.68756 26.6138 10.2044C26.6097 15.7212 31.0786 20.1983 36.5954 20.2023H46.5771V10.2085C46.5811 4.69164 42.1122 0.214576 36.5913 0.206421C36.5954 0.206421 36.5954 0.206421 36.5913 0.206421ZM36.5913 26.8731H9.98178C4.46496 26.8771 -0.00394426 31.3542 0.000133214 36.871C-0.00802173 42.3878 4.46088 46.8649 9.9777 46.8731H36.5913C42.1082 46.869 46.5771 42.3919 46.573 36.8751C46.5771 31.3542 42.1082 26.8771 36.5913 26.8731Z" fill="#36C5F0"/>
<path fill-rule="evenodd" clip-rule="evenodd" d="M99.8003 36.871C99.8044 31.3542 95.3355 26.8771 89.8186 26.8731C84.3018 26.8771 79.8329 31.3542 79.837 36.871V46.8731H89.8186C95.3355 46.869 99.8044 42.3919 99.8003 36.871ZM73.1866 36.871V10.2044C73.1907 4.69164 68.7259 0.214576 63.2091 0.206421C57.6923 0.210498 53.2234 4.68756 53.2274 10.2044V36.871C53.2193 42.3878 57.6882 46.8649 63.205 46.8731C68.7218 46.869 73.1907 42.3919 73.1866 36.871Z" fill="#2EB67D"/>
<path fill-rule="evenodd" clip-rule="evenodd" d="M63.205 100.206C68.7218 100.202 73.1907 95.7253 73.1866 90.2085C73.1907 84.6917 68.7218 80.2146 63.205 80.2106H53.2233V90.2085C53.2193 95.7213 57.6882 100.198 63.205 100.206ZM63.205 73.5358H89.8186C95.3354 73.5317 99.8043 69.0546 99.8003 63.5378C99.8084 58.021 95.3395 53.5439 89.8227 53.5358H63.209C57.6922 53.5398 53.2233 58.0169 53.2274 63.5337C53.2233 69.0546 57.6882 73.5317 63.205 73.5358Z" fill="#ECB22E"/>
<path fill-rule="evenodd" clip-rule="evenodd" d="M0.000124858 63.5377C-0.00395261 69.0546 4.46495 73.5316 9.98177 73.5357C15.4986 73.5316 19.9675 69.0546 19.9634 63.5377V53.5398H9.98177C4.46495 53.5439 -0.00395261 58.0209 0.000124858 63.5377ZM26.6138 63.5377V90.2044C26.6056 95.7212 31.0745 100.198 36.5913 100.206C42.1082 100.202 46.5771 95.7253 46.573 90.2085V63.5459C46.5811 58.0291 42.1122 53.552 36.5954 53.5439C31.0745 53.5439 26.6097 58.0209 26.6138 63.5377Z" fill="#E01E5A"/>
</svg>
