<svg width="100" height="101" viewBox="0 0 100 101" fill="none" xmlns="http://www.w3.org/2000/svg">
<path d="M91.0588 5.95358C89.6221 9.44631 87.7643 12.5427 85.7083 15.3171C76.642 6.07744 63.9592 0.206665 49.9635 0.206665C22.4675 0.206665 0 22.5503 0 50.1454C0 64.5622 6.16802 77.5423 15.9526 86.7076L17.8105 88.3673C26.4556 95.6748 37.7017 100.109 49.9387 100.109C76.1961 100.109 97.8214 79.6231 99.6792 53.7619C101.165 41.203 97.3507 25.1265 91.0588 5.95358ZM23.1858 87.1287C21.7491 88.9866 19.0738 89.1847 17.216 87.748C15.3581 86.3113 15.16 83.636 16.5967 81.7782C18.0334 79.9203 20.7087 79.7221 22.5665 81.1589C24.3253 82.5956 24.6225 85.2709 23.1858 87.1287ZM90.7616 72.1917C78.4999 88.5655 52.1433 83.0167 35.3485 83.8342C35.3485 83.8342 32.3512 84.0323 29.3786 84.4534C29.3786 84.4534 30.5181 83.9333 31.9548 83.4131C43.7954 79.301 49.369 78.4588 56.5774 74.7679C70.0777 67.8568 83.5532 52.7216 86.2532 37.0662C81.1008 52.1023 65.4454 65.0824 51.2268 70.3339C41.4422 73.9505 23.8299 77.4432 23.8299 77.4432L23.1115 77.0221C11.1718 71.1513 10.7507 45.1911 32.5989 36.8432C42.1853 33.1276 51.2516 35.1836 61.6555 32.7312C72.6786 30.155 85.4606 21.9062 90.5882 11.106C96.3103 28.5201 103.321 55.4959 90.7616 72.1917Z" fill="#6CB52D"/>
<path d="M23.1858 87.1287C21.7491 88.9865 19.0738 89.1847 17.216 87.748C15.3581 86.3112 15.16 83.636 16.5967 81.7781C18.0334 79.9203 20.7087 79.7221 22.5666 81.1588C24.3253 82.5956 24.6226 85.2708 23.1858 87.1287Z" fill="#6CB52D"/>
</svg>
