<svg width="98" height="101" viewBox="0 0 98 101" fill="none" xmlns="http://www.w3.org/2000/svg">
<path d="M56.8941 98.5452C54.3395 101.762 49.1596 99.9997 49.0981 95.8918L48.198 35.8098H88.5971C95.9144 35.8098 99.9955 44.2614 95.4454 49.9922L56.8941 98.5452Z" fill="url(#paint0_linear_790_7069)"/>
<path d="M56.8941 98.5452C54.3395 101.762 49.1596 99.9997 49.0981 95.8918L48.198 35.8098H88.5971C95.9144 35.8098 99.9955 44.2614 95.4454 49.9922L56.8941 98.5452Z" fill="url(#paint1_linear_790_7069)" fill-opacity="0.2"/>
<path d="M40.464 1.86825C43.0187 -1.34923 48.1986 0.413715 48.2601 4.52161L48.6546 64.6035H8.76106C1.44348 64.6035 -2.63767 56.1519 1.91262 50.4212L40.464 1.86825Z" fill="#3ECF8E"/>
<defs>
<linearGradient id="paint0_linear_790_7069" x1="48.198" y1="49.1315" x2="84.1033" y2="64.1901" gradientUnits="userSpaceOnUse">
<stop stop-color="#249361"/>
<stop offset="1" stop-color="#3ECF8E"/>
</linearGradient>
<linearGradient id="paint1_linear_790_7069" x1="32.2795" y1="27.3362" x2="48.6542" y2="58.1607" gradientUnits="userSpaceOnUse">
<stop/>
<stop offset="1" stop-opacity="0"/>
</linearGradient>
</defs>
</svg>
