<svg width="101" height="101" viewBox="0 0 101 101" fill="none" xmlns="http://www.w3.org/2000/svg">
<path d="M50.6168 97.459C24.3612 97.459 3 76.0998 3 49.8432C3 23.5867 24.3612 2.22742 50.6168 2.22742C76.8724 2.22742 98.2336 23.5887 98.2336 49.8442C98.2336 76.0998 76.8724 97.459 50.6168 97.459Z" fill="#85EA2D"/>
<path d="M49.9995 4.9938C74.9818 4.9938 95.2326 25.2447 95.2326 50.2269C95.2326 75.2082 74.9818 95.46 49.9995 95.46C25.0182 95.46 4.76638 75.2082 4.76638 50.2269C4.76638 25.2457 25.0182 4.9938 49.9995 4.9938ZM49.9995 0.227417C22.4297 0.227417 0 22.6571 0 50.2269C0 77.7968 22.4297 100.226 49.9995 100.226C77.5693 100.226 100 77.7968 100 50.2269C100 22.6571 77.5693 0.227417 49.9995 0.227417Z" fill="#173647"/>
<path d="M31.9192 33.616C31.7653 35.3271 31.9762 37.0961 31.8622 38.8262C31.7273 40.5572 31.5154 42.2683 31.1696 43.9793C30.6889 46.421 29.1697 48.267 27.0749 49.8051C31.1516 52.4587 31.6124 56.5724 31.8812 60.7451C32.0161 62.9949 31.9582 65.2636 32.1891 67.4934C32.362 69.2234 33.0346 69.6662 34.8236 69.7232C35.5542 69.7422 36.3028 69.7232 37.1503 69.7232V75.0682C31.8632 75.9717 27.4986 74.4726 26.4212 69.993C26.0744 68.3589 25.8435 66.6858 25.7676 64.9938C25.6516 63.2058 25.8435 61.4177 25.7096 59.6297C25.3248 54.7264 24.6902 53.0733 19.9998 52.8425V46.7478C20.3456 46.6709 20.6724 46.6129 21.0182 46.5749C23.5948 46.44 24.6902 45.6514 25.2479 43.1138C25.5177 41.6916 25.6716 40.2494 25.7286 38.7882C25.9215 36.0007 25.8445 33.1553 26.3243 30.3868C26.9969 26.407 29.4586 24.4841 33.5543 24.2532C34.7077 24.1952 35.881 24.2532 37.2073 24.2532V29.7142C36.6496 29.7532 36.1689 29.8291 35.6691 29.8291C32.343 29.7132 32.1691 30.8476 31.9192 33.616ZM38.3217 46.2671H38.2447C36.3218 46.1711 34.6687 47.6703 34.5717 49.5932C34.4758 51.5352 35.975 53.1893 37.8979 53.2842H38.1288C40.0327 53.4002 41.6658 51.938 41.7818 50.035V49.8431C41.8208 47.9012 40.2636 46.3061 38.3217 46.2671ZM50.377 46.2671C48.5121 46.2091 46.9539 47.6703 46.897 49.5163C46.897 49.6322 46.897 49.7282 46.917 49.8431C46.917 51.939 48.3392 53.2852 50.493 53.2852C52.6078 53.2852 53.9351 51.901 53.9351 49.7282C53.9151 47.6323 52.5109 46.2481 50.377 46.2671ZM62.7213 46.2671C60.7603 46.2281 59.1252 47.7862 59.0683 49.7472C59.0683 51.7081 60.6444 53.2842 62.6053 53.2842H62.6443C64.4133 53.592 66.2013 51.881 66.3173 49.8241C66.4122 47.9202 64.6822 46.2671 62.7213 46.2671ZM79.6599 46.5549C77.4292 46.459 76.3138 45.7094 75.7571 43.5935C75.4103 42.2483 75.1994 40.8441 75.1224 39.4598C74.9685 36.8832 74.9875 34.2877 74.8146 31.7111C74.4108 25.5974 69.9893 23.4636 63.5668 24.52V29.8271C64.5852 29.8271 65.3738 29.8271 66.1624 29.8461C67.5276 29.8651 68.566 30.3848 68.7 31.904C68.8349 33.2882 68.8349 34.6914 68.9698 36.0957C69.2397 38.8841 69.3926 41.7096 69.8733 44.4591C70.2971 46.7278 71.8542 48.4199 73.7952 49.8041C70.393 52.0919 69.3926 55.3601 69.2197 59.0331C69.1237 61.5517 69.0658 64.0893 68.9318 66.6279C68.8159 68.9346 68.0093 69.6842 65.6826 69.7422C65.029 69.7612 64.3943 69.8191 63.6637 69.8581V75.2991C65.029 75.2991 66.2783 75.3761 67.5276 75.2991C71.4115 75.0682 73.7572 73.1843 74.5268 69.4153C74.8536 67.3385 75.0455 65.2436 75.1035 63.1478C75.2374 61.2248 75.2194 59.2829 75.4113 57.38C75.6991 54.3996 77.0644 53.1693 80.0447 52.9774C80.3336 52.9384 80.6024 52.8814 80.8723 52.7855V46.6898C80.3715 46.6319 80.0247 46.5749 79.6599 46.5549Z" fill="#173647"/>
</svg>
