<svg width="100" height="61" viewBox="0 0 100 61" fill="none" xmlns="http://www.w3.org/2000/svg">
<path d="M50.0002 0.228271C36.6665 0.228271 28.3334 6.89326 24.9996 20.222C30.0002 13.557 35.8337 11.0586 42.4999 12.7242C46.3039 13.6745 49.0224 16.4343 52.0323 19.488C56.9341 24.4623 62.6075 30.2195 75.0009 30.2195C88.3334 30.2195 96.6677 23.5545 100 10.2245C95.0009 16.8895 89.1674 19.3892 82.4999 17.7236C78.6973 16.7732 75.9787 14.0134 72.9689 10.9598C68.067 5.98542 62.3924 0.228271 50.0002 0.228271ZM24.9996 30.2195C11.6671 30.2195 3.33274 36.8845 0.000244141 50.2144C4.99962 43.5494 10.8331 41.0498 17.5006 42.7166C21.3032 43.6682 24.0218 46.4268 27.0316 49.4792C31.9335 54.4535 37.6081 60.2119 50.0002 60.2119C63.334 60.2119 71.6671 53.5469 75.0009 40.217C70.0002 46.8819 64.1668 49.3816 57.5006 47.7147C53.6966 46.7656 50.9781 44.0046 47.9682 40.9522C43.0664 35.9779 37.393 30.2195 24.9996 30.2195Z" fill="#06B6D4"/>
</svg>
