<svg width="100" height="101" viewBox="0 0 100 101" fill="none" xmlns="http://www.w3.org/2000/svg">
<g id="typescript">
<g id="typescript_2">
<path id="Vector" d="M0 0.228271H100V100.228H0V0.228271Z" fill="#017ACB"/>
<path id="Vector_2" d="M48.0157 37.2595H52.8126V45.5408H39.8438V82.3845L39.5 82.4783C39.0313 82.6033 32.8594 82.6033 31.5313 82.4626L30.4688 82.3689V45.5408H17.5V37.2595L21.6094 37.2126C23.8594 37.1814 29.6406 37.1814 34.4532 37.2126C39.2657 37.2439 45.3594 37.2595 48.0157 37.2595ZM84.6251 78.4783C82.7189 80.4939 80.672 81.6189 77.2657 82.5408C75.7813 82.947 75.5313 82.9626 72.1876 82.947C68.8438 82.9314 68.5782 82.9314 66.9532 82.5095C62.7501 81.4314 59.3594 79.322 57.0469 76.3376C56.3907 75.4939 55.3126 73.7439 55.3126 73.5251C55.3126 73.4626 55.4688 73.322 55.6719 73.2283C55.8751 73.1345 56.2969 72.8689 56.6407 72.6658C56.9844 72.4626 57.6094 72.0876 58.0313 71.8689C58.4532 71.6501 59.6719 70.9314 60.7345 70.2908C61.797 69.6501 62.7657 69.1345 62.8751 69.1345C62.9845 69.1345 63.1876 69.3533 63.3438 69.6189C64.2813 71.197 66.4688 73.2126 68.0157 73.9001C68.9688 74.3064 71.0782 74.7595 72.0938 74.7595C73.0313 74.7595 74.7501 74.3533 75.672 73.9314C76.6563 73.4783 77.1564 73.0251 77.7501 72.1189C78.1564 71.4783 78.2032 71.3064 78.1876 70.0876C78.1876 68.9626 78.1251 68.6501 77.8126 68.1345C76.9376 66.697 75.7501 65.947 70.9376 63.822C65.9688 61.6189 63.7345 60.3064 61.9219 58.5408C60.5782 57.2283 60.3126 56.8689 59.4688 55.2283C58.3751 53.1189 58.2344 52.4314 58.2188 49.2908C58.2032 47.0876 58.2501 46.3689 58.4844 45.6189C58.8126 44.4939 59.8751 42.322 60.3594 41.7751C61.3594 40.6033 61.7188 40.2439 62.422 39.6658C64.547 37.9158 67.8595 36.7595 71.0313 36.6501C71.3907 36.6501 72.5782 36.7126 73.6876 36.7908C76.8751 37.0564 79.047 37.8376 81.1407 39.5095C82.7189 40.7595 85.1095 43.697 84.8751 44.0876C84.7189 44.322 78.4845 48.4783 78.0782 48.6033C77.8282 48.6814 77.6564 48.5876 77.3126 48.1814C75.1876 45.6345 74.3282 45.0876 72.2657 44.9626C70.797 44.8689 70.0157 45.0408 69.0313 45.697C68.0001 46.3845 67.5001 47.4314 67.5001 48.8845C67.5157 51.0095 68.3282 52.0095 71.3282 53.4939C73.2657 54.447 74.922 55.2283 75.047 55.2283C75.2345 55.2283 79.2501 57.2283 80.297 57.8533C85.172 60.7126 87.1564 63.6501 87.672 68.7126C88.047 72.5251 86.9689 76.0095 84.6251 78.4783Z" fill="white"/>
</g>
</g>
</svg>
