<svg width="97" height="101" viewBox="0 0 97 101" fill="none" xmlns="http://www.w3.org/2000/svg">
<path d="M9.7281 59.964C15.1008 59.964 19.4562 55.6086 19.4562 50.2359C19.4562 44.8631 15.1008 40.5077 9.7281 40.5077C4.35542 40.5077 0 44.8631 0 50.2359C0 55.6086 4.35542 59.964 9.7281 59.964Z" fill="#FF6309"/>
<path d="M79.4846 100.228C84.8576 100.228 89.2133 95.8725 89.2133 90.4995C89.2133 85.1264 84.8576 80.7706 79.4846 80.7706C74.1116 80.7706 69.7559 85.1264 69.7559 90.4995C69.7559 95.8725 74.1116 100.228 79.4846 100.228Z" fill="#FFB515"/>
<path d="M79.4763 19.6845C84.849 19.6845 89.2044 15.3291 89.2044 9.95639C89.2044 4.5837 84.849 0.228271 79.4763 0.228271C74.1037 0.228271 69.7483 4.5837 69.7483 9.95639C69.7483 15.3291 74.1037 19.6845 79.4763 19.6845Z" fill="#C90016"/>
<path d="M56.2309 26.1638C68.3445 26.1638 78.3946 35.1584 80.0591 46.8194H96.7256C95.9676 37.6565 92.17 29.1158 85.8181 22.3808C81.7502 24.4522 76.748 24.4919 72.4992 22.0395C68.2471 19.5838 65.7801 15.2296 65.5435 10.6661C62.4899 9.95496 59.3649 9.59656 56.2296 9.5979C50.1479 9.5979 44.2711 10.9252 38.9263 13.4425L47.2721 27.8952C50.1198 26.7491 53.1612 26.1613 56.2309 26.1638Z" fill="#FF6309"/>
<path d="M32.1601 50.2359C32.1601 42.5666 35.7648 35.7249 41.368 31.3138L33.0255 16.863C31.0493 18.2439 29.1981 19.7956 27.4931 21.5002C22.6652 26.3281 19.2029 32.1573 17.2979 38.5192C21.1365 41.0054 23.6784 45.3218 23.6784 50.2359C23.6784 55.1487 21.1365 59.4658 17.2979 61.9513C19.2029 68.3133 22.6652 74.1418 27.4931 78.9711C29.1968 80.6748 31.0464 82.226 33.0208 83.6069L41.3647 69.1541C35.7628 64.7436 32.1601 57.9026 32.1601 50.2359Z" fill="#FFB515"/>
<path d="M80.0601 53.6412C78.4002 65.3062 68.3481 74.3066 56.2312 74.3066C53.0651 74.3066 50.0395 73.6904 47.269 72.5739L38.9238 87.0271C44.2673 89.5458 50.1475 90.8737 56.2305 90.8737C59.4085 90.8737 62.5315 90.5072 65.5511 89.8042C65.7837 85.2347 68.2507 80.8726 72.5061 78.4156C76.7562 75.9619 81.7605 76.0003 85.8284 78.0763C92.1744 71.34 95.9693 62.8008 96.7241 53.6412H80.0601Z" fill="#C90016"/>
</svg>
