<svg width="100" height="92" viewBox="0 0 100 92" fill="none" xmlns="http://www.w3.org/2000/svg">
<path d="M75.0449 27.8869L51.1384 62.4525C50.885 62.819 50.5184 63.0935 50.0944 63.2345C49.6704 63.3754 49.212 63.374 48.7888 63.2325C48.3656 63.0902 48.0008 62.8144 47.7495 62.4472C47.4983 62.0794 47.3744 61.6402 47.3968 61.1963L48.3536 42.1125L32.9074 38.8367C32.5773 38.7668 32.2698 38.6168 32.012 38.4002C31.7542 38.1836 31.5541 37.9069 31.4294 37.5947C31.3048 37.2826 31.2595 36.9445 31.2975 36.6105C31.3354 36.2766 31.4555 35.9569 31.6471 35.6799L55.5538 1.11427C55.8073 0.747584 56.1739 0.473113 56.5979 0.332405C57.0221 0.191697 57.4804 0.192425 57.9037 0.334588C58.3269 0.476686 58.6918 0.752412 58.9429 1.11996C59.1941 1.48744 59.318 1.92663 59.2955 2.37092L58.3388 21.4549L73.7847 24.7304C74.1148 24.8003 74.4224 24.9503 74.6804 25.1669C74.9384 25.3836 75.1382 25.6602 75.2626 25.9724C75.3876 26.2846 75.4326 26.6226 75.3949 26.9566C75.3572 27.2906 75.2368 27.6099 75.0449 27.8869Z" fill="#FCC72B"/>
<path d="M50.0096 91.453C49.3737 91.4536 48.744 91.3293 48.1565 91.0858C47.5691 90.8424 47.0355 90.4851 46.5865 90.0353L23.9975 67.4479C23.0939 66.5396 22.5873 65.3098 22.589 64.0284C22.5907 62.747 23.1005 61.5179 24.0067 60.6123C24.9128 59.706 26.1413 59.1959 27.4228 59.1939C28.7043 59.1926 29.9342 59.6987 30.8428 60.6023L50.0096 79.767L91.7645 38.014C92.6748 37.1184 93.9019 36.6188 95.1787 36.6241C96.4561 36.6292 97.6793 37.1388 98.5816 38.0417C99.4846 38.9447 99.9946 40.1678 99.9999 41.4448C100.005 42.7218 99.5051 43.949 98.6094 44.8592L53.4317 90.0353C52.9828 90.4858 52.4494 90.8424 51.8621 91.0858C51.2748 91.3293 50.6452 91.4536 50.0096 91.453Z" fill="#729B1B"/>
<path d="M49.9901 91.453C50.626 91.4536 51.2557 91.3293 51.8431 91.0858C52.4306 90.8424 52.9641 90.4851 53.4132 90.0353L76.0021 67.4479C76.9058 66.5396 77.4125 65.3098 77.4105 64.0284C77.4092 62.747 76.8992 61.5179 75.9929 60.6123C75.0866 59.706 73.8581 59.1959 72.5767 59.1939C71.2953 59.1926 70.0655 59.6987 69.1566 60.6023L49.9901 79.767L8.23524 38.014C7.32497 37.1184 6.09769 36.6188 4.8208 36.6241C3.54384 36.6292 2.32067 37.1388 1.41775 38.0417C0.514806 38.9447 0.00523984 40.1678 4.01847e-05 41.4448C-0.00515947 42.7218 0.494431 43.949 1.38999 44.8592L46.5679 90.0353C47.0168 90.4858 47.5503 90.8424 48.1376 91.0858C48.7249 91.3293 49.3544 91.4536 49.9901 91.453Z" fill="#729B1B" fill-opacity="0.5"/>
</svg>
