<svg width="99" height="101" viewBox="0 0 99 101" fill="none" xmlns="http://www.w3.org/2000/svg">
<path d="M97.848 15.0292L51.7313 98.9229C50.779 100.655 48.3328 100.665 47.3664 98.9416L0.335428 15.037C-0.71763 13.1589 0.86119 10.8837 2.9535 11.2644L49.1197 19.6589C49.4142 19.7125 49.7158 19.712 50.0102 19.6574L95.2107 11.2761C97.2961 10.8895 98.8822 13.1472 97.848 15.0292Z" fill="url(#paint0_linear_790_7160)"/>
<path d="M71.1109 0.252892L36.9835 7.05607C36.7108 7.11042 36.4636 7.25541 36.2808 7.46827C36.0979 7.68112 35.9898 7.94975 35.9734 8.23194L33.8742 44.3023C33.8626 44.5001 33.8966 44.698 33.9733 44.8801C34.05 45.0623 34.1675 45.2237 34.3162 45.3516C34.465 45.4795 34.6411 45.5704 34.8304 45.617C35.0197 45.6636 35.2171 45.6647 35.407 45.6202L44.9086 43.3894C45.7976 43.1806 46.601 43.9773 46.4181 44.8867L43.5952 58.9499C43.4054 59.8964 44.2786 60.7055 45.1871 60.4246L51.056 58.6109C51.9656 58.33 52.84 59.1415 52.6474 60.0887L48.1614 82.1786C47.8807 83.5604 49.6873 84.3138 50.4405 83.1293L50.944 82.3381L78.753 25.8778C79.219 24.9325 78.4156 23.8545 77.3955 24.055L67.6146 25.9753C66.6958 26.1555 65.9138 25.2847 66.1731 24.3703L72.5566 1.85752C72.8162 0.940701 72.0312 0.0695287 71.1113 0.252892H71.1109Z" fill="url(#paint1_linear_790_7160)"/>
<defs>
<linearGradient id="paint0_linear_790_7160" x1="-0.812871" y1="18.033" x2="50.0375" y2="85.9158" gradientUnits="userSpaceOnUse">
<stop stop-color="#41D1FF"/>
<stop offset="1" stop-color="#BD34FE"/>
</linearGradient>
<linearGradient id="paint1_linear_790_7160" x1="53.3984" y1="2.10009" x2="63.9803" y2="73.4523" gradientUnits="userSpaceOnUse">
<stop stop-color="#FFEA83"/>
<stop offset="0.083" stop-color="#FFDD35"/>
<stop offset="1" stop-color="#FFA800"/>
</linearGradient>
</defs>
</svg>
