<svg width="100" height="100" viewBox="0 0 100 100" fill="none" xmlns="http://www.w3.org/2000/svg">
<path d="M0.951416 34.7266C0.951416 34.7266 -1.48421 32.971 1.43854 30.6267L8.24814 24.5376C8.24814 24.5376 10.1966 22.4876 12.2568 24.2737L75.0959 71.8497V94.6634C75.0959 94.6634 75.0655 98.2458 70.4682 97.85L0.951416 34.7266Z" fill="#2489CA"/>
<path d="M17.1484 49.4319L0.95144 64.1573C0.95144 64.1573 -0.712906 65.3954 0.95144 67.6077L8.47144 74.4478C8.47144 74.4478 10.2576 76.3658 12.8962 74.1839L30.0673 61.1635L17.1484 49.4319Z" fill="#1070B3"/>
<path d="M45.5843 49.5536L75.2888 26.8717L75.096 4.17977C75.096 4.17977 73.8275 -0.772688 69.5956 1.80502L30.0673 37.7813L45.5843 49.5536Z" fill="#0877B9"/>
<path d="M70.4683 97.8806C72.1936 99.6465 74.2842 99.068 74.2842 99.068L97.4327 87.6611C100.396 85.6416 99.98 83.1349 99.98 83.1349V15.0185C99.98 12.0247 96.9152 10.9895 96.9152 10.9895L76.8517 1.31806C72.4676 -1.39158 69.5956 1.80518 69.5956 1.80518C69.5956 1.80518 73.2896 -0.853714 75.096 4.17992V94.2475C75.096 94.8665 74.9641 95.4754 74.7002 96.0235C74.1725 97.0891 73.0258 98.0836 70.2755 97.6675L70.4683 97.8806Z" fill="#3C99D4"/>
</svg>
