<svg width="89" height="101" viewBox="0 0 89 101" fill="none" xmlns="http://www.w3.org/2000/svg">
<path d="M44.1916 0.228271L-3.8147e-05 25.2283V75.2283L44.1916 100.228L88.3833 75.2283V25.2283L44.1916 0.228271Z" fill="white"/>
<path d="M7.89172 73.5032L42.7334 93.2116V77.8615L21.0251 65.9199L7.89172 73.5032ZM5.50839 71.3449V30.1282L18.2584 37.4865V63.9782L5.50839 71.3449ZM80.6334 73.5032L45.7917 93.2116V77.8615L67.5001 65.9199L80.6334 73.5032ZM83.0167 71.3449V30.1282L70.2667 37.4865V63.9782L83.0167 71.3449ZM81.5251 27.4615L45.7917 7.24487V22.0865L68.6834 34.6782L68.8584 34.7782L81.5251 27.4615ZM7.00005 27.4615L42.7334 7.24487V22.0865L19.8417 34.6782L19.6667 34.7782L7.00005 27.4615Z" fill="#8ED6FB"/>
<path d="M45.7916 74.3699L67.2083 62.5949V39.2616L45.7916 51.6282V74.3699ZM42.7333 74.3699L21.3166 62.5949V39.2616L42.7333 51.6282V74.3699ZM65.7583 36.5616L44.2583 24.7366L22.7583 36.5616L44.2583 48.9782L65.7583 36.5616Z" fill="#1C78C0"/>
</svg>
