<svg width="100" height="98" viewBox="0 0 100 98" fill="none" xmlns="http://www.w3.org/2000/svg">
<path d="M17.7083 0.249023H82.2917C92.0833 0.249023 100 8.16569 100 17.9574V80.0407C100 89.8324 92.0833 97.749 82.2917 97.749H17.7083C7.91667 97.749 0 89.8324 0 80.0407V17.9574C0 8.16569 7.91667 0.249023 17.7083 0.249023Z" fill="#470137"/>
<path d="M52.5832 25.874L40.0832 46.499L53.4166 68.374C53.4999 68.5407 53.5416 68.7074 53.4999 68.874C53.4582 69.0407 53.2916 68.9157 53.0416 68.9574H43.4999C42.8332 68.9574 42.3749 68.9157 42.0832 68.499C41.2082 66.749 40.2916 65.0407 39.4166 63.2907C38.5416 61.5824 37.5832 59.8324 36.5832 58.0407C35.5832 56.249 34.5832 54.4574 33.5832 52.624H33.4999C32.6249 54.4157 31.6666 56.2074 30.7082 57.999C29.7499 59.7907 28.7916 61.5824 27.8749 63.3324C26.9166 65.0824 25.9582 66.874 24.9999 68.5824C24.8332 68.999 24.4999 69.0407 24.0416 69.0407H14.8749C14.7082 69.0407 14.5832 69.124 14.5832 68.9157C14.5416 68.749 14.5832 68.5824 14.6666 68.4574L27.6249 47.2074L14.9999 25.8324C14.8749 25.6657 14.8332 25.499 14.9166 25.4157C14.9999 25.2907 15.1666 25.249 15.3332 25.249H24.7916C24.9999 25.249 25.2082 25.2907 25.3749 25.3324C25.5416 25.4157 25.6666 25.5407 25.7916 25.7074C26.5832 27.499 27.4999 29.2907 28.4582 31.0824C29.4582 32.874 30.4166 34.624 31.4582 36.374C32.4582 38.124 33.3749 39.874 34.2499 41.6657H34.3332C35.2082 39.8324 36.1249 38.0407 37.0416 36.2907C37.9582 34.5407 38.9166 32.7907 39.8749 31.0407C40.8332 29.2907 41.7499 27.499 42.6666 25.7907C42.7082 25.624 42.7916 25.4574 42.9166 25.374C43.0832 25.2907 43.2499 25.249 43.4582 25.2907H52.2499C52.4582 25.249 52.6666 25.374 52.7082 25.5824C52.7499 25.624 52.6666 25.7907 52.5832 25.874Z" fill="#FF61F6"/>
<path d="M71.8333 69.8324C68.7499 69.874 65.6666 69.249 62.8749 67.9574C60.2499 66.749 58.0833 64.749 56.5833 62.2907C55.0416 59.749 54.2916 56.5824 54.2916 52.7907C54.2499 49.7074 55.0416 46.6657 56.5833 43.999C58.1666 41.2907 60.4583 39.0407 63.2083 37.5407C66.1249 35.9157 69.6249 35.124 73.7499 35.124C73.9583 35.124 74.2499 35.124 74.6249 35.1657C74.9999 35.2074 75.4166 35.2074 75.9166 35.249V22.0824C75.9166 21.7907 76.0416 21.624 76.3333 21.624H84.7916C84.9999 21.5824 85.1666 21.749 85.2083 21.9157C85.2083 21.9574 85.2083 21.999 85.2083 21.999V61.6657C85.2083 62.4157 85.2499 63.249 85.2916 64.1657C85.3749 65.0407 85.4166 65.874 85.4583 66.5824C85.4583 66.874 85.3333 67.124 85.0416 67.249C82.8749 68.1657 80.5833 68.8324 78.2499 69.249C76.1249 69.624 73.9999 69.8324 71.8333 69.8324ZM75.9166 61.499V43.1657C75.5416 43.0824 75.1666 42.999 74.7916 42.9574C74.3333 42.9157 73.8749 42.874 73.4166 42.874C71.7916 42.874 70.1666 43.2074 68.7083 43.9574C67.2916 44.6657 66.0833 45.7074 65.1666 47.0407C64.2499 48.374 63.7916 50.1657 63.7916 52.3324C63.7499 53.7907 63.9999 55.249 64.4999 56.624C64.9166 57.749 65.5416 58.749 66.3749 59.5824C67.1666 60.3324 68.1249 60.9157 69.2083 61.249C70.3333 61.624 71.4999 61.7907 72.6666 61.7907C73.2916 61.7907 73.8749 61.749 74.4166 61.7074C74.9583 61.749 75.4166 61.6657 75.9166 61.499Z" fill="#FF61F6"/>
</svg>
